<svg width="709" height="134" viewBox="0 0 709 134" fill="none" xmlns="http://www.w3.org/2000/svg">
<path d="M707.514 106.388V24.1672C707.514 17.9339 702.461 12.8809 696.228 12.8809H36.9919C34.3773 12.8809 31.8438 13.7886 29.8242 15.4492L5.11865 35.7615C2.51111 37.9054 1.00006 41.1039 1.00006 44.4796V121.437C1.00006 127.67 6.05316 132.723 12.2864 132.723H640.573C643.187 132.723 645.721 131.816 647.74 130.155L659.796 120.243C661.816 118.583 664.349 117.675 666.964 117.675H696.228C702.461 117.675 707.514 112.622 707.514 106.388Z" stroke="white" stroke-width="1.69295" stroke-dasharray="3.39 3.39"/>
<path d="M694.972 91.6643V13.9352C694.972 6.23899 688.733 0 681.037 0H48.1801C44.8534 0 41.6364 1.19016 39.1106 3.35533L17.0137 22.2977C13.9254 24.9452 12.1481 28.8098 12.1481 32.8776V106.829C12.1481 114.525 18.3871 120.764 26.0833 120.764H629.028C632.355 120.764 635.572 119.574 638.098 117.409L647.959 108.955C650.485 106.79 653.702 105.6 657.029 105.6H681.037C688.733 105.6 694.972 99.3605 694.972 91.6643Z" fill="url(#paint0_linear_515_15)"/>
<path d="M72.1469 71.5999C70.3145 71.5999 68.6275 71.284 67.0858 70.6521C65.5441 70.0077 64.2046 69.0725 63.0673 67.8468C61.93 66.621 61.0454 65.1298 60.4135 63.3733C59.7817 61.6168 59.4658 59.6202 59.4658 57.3835C59.4658 54.4391 60.0028 51.9117 61.077 49.8014C62.1511 47.6784 63.6423 46.0482 65.5504 44.9109C67.4586 43.7609 69.6574 43.186 72.1469 43.186C75.3566 43.186 77.9156 43.9315 79.8237 45.4227C81.7445 46.9138 83.0524 48.9736 83.7475 51.6021L79.729 52.3224C79.1729 50.6922 78.2757 49.3907 77.0373 48.4176C75.7989 47.4446 74.2446 46.9517 72.3743 46.9391C70.4409 46.9265 68.8297 47.3561 67.5407 48.2281C66.2644 49.1 65.304 50.3258 64.6595 51.9054C64.015 53.4724 63.6865 55.2984 63.6738 57.3835C63.6612 59.4685 63.9771 61.2946 64.6216 62.8615C65.2661 64.4159 66.2328 65.629 67.5218 66.5009C68.8234 67.3729 70.4409 67.8152 72.3743 67.8278C73.9286 67.8531 75.2618 67.5688 76.3739 66.9748C77.4986 66.3683 78.3895 65.4837 79.0466 64.3211C79.7037 63.1585 80.127 61.7305 80.3166 60.0372H75.0091V56.8527H84.5246C84.5499 57.0802 84.5689 57.3835 84.5815 57.7626C84.5941 58.129 84.6005 58.3628 84.6005 58.4639C84.6005 60.9913 84.1139 63.247 83.1409 65.2309C82.1679 67.2149 80.7525 68.7756 78.8949 69.9129C77.0373 71.0376 74.788 71.5999 72.1469 71.5999ZM97.4581 71.5999C95.4235 71.5999 93.6354 71.1576 92.0937 70.273C90.5647 69.3758 89.3705 68.1311 88.5112 66.5389C87.6645 64.934 87.2412 63.0764 87.2412 60.966C87.2412 58.7293 87.6582 56.7895 88.4922 55.1467C89.3389 53.5039 90.5141 52.2339 92.0179 51.3367C93.5217 50.4395 95.2719 49.9909 97.2685 49.9909C99.3536 49.9909 101.129 50.4774 102.595 51.4505C104.061 52.4109 105.154 53.782 105.874 55.5638C106.607 57.3455 106.898 59.4622 106.746 61.9138H102.784V60.4732C102.759 58.0974 102.304 56.3409 101.42 55.2036C100.548 54.0663 99.2146 53.4976 97.4201 53.4976C95.4362 53.4976 93.945 54.1232 92.9467 55.3742C91.9484 56.6252 91.4492 58.4323 91.4492 60.7954C91.4492 63.0448 91.9484 64.7886 92.9467 66.0271C93.945 67.2528 95.3856 67.8657 97.2685 67.8657C98.5069 67.8657 99.5747 67.5877 100.472 67.0317C101.382 66.463 102.089 65.6543 102.595 64.6054L106.481 65.8375C105.685 67.6698 104.478 69.0915 102.86 70.1024C101.243 71.1008 99.442 71.5999 97.4581 71.5999ZM90.1603 61.9138V58.8241H104.775V61.9138H90.1603ZM122.713 71.0312C121.424 71.284 120.161 71.3914 118.922 71.3535C117.684 71.3156 116.578 71.0755 115.605 70.6332C114.632 70.1909 113.899 69.4959 113.406 68.5481C112.964 67.7014 112.724 66.8421 112.686 65.9702C112.661 65.0856 112.648 64.0873 112.648 62.9753V44.873H116.629V62.7857C116.629 63.6071 116.635 64.3211 116.648 64.9277C116.673 65.5342 116.806 66.046 117.046 66.463C117.501 67.2465 118.221 67.6951 119.207 67.8089C120.205 67.9099 121.374 67.8657 122.713 67.6762V71.0312ZM108.724 53.744V50.5596H122.713V53.744H108.724ZM134.998 47.2045V43.3566H138.96V47.2045H134.998ZM134.998 71.0312V50.5596H138.96V71.0312H134.998ZM159.02 71.0312V60.966C159.02 60.1699 158.951 59.3548 158.812 58.5208C158.685 57.6741 158.432 56.8906 158.053 56.1703C157.687 55.45 157.162 54.8687 156.48 54.4264C155.81 53.9841 154.932 53.763 153.845 53.763C153.138 53.763 152.468 53.8831 151.836 54.1232C151.204 54.3506 150.648 54.7234 150.168 55.2415C149.7 55.7596 149.328 56.442 149.05 57.2887C148.784 58.1353 148.651 59.1653 148.651 60.3784L146.187 59.4496C146.187 57.592 146.535 55.9555 147.23 54.5402C147.925 53.1122 148.923 52.0002 150.225 51.204C151.526 50.4079 153.1 50.0099 154.945 50.0099C156.36 50.0099 157.548 50.2373 158.508 50.6922C159.469 51.1472 160.246 51.7474 160.84 52.493C161.446 53.2259 161.908 54.0284 162.223 54.9003C162.539 55.7723 162.754 56.6252 162.868 57.4593C162.982 58.2933 163.039 59.0262 163.039 59.6581V71.0312H159.02ZM144.633 71.0312V50.5596H148.178V56.4736H148.651V71.0312H144.633ZM175.804 71.581C173.315 71.581 171.287 71.0312 169.72 69.9318C168.153 68.8324 167.192 67.2844 166.838 65.2878L170.895 64.6623C171.148 65.7238 171.729 66.5641 172.639 67.1833C173.561 67.7899 174.705 68.0932 176.07 68.0932C177.308 68.0932 178.275 67.8404 178.97 67.335C179.678 66.8295 180.031 66.1345 180.031 65.2499C180.031 64.7318 179.905 64.3148 179.652 63.9988C179.412 63.6703 178.9 63.3607 178.117 63.07C177.333 62.7794 176.139 62.4192 174.534 61.9896C172.778 61.5347 171.381 61.0481 170.345 60.53C169.322 59.9993 168.589 59.3864 168.146 58.6914C167.717 57.9837 167.502 57.1307 167.502 56.1324C167.502 54.894 167.83 53.8135 168.488 52.8911C169.145 51.9686 170.067 51.2546 171.255 50.7491C172.456 50.2436 173.858 49.9909 175.463 49.9909C177.03 49.9909 178.426 50.2373 179.652 50.7302C180.878 51.223 181.87 51.9243 182.628 52.8342C183.386 53.7314 183.841 54.7866 183.993 55.9997L179.937 56.739C179.798 55.7533 179.336 54.9761 178.553 54.4075C177.769 53.8388 176.752 53.5292 175.501 53.4787C174.301 53.4281 173.328 53.6303 172.582 54.0852C171.836 54.5275 171.464 55.1404 171.464 55.9239C171.464 56.3788 171.603 56.7643 171.881 57.0802C172.171 57.3961 172.727 57.6994 173.549 57.99C174.37 58.2807 175.583 58.6282 177.188 59.0326C178.907 59.4749 180.271 59.9677 181.282 60.5111C182.293 61.0418 183.014 61.68 183.443 62.4256C183.886 63.1585 184.107 64.0494 184.107 65.0983C184.107 67.1201 183.367 68.7061 181.889 69.856C180.423 71.006 178.395 71.581 175.804 71.581ZM200.015 71.0312C198.726 71.284 197.463 71.3914 196.224 71.3535C194.986 71.3156 193.88 71.0755 192.907 70.6332C191.934 70.1909 191.201 69.4959 190.708 68.5481C190.266 67.7014 190.026 66.8421 189.988 65.9702C189.963 65.0856 189.95 64.0873 189.95 62.9753V44.873H193.931V62.7857C193.931 63.6071 193.937 64.3211 193.95 64.9277C193.975 65.5342 194.108 66.046 194.348 66.463C194.803 67.2465 195.523 67.6951 196.509 67.8089C197.507 67.9099 198.676 67.8657 200.015 67.6762V71.0312ZM186.026 53.744V50.5596H200.015V53.744H186.026ZM210.113 71.5999C208.596 71.5999 207.326 71.3219 206.303 70.7659C205.279 70.1972 204.502 69.4516 203.971 68.5292C203.453 67.594 203.194 66.5704 203.194 65.4584C203.194 64.4222 203.377 63.5123 203.744 62.7288C204.11 61.9454 204.654 61.2819 205.374 60.7385C206.094 60.1825 206.979 59.7339 208.028 59.3927C208.938 59.1273 209.967 58.8936 211.117 58.6914C212.267 58.4892 213.474 58.2996 214.738 58.1227C216.014 57.9458 217.278 57.7689 218.529 57.592L217.088 58.3881C217.114 56.7832 216.772 55.5953 216.065 54.8245C215.37 54.041 214.169 53.6493 212.463 53.6493C211.389 53.6493 210.403 53.902 209.506 54.4075C208.609 54.9003 207.983 55.7217 207.63 56.8717L203.933 55.7343C204.439 53.9778 205.399 52.5815 206.815 51.5452C208.243 50.509 210.138 49.9909 212.501 49.9909C214.333 49.9909 215.926 50.3068 217.278 50.9387C218.643 51.5579 219.641 52.5435 220.273 53.8957C220.601 54.5654 220.804 55.2731 220.879 56.0187C220.955 56.7643 220.993 57.5667 220.993 58.426V71.0312H217.486V66.3493L218.169 66.9559C217.322 68.5228 216.242 69.6917 214.927 70.4626C213.626 71.2208 212.021 71.5999 210.113 71.5999ZM210.814 68.3586C211.939 68.3586 212.906 68.1627 213.714 67.7709C214.523 67.3666 215.174 66.8548 215.667 66.2356C216.159 65.6164 216.482 64.9719 216.633 64.3021C216.848 63.6956 216.968 63.0132 216.994 62.255C217.031 61.4968 217.05 60.8902 217.05 60.4353L218.339 60.9091C217.088 61.0987 215.951 61.2693 214.927 61.4209C213.904 61.5726 212.975 61.7242 212.141 61.8759C211.32 62.0149 210.587 62.1855 209.942 62.3876C209.399 62.5772 208.912 62.8047 208.483 63.07C208.066 63.3354 207.731 63.6577 207.478 64.0368C207.238 64.4159 207.118 64.8771 207.118 65.4205C207.118 65.9512 207.251 66.4441 207.516 66.899C207.781 67.3413 208.186 67.6951 208.729 67.9605C209.272 68.2259 209.967 68.3586 210.814 68.3586ZM240.283 71.0312V60.966C240.283 60.1699 240.214 59.3548 240.075 58.5208C239.948 57.6741 239.696 56.8906 239.317 56.1703C238.95 55.45 238.426 54.8687 237.743 54.4264C237.074 53.9841 236.195 53.763 235.109 53.763C234.401 53.763 233.731 53.8831 233.099 54.1232C232.467 54.3506 231.911 54.7234 231.431 55.2415C230.964 55.7596 230.591 56.442 230.313 57.2887C230.047 58.1353 229.915 59.1653 229.915 60.3784L227.451 59.4496C227.451 57.592 227.798 55.9555 228.493 54.5402C229.188 53.1122 230.186 52.0002 231.488 51.204C232.79 50.4079 234.363 50.0099 236.208 50.0099C237.623 50.0099 238.811 50.2373 239.772 50.6922C240.732 51.1472 241.509 51.7474 242.103 52.493C242.71 53.2259 243.171 54.0284 243.487 54.9003C243.803 55.7723 244.018 56.6252 244.131 57.4593C244.245 58.2933 244.302 59.0262 244.302 59.6581V71.0312H240.283ZM225.896 71.0312V50.5596H229.441V56.4736H229.915V71.0312H225.896ZM260.953 71.0312C259.664 71.284 258.401 71.3914 257.162 71.3535C255.924 71.3156 254.818 71.0755 253.845 70.6332C252.872 70.1909 252.139 69.4959 251.646 68.5481C251.204 67.7014 250.964 66.8421 250.926 65.9702C250.901 65.0856 250.888 64.0873 250.888 62.9753V44.873H254.869V62.7857C254.869 63.6071 254.875 64.3211 254.888 64.9277C254.913 65.5342 255.046 66.046 255.286 66.463C255.741 67.2465 256.461 67.6951 257.447 67.8089C258.445 67.9099 259.614 67.8657 260.953 67.6762V71.0312ZM246.964 53.744V50.5596H260.953V53.744H246.964ZM270.964 71.0312L279.835 43.7357H285.54L294.411 71.0312H290.298L282.128 46.124H283.152L275.077 71.0312H270.964ZM275.57 64.8708V61.1556H289.824V64.8708H275.57ZM306.569 71.5999C304.472 71.5999 302.69 71.1323 301.224 70.1972C299.758 69.2621 298.633 67.9795 297.85 66.3493C297.079 64.7191 296.687 62.8678 296.675 60.7954C296.687 58.6851 297.092 56.8211 297.888 55.2036C298.684 53.5734 299.821 52.2971 301.3 51.3746C302.778 50.4521 304.554 49.9909 306.626 49.9909C308.863 49.9909 310.771 50.5469 312.351 51.659C313.943 52.771 314.992 54.2937 315.497 56.2272L311.555 57.3645C311.163 56.2145 310.518 55.3237 309.621 54.6918C308.737 54.0473 307.719 53.7251 306.569 53.7251C305.268 53.7251 304.2 54.0347 303.366 54.6539C302.532 55.2605 301.913 56.0945 301.508 57.156C301.104 58.2175 300.895 59.4306 300.883 60.7954C300.895 62.9058 301.376 64.6117 302.323 65.9133C303.284 67.2149 304.699 67.8657 306.569 67.8657C307.846 67.8657 308.876 67.5751 309.659 66.9938C310.455 66.3998 311.062 65.5532 311.479 64.4538L315.497 65.4015C314.827 67.3982 313.722 68.9335 312.18 70.0077C310.638 71.0692 308.768 71.5999 306.569 71.5999ZM327.561 71.5999C325.463 71.5999 323.681 71.1323 322.215 70.1972C320.75 69.2621 319.625 67.9795 318.841 66.3493C318.071 64.7191 317.679 62.8678 317.666 60.7954C317.679 58.6851 318.083 56.8211 318.879 55.2036C319.675 53.5734 320.813 52.2971 322.291 51.3746C323.77 50.4521 325.545 49.9909 327.618 49.9909C329.854 49.9909 331.763 50.5469 333.342 51.659C334.934 52.771 335.983 54.2937 336.489 56.2272L332.546 57.3645C332.154 56.2145 331.51 55.3237 330.613 54.6918C329.728 54.0473 328.711 53.7251 327.561 53.7251C326.259 53.7251 325.191 54.0347 324.357 54.6539C323.523 55.2605 322.904 56.0945 322.5 57.156C322.095 58.2175 321.887 59.4306 321.874 60.7954C321.887 62.9058 322.367 64.6117 323.315 65.9133C324.275 67.2149 325.691 67.8657 327.561 67.8657C328.837 67.8657 329.867 67.5751 330.65 66.9938C331.447 66.3998 332.053 65.5532 332.47 64.4538L336.489 65.4015C335.819 67.3982 334.713 68.9335 333.172 70.0077C331.63 71.0692 329.76 71.5999 327.561 71.5999ZM348.875 71.5999C346.84 71.5999 345.052 71.1576 343.51 70.273C341.981 69.3758 340.787 68.1311 339.928 66.5389C339.081 64.934 338.658 63.0764 338.658 60.966C338.658 58.7293 339.075 56.7895 339.909 55.1467C340.755 53.5039 341.931 52.2339 343.434 51.3367C344.938 50.4395 346.688 49.9909 348.685 49.9909C350.77 49.9909 352.546 50.4774 354.011 51.4505C355.477 52.4109 356.57 53.782 357.291 55.5638C358.024 57.3455 358.314 59.4622 358.163 61.9138H354.201V60.4732C354.176 58.0974 353.721 56.3409 352.836 55.2036C351.964 54.0663 350.631 53.4976 348.837 53.4976C346.853 53.4976 345.361 54.1232 344.363 55.3742C343.365 56.6252 342.866 58.4323 342.866 60.7954C342.866 63.0448 343.365 64.7886 344.363 66.0271C345.361 67.2528 346.802 67.8657 348.685 67.8657C349.923 67.8657 350.991 67.5877 351.888 67.0317C352.798 66.463 353.506 65.6543 354.011 64.6054L357.897 65.8375C357.101 67.6698 355.894 69.0915 354.277 70.1024C352.659 71.1008 350.859 71.5999 348.875 71.5999ZM341.577 61.9138V58.8241H356.191V61.9138H341.577ZM370.244 71.581C367.754 71.581 365.726 71.0312 364.159 69.9318C362.592 68.8324 361.632 67.2844 361.278 65.2878L365.334 64.6623C365.587 65.7238 366.169 66.5641 367.078 67.1833C368.001 67.7899 369.144 68.0932 370.509 68.0932C371.748 68.0932 372.714 67.8404 373.409 67.335C374.117 66.8295 374.471 66.1345 374.471 65.2499C374.471 64.7318 374.345 64.3148 374.092 63.9988C373.852 63.6703 373.34 63.3607 372.556 63.07C371.773 62.7794 370.579 62.4192 368.974 61.9896C367.217 61.5347 365.821 61.0481 364.785 60.53C363.761 59.9993 363.028 59.3864 362.586 58.6914C362.156 57.9837 361.941 57.1307 361.941 56.1324C361.941 54.894 362.27 53.8135 362.927 52.8911C363.584 51.9686 364.507 51.2546 365.695 50.7491C366.895 50.2436 368.298 49.9909 369.903 49.9909C371.47 49.9909 372.866 50.2373 374.092 50.7302C375.318 51.223 376.31 51.9243 377.068 52.8342C377.826 53.7314 378.281 54.7866 378.433 55.9997L374.376 56.739C374.237 55.7533 373.776 54.9761 372.992 54.4075C372.209 53.8388 371.192 53.5292 369.941 53.4787C368.74 53.4281 367.767 53.6303 367.021 54.0852C366.276 54.5275 365.903 55.1404 365.903 55.9239C365.903 56.3788 366.042 56.7643 366.32 57.0802C366.611 57.3961 367.167 57.6994 367.988 57.99C368.81 58.2807 370.023 58.6282 371.628 59.0326C373.346 59.4749 374.711 59.9677 375.722 60.5111C376.733 61.0418 377.453 61.68 377.883 62.4256C378.325 63.1585 378.546 64.0494 378.546 65.0983C378.546 67.1201 377.807 68.7061 376.329 69.856C374.863 71.006 372.834 71.581 370.244 71.581ZM390.569 71.581C388.08 71.581 386.051 71.0312 384.484 69.9318C382.917 68.8324 381.957 67.2844 381.603 65.2878L385.66 64.6623C385.912 65.7238 386.494 66.5641 387.403 67.1833C388.326 67.7899 389.47 68.0932 390.834 68.0932C392.073 68.0932 393.039 67.8404 393.734 67.335C394.442 66.8295 394.796 66.1345 394.796 65.2499C394.796 64.7318 394.67 64.3148 394.417 63.9988C394.177 63.6703 393.665 63.3607 392.882 63.07C392.098 62.7794 390.904 62.4192 389.299 61.9896C387.542 61.5347 386.146 61.0481 385.11 60.53C384.086 59.9993 383.353 59.3864 382.911 58.6914C382.481 57.9837 382.267 57.1307 382.267 56.1324C382.267 54.894 382.595 53.8135 383.252 52.8911C383.909 51.9686 384.832 51.2546 386.02 50.7491C387.22 50.2436 388.623 49.9909 390.228 49.9909C391.795 49.9909 393.191 50.2373 394.417 50.7302C395.643 51.223 396.635 51.9243 397.393 52.8342C398.151 53.7314 398.606 54.7866 398.758 55.9997L394.701 56.739C394.562 55.7533 394.101 54.9761 393.317 54.4075C392.534 53.8388 391.517 53.5292 390.266 53.4787C389.065 53.4281 388.092 53.6303 387.347 54.0852C386.601 54.5275 386.228 55.1404 386.228 55.9239C386.228 56.3788 386.367 56.7643 386.645 57.0802C386.936 57.3961 387.492 57.6994 388.313 57.99C389.135 58.2807 390.348 58.6282 391.953 59.0326C393.671 59.4749 395.036 59.9677 396.047 60.5111C397.058 61.0418 397.778 61.68 398.208 62.4256C398.65 63.1585 398.871 64.0494 398.871 65.0983C398.871 67.1201 398.132 68.7061 396.654 69.856C395.188 71.006 393.16 71.581 390.569 71.581ZM417.46 71.0312V47.4699H408.38V43.7357H430.501V47.4699H421.422V71.0312H417.46ZM439.389 71.5999C437.342 71.5999 435.566 71.1387 434.062 70.2162C432.559 69.2937 431.396 68.0237 430.575 66.4062C429.766 64.776 429.362 62.8994 429.362 60.7765C429.362 58.6408 429.779 56.7643 430.613 55.1467C431.447 53.5166 432.616 52.2529 434.119 51.3557C435.623 50.4458 437.38 49.9909 439.389 49.9909C441.436 49.9909 443.211 50.4521 444.715 51.3746C446.219 52.2971 447.382 53.5671 448.203 55.1846C449.024 56.8022 449.435 58.6661 449.435 60.7765C449.435 62.9121 449.018 64.795 448.184 66.4251C447.363 68.0426 446.2 69.3126 444.696 70.2351C443.193 71.145 441.423 71.5999 439.389 71.5999ZM439.389 67.8657C441.348 67.8657 442.807 67.2086 443.768 65.8944C444.741 64.5675 445.227 62.8615 445.227 60.7765C445.227 58.6408 444.734 56.9348 443.749 55.6585C442.776 54.3696 441.322 53.7251 439.389 53.7251C438.062 53.7251 436.969 54.0284 436.11 54.6349C435.25 55.2289 434.612 56.0566 434.195 57.1181C433.778 58.1669 433.57 59.3864 433.57 60.7765C433.57 62.9247 434.062 64.6433 435.048 65.9323C436.034 67.2212 437.481 67.8657 439.389 67.8657ZM461.19 71.0312V43.7357H465.152V55.5069H478.8V43.7357H482.78V71.0312H478.8V59.2411H465.152V71.0312H461.19ZM495.82 71.581C494.405 71.581 493.217 71.3535 492.256 70.8986C491.296 70.4436 490.512 69.8497 489.906 69.1168C489.312 68.3712 488.857 67.5624 488.541 66.6905C488.225 65.8186 488.01 64.9656 487.897 64.1315C487.783 63.2975 487.726 62.5646 487.726 61.9327V50.5596H491.745V60.6248C491.745 61.4209 491.808 62.2423 491.934 63.089C492.073 63.923 492.326 64.7002 492.692 65.4205C493.071 66.1408 493.596 66.7221 494.266 67.1644C494.948 67.6067 495.833 67.8278 496.919 67.8278C497.627 67.8278 498.297 67.7141 498.929 67.4866C499.56 67.2465 500.11 66.8674 500.578 66.3493C501.058 65.8312 501.431 65.1488 501.696 64.3021C501.974 63.4555 502.113 62.4256 502.113 61.2124L504.577 62.1412C504.577 63.9988 504.23 65.6416 503.535 67.0696C502.84 68.4849 501.841 69.5906 500.54 70.3868C499.238 71.1829 497.665 71.581 495.82 71.581ZM502.587 71.0312V65.1172H502.113V50.5596H506.113V71.0312H502.587ZM535.957 71.0312L535.976 58.2744C535.976 56.7958 535.597 55.6459 534.839 54.8245C534.08 53.9905 533.082 53.5734 531.844 53.5734C531.086 53.5734 530.391 53.7504 529.759 54.1042C529.139 54.4454 528.634 54.9635 528.242 55.6585C527.863 56.3409 527.674 57.2002 527.674 58.2364L525.759 57.2697C525.734 55.8291 526.037 54.5654 526.669 53.4787C527.313 52.3919 528.185 51.5516 529.285 50.9576C530.384 50.3511 531.616 50.0478 532.981 50.0478C535.193 50.0478 536.905 50.7112 538.118 52.0381C539.331 53.3649 539.938 55.1278 539.938 57.3266L539.919 71.0312H535.957ZM511.41 71.0312V50.5596H514.936V56.4736H515.391V71.0312H511.41ZM523.693 71.0312L523.712 58.3502C523.712 56.859 523.333 55.6901 522.575 54.8435C521.829 53.9968 520.824 53.5734 519.561 53.5734C518.31 53.5734 517.299 54.0031 516.528 54.8624C515.77 55.7217 515.391 56.8464 515.391 58.2364L513.495 57.0233C513.495 55.6838 513.817 54.4896 514.462 53.4408C515.106 52.3919 515.978 51.5642 517.078 50.9576C518.177 50.3511 519.422 50.0478 520.812 50.0478C522.265 50.0478 523.503 50.3574 524.527 50.9766C525.551 51.5831 526.328 52.4361 526.859 53.5355C527.402 54.6349 527.674 55.9113 527.674 57.3645L527.655 71.0312H523.693ZM550.641 71.5999C549.125 71.5999 547.855 71.3219 546.831 70.7659C545.808 70.1972 545.03 69.4516 544.5 68.5292C543.982 67.594 543.723 66.5704 543.723 65.4584C543.723 64.4222 543.906 63.5123 544.272 62.7288C544.639 61.9454 545.182 61.2819 545.902 60.7385C546.623 60.1825 547.507 59.7339 548.556 59.3927C549.466 59.1273 550.496 58.8936 551.646 58.6914C552.796 58.4892 554.003 58.2996 555.266 58.1227C556.543 57.9458 557.806 57.7689 559.057 57.592L557.617 58.3881C557.642 56.7832 557.301 55.5953 556.593 54.8245C555.898 54.041 554.698 53.6493 552.992 53.6493C551.918 53.6493 550.932 53.902 550.035 54.4075C549.137 54.9003 548.512 55.7217 548.158 56.8717L544.462 55.7343C544.967 53.9778 545.928 52.5815 547.343 51.5452C548.771 50.509 550.666 49.9909 553.03 49.9909C554.862 49.9909 556.454 50.3068 557.806 50.9387C559.171 51.5579 560.169 52.5435 560.801 53.8957C561.13 54.5654 561.332 55.2731 561.408 56.0187C561.484 56.7643 561.522 57.5667 561.522 58.426V71.0312H558.015V66.3493L558.697 66.9559C557.85 68.5228 556.77 69.6917 555.456 70.4626C554.154 71.2208 552.549 71.5999 550.641 71.5999ZM551.343 68.3586C552.467 68.3586 553.434 68.1627 554.243 67.7709C555.051 67.3666 555.702 66.8548 556.195 66.2356C556.688 65.6164 557.01 64.9719 557.162 64.3021C557.377 63.6956 557.497 63.0132 557.522 62.255C557.56 61.4968 557.579 60.8902 557.579 60.4353L558.868 60.9091C557.617 61.0987 556.479 61.2693 555.456 61.4209C554.432 61.5726 553.503 61.7242 552.669 61.8759C551.848 62.0149 551.115 62.1855 550.471 62.3876C549.927 62.5772 549.441 62.8047 549.011 63.07C548.594 63.3354 548.259 63.6577 548.006 64.0368C547.766 64.4159 547.646 64.8771 547.646 65.4205C547.646 65.9512 547.779 66.4441 548.044 66.899C548.31 67.3413 548.714 67.6951 549.257 67.9605C549.801 68.2259 550.496 68.3586 551.343 68.3586ZM580.812 71.0312V60.966C580.812 60.1699 580.742 59.3548 580.603 58.5208C580.477 57.6741 580.224 56.8906 579.845 56.1703C579.479 55.45 578.954 54.8687 578.272 54.4264C577.602 53.9841 576.724 53.763 575.637 53.763C574.929 53.763 574.26 53.8831 573.628 54.1232C572.996 54.3506 572.44 54.7234 571.96 55.2415C571.492 55.7596 571.119 56.442 570.841 57.2887C570.576 58.1353 570.443 59.1653 570.443 60.3784L567.979 59.4496C567.979 57.592 568.327 55.9555 569.022 54.5402C569.717 53.1122 570.715 52.0002 572.017 51.204C573.318 50.4079 574.891 50.0099 576.736 50.0099C578.152 50.0099 579.34 50.2373 580.3 50.6922C581.26 51.1472 582.038 51.7474 582.631 52.493C583.238 53.2259 583.699 54.0284 584.015 54.9003C584.331 55.7723 584.546 56.6252 584.66 57.4593C584.773 58.2933 584.83 59.0262 584.83 59.6581V71.0312H580.812ZM566.425 71.0312V50.5596H569.969V56.4736H570.443V71.0312H566.425ZM589.768 71.0312V43.7357H600.496C602.227 43.7357 603.681 44.0895 604.856 44.7972C606.031 45.5048 606.916 46.421 607.51 47.5457C608.104 48.6577 608.401 49.8329 608.401 51.0714C608.401 52.5751 608.028 53.8641 607.282 54.9382C606.549 56.0124 605.557 56.7453 604.306 57.137L604.268 56.2082C606.012 56.6379 607.352 57.4782 608.287 58.7293C609.222 59.9677 609.689 61.4146 609.689 63.07C609.689 64.6749 609.367 66.0713 608.723 67.2592C608.091 68.447 607.162 69.3758 605.936 70.0456C604.723 70.7027 603.251 71.0312 601.52 71.0312H589.768ZM593.786 67.2592H600.913C601.81 67.2592 602.613 67.0886 603.321 66.7474C604.041 66.4062 604.603 65.9196 605.008 65.2878C605.425 64.6433 605.633 63.8788 605.633 62.9942C605.633 62.1728 605.45 61.4336 605.083 60.7765C604.73 60.1067 604.211 59.5823 603.529 59.2032C602.859 58.8114 602.069 58.6155 601.16 58.6155H593.786V67.2592ZM593.786 54.8814H600.439C601.172 54.8814 601.829 54.736 602.411 54.4454C603.005 54.1421 603.472 53.7125 603.813 53.1564C604.167 52.5878 604.344 51.9054 604.344 51.1093C604.344 50.0478 603.99 49.1758 603.283 48.4934C602.575 47.811 601.627 47.4699 600.439 47.4699H593.786V54.8814ZM622.352 71.5999C620.304 71.5999 618.529 71.1387 617.025 70.2162C615.521 69.2937 614.359 68.0237 613.537 66.4062C612.729 64.776 612.324 62.8994 612.324 60.7765C612.324 58.6408 612.741 56.7643 613.575 55.1467C614.409 53.5166 615.578 52.2529 617.082 51.3557C618.586 50.4458 620.342 49.9909 622.352 49.9909C624.399 49.9909 626.174 50.4521 627.678 51.3746C629.182 52.2971 630.344 53.5671 631.166 55.1846C631.987 56.8022 632.398 58.6661 632.398 60.7765C632.398 62.9121 631.981 64.795 631.147 66.4251C630.325 68.0426 629.163 69.3126 627.659 70.2351C626.155 71.145 624.386 71.5999 622.352 71.5999ZM622.352 67.8657C624.31 67.8657 625.77 67.2086 626.73 65.8944C627.703 64.5675 628.19 62.8615 628.19 60.7765C628.19 58.6408 627.697 56.9348 626.711 55.6585C625.738 54.3696 624.285 53.7251 622.352 53.7251C621.025 53.7251 619.932 54.0284 619.072 54.6349C618.213 55.2289 617.575 56.0566 617.158 57.1181C616.741 58.1669 616.532 59.3864 616.532 60.7765C616.532 62.9247 617.025 64.6433 618.011 65.9323C618.997 67.2212 620.443 67.8657 622.352 67.8657ZM648.278 71.0312C646.989 71.284 645.725 71.3914 644.487 71.3535C643.248 71.3156 642.142 71.0755 641.169 70.6332C640.196 70.1909 639.463 69.4959 638.971 68.5481C638.528 67.7014 638.288 66.8421 638.25 65.9702C638.225 65.0856 638.212 64.0873 638.212 62.9753V44.873H642.193V62.7857C642.193 63.6071 642.199 64.3211 642.212 64.9277C642.237 65.5342 642.37 66.046 642.61 66.463C643.065 67.2465 643.785 67.6951 644.771 67.8089C645.769 67.9099 646.938 67.8657 648.278 67.6762V71.0312ZM634.289 53.744V50.5596H648.278V53.744H634.289Z" fill="white"/>
<defs>
<linearGradient id="paint0_linear_515_15" x1="680.34" y1="42.8425" x2="12.1481" y2="81.1643" gradientUnits="userSpaceOnUse">
<stop stop-color="#F2467A"/>
<stop offset="1" stop-color="#DF8600"/>
</linearGradient>
</defs>
</svg>
