<svg width="561" height="106" viewBox="0 0 561 106" fill="none" xmlns="http://www.w3.org/2000/svg">
<path d="M560 84.1754V19.1213C560 14.1894 556.002 10.1914 551.07 10.1914H29.4771C27.4084 10.1914 25.4038 10.9097 23.8058 12.2235L4.25861 28.2948C2.1955 29.991 1 32.5217 1 35.1926V96.0821C1 101.014 4.99805 105.012 9.92987 105.012H507.035C509.104 105.012 511.109 104.294 512.707 102.98L522.245 95.1373C523.843 93.8235 525.848 93.1052 527.917 93.1052H551.07C556.002 93.1052 560 89.1072 560 84.1754Z" stroke="black" stroke-width="1.33948" stroke-dasharray="2.68 2.68"/>
<path d="M550.077 72.5256V11.0256C550.077 4.93635 545.141 0 539.051 0H38.3293C35.6972 0 33.1519 0.941664 31.1535 2.65477L13.6702 17.6422C11.2267 19.7368 9.8205 22.7946 9.8205 26.013V84.5238C9.8205 90.6131 14.7568 95.5495 20.8461 95.5495H497.902C500.534 95.5495 503.079 94.6078 505.077 92.8947L512.88 86.206C514.878 84.4929 517.424 83.5513 520.056 83.5513H539.051C545.141 83.5513 550.077 78.6149 550.077 72.5256Z" fill="url(#paint0_linear_452_1286)"/>
<path d="M57.5941 56.2097C56.1444 56.2097 54.8096 55.9597 53.5898 55.4598C52.37 54.9499 51.3102 54.21 50.4103 53.2402C49.5104 52.2703 48.8106 51.0905 48.3106 49.7007C47.8107 48.311 47.5608 46.7312 47.5608 44.9615C47.5608 42.6319 47.9857 40.6322 48.8356 38.9625C49.6854 37.2828 50.8652 35.993 52.375 35.0931C53.8847 34.1833 55.6245 33.7283 57.5941 33.7283C60.1337 33.7283 62.1584 34.3182 63.6682 35.498C65.1879 36.6779 66.2227 38.3076 66.7727 40.3873L63.5932 40.9572C63.1532 39.6674 62.4434 38.6375 61.4635 37.8677C60.4837 37.0978 59.2539 36.7078 57.7741 36.6978C56.2444 36.6878 54.9696 37.0278 53.9497 37.7177C52.9399 38.4076 52.18 39.3774 51.6701 40.6272C51.1602 41.867 50.9002 43.3118 50.8902 44.9615C50.8802 46.6112 51.1302 48.056 51.6401 49.2958C52.15 50.5256 52.9149 51.4855 53.9347 52.1753C54.9646 52.8652 56.2444 53.2152 57.7741 53.2252C59.0039 53.2452 60.0587 53.0202 60.9386 52.5503C61.8285 52.0704 62.5333 51.3705 63.0533 50.4506C63.5732 49.5308 63.9081 48.401 64.0581 47.0612H59.8588V44.5416H67.3876C67.4075 44.7216 67.4225 44.9615 67.4325 45.2615C67.4425 45.5514 67.4475 45.7364 67.4475 45.8164C67.4475 47.8161 67.0626 49.6008 66.2927 51.1705C65.5229 52.7403 64.403 53.9751 62.9333 54.8749C61.4635 55.7648 59.6838 56.2097 57.5941 56.2097ZM77.6206 56.2097C76.0108 56.2097 74.5961 55.8597 73.3763 55.1599C72.1665 54.45 71.2216 53.4651 70.5417 52.2053C69.8718 50.9355 69.5369 49.4658 69.5369 47.7961C69.5369 46.0263 69.8668 44.4916 70.5267 43.1918C71.1966 41.892 72.1265 40.8872 73.3163 40.1773C74.5061 39.4674 75.8909 39.1125 77.4706 39.1125C79.1203 39.1125 80.5251 39.4974 81.6849 40.2673C82.8447 41.0271 83.7096 42.112 84.2795 43.5217C84.8594 44.9315 85.0894 46.6062 84.9694 48.5459H81.8349V47.4061C81.8149 45.5264 81.455 44.1366 80.7551 43.2368C80.0652 42.3369 79.0104 41.887 77.5906 41.887C76.0208 41.887 74.841 42.3819 74.0512 43.3718C73.2613 44.3616 72.8664 45.7914 72.8664 47.6611C72.8664 49.4408 73.2613 50.8206 74.0512 51.8004C74.841 52.7702 75.9808 53.2552 77.4706 53.2552C78.4504 53.2552 79.2953 53.0352 80.0052 52.5953C80.7251 52.1454 81.285 51.5055 81.6849 50.6756L84.7594 51.6504C84.1295 53.1002 83.1747 54.225 81.8949 55.0249C80.6151 55.8148 79.1903 56.2097 77.6206 56.2097ZM71.8465 48.5459V46.1013H83.4096V48.5459H71.8465ZM97.6027 55.7598C96.5829 55.9597 95.5831 56.0447 94.6032 56.0147C93.6234 55.9847 92.7485 55.7948 91.9787 55.4448C91.2088 55.0949 90.6289 54.545 90.2389 53.7951C89.889 53.1252 89.699 52.4453 89.669 51.7554C89.649 51.0555 89.639 50.2657 89.639 49.3858V35.0631H92.7885V49.2358C92.7885 49.8857 92.7935 50.4506 92.8035 50.9305C92.8235 51.4105 92.9285 51.8154 93.1185 52.1454C93.4784 52.7652 94.0483 53.1202 94.8282 53.2102C95.6181 53.2902 96.5429 53.2552 97.6027 53.1052V55.7598ZM86.5345 42.082V39.5624H97.6027V42.082H86.5345ZM107.323 36.9078V33.8633H110.457V36.9078H107.323ZM107.323 55.7598V39.5624H110.457V55.7598H107.323ZM126.329 55.7598V47.7961C126.329 47.1662 126.274 46.5213 126.164 45.8614C126.064 45.1915 125.864 44.5716 125.564 44.0017C125.274 43.4318 124.859 42.9718 124.319 42.6219C123.789 42.2719 123.094 42.097 122.235 42.097C121.675 42.097 121.145 42.192 120.645 42.3819C120.145 42.5619 119.705 42.8569 119.325 43.2668C118.955 43.6767 118.66 44.2166 118.44 44.8865C118.23 45.5564 118.125 46.3713 118.125 47.3311L116.176 46.5962C116.176 45.1265 116.451 43.8317 117 42.7119C117.55 41.5821 118.34 40.7022 119.37 40.0723C120.4 39.4424 121.645 39.1275 123.104 39.1275C124.224 39.1275 125.164 39.3074 125.924 39.6674C126.684 40.0273 127.299 40.5022 127.769 41.0921C128.249 41.672 128.614 42.3069 128.864 42.9968C129.114 43.6867 129.283 44.3616 129.373 45.0215C129.463 45.6814 129.508 46.2613 129.508 46.7612V55.7598H126.329ZM114.946 55.7598V39.5624H117.75V44.2416H118.125V55.7598H114.946ZM139.609 56.1947C137.639 56.1947 136.034 55.7598 134.795 54.8899C133.555 54.02 132.795 52.7952 132.515 51.2155L135.724 50.7206C135.924 51.5604 136.384 52.2253 137.104 52.7153C137.834 53.1952 138.739 53.4351 139.819 53.4351C140.799 53.4351 141.564 53.2352 142.113 52.8352C142.673 52.4353 142.953 51.8854 142.953 51.1855C142.953 50.7756 142.853 50.4456 142.653 50.1957C142.463 49.9357 142.058 49.6907 141.439 49.4608C140.819 49.2308 139.874 48.9459 138.604 48.6059C137.214 48.246 136.109 47.861 135.29 47.4511C134.48 47.0312 133.9 46.5463 133.55 45.9963C133.21 45.4364 133.04 44.7615 133.04 43.9717C133.04 42.9918 133.3 42.137 133.82 41.4071C134.34 40.6772 135.07 40.1123 136.009 39.7124C136.959 39.3124 138.069 39.1125 139.339 39.1125C140.579 39.1125 141.684 39.3074 142.653 39.6974C143.623 40.0873 144.408 40.6422 145.008 41.3621C145.608 42.072 145.968 42.9068 146.088 43.8667L142.878 44.4516C142.768 43.6717 142.403 43.0568 141.783 42.6069C141.164 42.157 140.359 41.912 139.369 41.872C138.419 41.832 137.649 41.992 137.059 42.3519C136.469 42.7019 136.174 43.1868 136.174 43.8067C136.174 44.1666 136.284 44.4716 136.504 44.7216C136.734 44.9715 137.174 45.2115 137.824 45.4414C138.474 45.6714 139.434 45.9464 140.704 46.2663C142.063 46.6162 143.143 47.0062 143.943 47.4361C144.743 47.856 145.313 48.361 145.653 48.9509C146.003 49.5308 146.178 50.2357 146.178 51.0655C146.178 52.6653 145.593 53.9201 144.423 54.8299C143.263 55.7398 141.659 56.1947 139.609 56.1947ZM158.765 55.7598C157.745 55.9597 156.745 56.0447 155.765 56.0147C154.785 55.9847 153.911 55.7948 153.141 55.4448C152.371 55.0949 151.791 54.545 151.401 53.7951C151.051 53.1252 150.861 52.4453 150.831 51.7554C150.811 51.0555 150.801 50.2657 150.801 49.3858V35.0631H153.951V49.2358C153.951 49.8857 153.955 50.4506 153.965 50.9305C153.985 51.4105 154.09 51.8154 154.28 52.1454C154.64 52.7652 155.21 53.1202 155.99 53.2102C156.78 53.2902 157.705 53.2552 158.765 53.1052V55.7598ZM147.697 42.082V39.5624H158.765V42.082H147.697ZM166.754 56.2097C165.554 56.2097 164.549 55.9897 163.739 55.5498C162.93 55.0999 162.315 54.51 161.895 53.7801C161.485 53.0402 161.28 52.2303 161.28 51.3505C161.28 50.5306 161.425 49.8107 161.715 49.1908C162.005 48.5709 162.435 48.046 163.005 47.6161C163.574 47.1762 164.274 46.8212 165.104 46.5513C165.824 46.3413 166.639 46.1563 167.549 45.9963C168.459 45.8364 169.414 45.6864 170.413 45.5464C171.423 45.4064 172.423 45.2665 173.413 45.1265L172.273 45.7564C172.293 44.4866 172.023 43.5467 171.463 42.9368C170.913 42.3169 169.963 42.007 168.614 42.007C167.764 42.007 166.984 42.207 166.274 42.6069C165.564 42.9968 165.069 43.6467 164.789 44.5566L161.865 43.6567C162.265 42.2669 163.025 41.1621 164.144 40.3423C165.274 39.5224 166.774 39.1125 168.644 39.1125C170.093 39.1125 171.353 39.3624 172.423 39.8623C173.503 40.3523 174.293 41.1321 174.793 42.202C175.053 42.7319 175.213 43.2918 175.273 43.8817C175.333 44.4716 175.363 45.1065 175.363 45.7864V55.7598H172.588V52.0554L173.128 52.5353C172.458 53.7751 171.603 54.6999 170.563 55.3098C169.534 55.9097 168.264 56.2097 166.754 56.2097ZM167.309 53.6451C168.199 53.6451 168.964 53.4901 169.604 53.1802C170.243 52.8602 170.758 52.4553 171.148 51.9654C171.538 51.4755 171.793 50.9655 171.913 50.4356C172.083 49.9557 172.178 49.4158 172.198 48.8159C172.228 48.216 172.243 47.7361 172.243 47.3761L173.263 47.7511C172.273 47.901 171.373 48.036 170.563 48.156C169.753 48.276 169.019 48.396 168.359 48.5159C167.709 48.6259 167.129 48.7609 166.619 48.9209C166.189 49.0708 165.804 49.2508 165.464 49.4608C165.134 49.6708 164.869 49.9257 164.669 50.2257C164.479 50.5256 164.384 50.8906 164.384 51.3205C164.384 51.7404 164.489 52.1304 164.699 52.4903C164.909 52.8402 165.229 53.1202 165.659 53.3302C166.089 53.5401 166.639 53.6451 167.309 53.6451ZM190.625 55.7598V47.7961C190.625 47.1662 190.57 46.5213 190.46 45.8614C190.36 45.1915 190.16 44.5716 189.86 44.0017C189.57 43.4318 189.155 42.9718 188.616 42.6219C188.086 42.2719 187.391 42.097 186.531 42.097C185.971 42.097 185.441 42.192 184.941 42.3819C184.441 42.5619 184.001 42.8569 183.621 43.2668C183.251 43.6767 182.956 44.2166 182.736 44.8865C182.527 45.5564 182.422 46.3713 182.422 47.3311L180.472 46.5962C180.472 45.1265 180.747 43.8317 181.297 42.7119C181.847 41.5821 182.636 40.7022 183.666 40.0723C184.696 39.4424 185.941 39.1275 187.401 39.1275C188.521 39.1275 189.46 39.3074 190.22 39.6674C190.98 40.0273 191.595 40.5022 192.065 41.0921C192.545 41.672 192.91 42.3069 193.16 42.9968C193.41 43.6867 193.58 44.3616 193.67 45.0215C193.76 45.6814 193.805 46.2613 193.805 46.7612V55.7598H190.625ZM179.242 55.7598V39.5624H182.047V44.2416H182.422V55.7598H179.242ZM206.98 55.7598C205.96 55.9597 204.96 56.0447 203.98 56.0147C203 55.9847 202.125 55.7948 201.355 55.4448C200.586 55.0949 200.006 54.545 199.616 53.7951C199.266 53.1252 199.076 52.4453 199.046 51.7554C199.026 51.0555 199.016 50.2657 199.016 49.3858V35.0631H202.165V49.2358C202.165 49.8857 202.17 50.4506 202.18 50.9305C202.2 51.4105 202.305 51.8154 202.495 52.1454C202.855 52.7652 203.425 53.1202 204.205 53.2102C204.995 53.2902 205.92 53.2552 206.98 53.1052V55.7598ZM195.911 42.082V39.5624H206.98V42.082H195.911ZM214.9 55.7598L221.919 34.1633H226.433L233.452 55.7598H230.197L223.733 36.053H224.543L218.154 55.7598H214.9ZM218.544 50.8856V47.946H229.822V50.8856H218.544ZM243.071 56.2097C241.412 56.2097 240.002 55.8398 238.842 55.0999C237.682 54.36 236.792 53.3452 236.172 52.0554C235.562 50.7656 235.253 49.3008 235.243 47.6611C235.253 45.9913 235.572 44.5166 236.202 43.2368C236.832 41.947 237.732 40.9372 238.902 40.2073C240.072 39.4774 241.477 39.1125 243.116 39.1125C244.886 39.1125 246.396 39.5524 247.646 40.4322C248.905 41.3121 249.735 42.5169 250.135 44.0467L247.016 44.9465C246.706 44.0367 246.196 43.3318 245.486 42.8319C244.786 42.3219 243.981 42.067 243.071 42.067C242.041 42.067 241.197 42.3119 240.537 42.8019C239.877 43.2818 239.387 43.9417 239.067 44.7815C238.747 45.6214 238.582 46.5813 238.572 47.6611C238.582 49.3308 238.962 50.6806 239.712 51.7104C240.472 52.7403 241.591 53.2552 243.071 53.2552C244.081 53.2552 244.896 53.0252 245.516 52.5653C246.146 52.0954 246.626 51.4255 246.956 50.5556L250.135 51.3055C249.605 52.8852 248.73 54.1 247.511 54.9499C246.291 55.7898 244.811 56.2097 243.071 56.2097ZM259.68 56.2097C258.02 56.2097 256.61 55.8398 255.451 55.0999C254.291 54.36 253.401 53.3452 252.781 52.0554C252.171 50.7656 251.861 49.3008 251.851 47.6611C251.861 45.9913 252.181 44.5166 252.811 43.2368C253.441 41.947 254.341 40.9372 255.511 40.2073C256.68 39.4774 258.085 39.1125 259.725 39.1125C261.495 39.1125 263.004 39.5524 264.254 40.4322C265.514 41.3121 266.344 42.5169 266.744 44.0467L263.624 44.9465C263.314 44.0367 262.804 43.3318 262.095 42.8319C261.395 42.3219 260.59 42.067 259.68 42.067C258.65 42.067 257.805 42.3119 257.145 42.8019C256.485 43.2818 255.995 43.9417 255.676 44.7815C255.356 45.6214 255.191 46.5813 255.181 47.6611C255.191 49.3308 255.571 50.6806 256.32 51.7104C257.08 52.7403 258.2 53.2552 259.68 53.2552C260.69 53.2552 261.505 53.0252 262.124 52.5653C262.754 52.0954 263.234 51.4255 263.564 50.5556L266.744 51.3055C266.214 52.8852 265.339 54.1 264.119 54.9499C262.899 55.7898 261.42 56.2097 259.68 56.2097ZM276.543 56.2097C274.934 56.2097 273.519 55.8597 272.299 55.1599C271.089 54.45 270.145 53.4651 269.465 52.2053C268.795 50.9355 268.46 49.4658 268.46 47.7961C268.46 46.0263 268.79 44.4916 269.45 43.1918C270.12 41.892 271.049 40.8872 272.239 40.1773C273.429 39.4674 274.814 39.1125 276.394 39.1125C278.043 39.1125 279.448 39.4974 280.608 40.2673C281.768 41.0271 282.632 42.112 283.202 43.5217C283.782 44.9315 284.012 46.6062 283.892 48.5459H280.758V47.4061C280.738 45.5264 280.378 44.1366 279.678 43.2368C278.988 42.3369 277.933 41.887 276.513 41.887C274.944 41.887 273.764 42.3819 272.974 43.3718C272.184 44.3616 271.789 45.7914 271.789 47.6611C271.789 49.4408 272.184 50.8206 272.974 51.8004C273.764 52.7702 274.904 53.2552 276.394 53.2552C277.373 53.2552 278.218 53.0352 278.928 52.5953C279.648 52.1454 280.208 51.5055 280.608 50.6756L283.682 51.6504C283.052 53.1002 282.098 54.225 280.818 55.0249C279.538 55.8148 278.113 56.2097 276.543 56.2097ZM270.769 48.5459V46.1013H282.333V48.5459H270.769ZM293.451 56.1947C291.481 56.1947 289.877 55.7598 288.637 54.8899C287.397 54.02 286.637 52.7952 286.357 51.2155L289.567 50.7206C289.767 51.5604 290.227 52.2253 290.947 52.7153C291.676 53.1952 292.581 53.4351 293.661 53.4351C294.641 53.4351 295.406 53.2352 295.956 52.8352C296.516 52.4353 296.796 51.8854 296.796 51.1855C296.796 50.7756 296.696 50.4456 296.496 50.1957C296.306 49.9357 295.901 49.6907 295.281 49.4608C294.661 49.2308 293.716 48.9459 292.446 48.6059C291.057 48.246 289.952 47.861 289.132 47.4511C288.322 47.0312 287.742 46.5463 287.392 45.9963C287.052 45.4364 286.882 44.7615 286.882 43.9717C286.882 42.9918 287.142 42.137 287.662 41.4071C288.182 40.6772 288.912 40.1123 289.852 39.7124C290.802 39.3124 291.911 39.1125 293.181 39.1125C294.421 39.1125 295.526 39.3074 296.496 39.6974C297.465 40.0873 298.25 40.6422 298.85 41.3621C299.45 42.072 299.81 42.9068 299.93 43.8667L296.721 44.4516C296.611 43.6717 296.246 43.0568 295.626 42.6069C295.006 42.157 294.201 41.912 293.211 41.872C292.261 41.832 291.491 41.992 290.902 42.3519C290.312 42.7019 290.017 43.1868 290.017 43.8067C290.017 44.1666 290.127 44.4716 290.347 44.7216C290.577 44.9715 291.017 45.2115 291.666 45.4414C292.316 45.6714 293.276 45.9464 294.546 46.2663C295.906 46.6162 296.986 47.0062 297.785 47.4361C298.585 47.856 299.155 48.361 299.495 48.9509C299.845 49.5308 300.02 50.2357 300.02 51.0655C300.02 52.6653 299.435 53.9201 298.265 54.8299C297.106 55.7398 295.501 56.1947 293.451 56.1947ZM309.533 56.1947C307.563 56.1947 305.958 55.7598 304.718 54.8899C303.478 54.02 302.719 52.7952 302.439 51.2155L305.648 50.7206C305.848 51.5604 306.308 52.2253 307.028 52.7153C307.758 53.1952 308.663 53.4351 309.742 53.4351C310.722 53.4351 311.487 53.2352 312.037 52.8352C312.597 52.4353 312.877 51.8854 312.877 51.1855C312.877 50.7756 312.777 50.4456 312.577 50.1957C312.387 49.9357 311.982 49.6907 311.362 49.4608C310.742 49.2308 309.797 48.9459 308.528 48.6059C307.138 48.246 306.033 47.861 305.213 47.4511C304.403 47.0312 303.823 46.5463 303.473 45.9963C303.134 45.4364 302.964 44.7615 302.964 43.9717C302.964 42.9918 303.224 42.137 303.743 41.4071C304.263 40.6772 304.993 40.1123 305.933 39.7124C306.883 39.3124 307.993 39.1125 309.263 39.1125C310.502 39.1125 311.607 39.3074 312.577 39.6974C313.547 40.0873 314.332 40.6422 314.932 41.3621C315.532 42.072 315.891 42.9068 316.011 43.8667L312.802 44.4516C312.692 43.6717 312.327 43.0568 311.707 42.6069C311.087 42.157 310.282 41.912 309.293 41.872C308.343 41.832 307.573 41.992 306.983 42.3519C306.393 42.7019 306.098 43.1868 306.098 43.8067C306.098 44.1666 306.208 44.4716 306.428 44.7216C306.658 44.9715 307.098 45.2115 307.748 45.4414C308.398 45.6714 309.358 45.9464 310.627 46.2663C311.987 46.6162 313.067 47.0062 313.867 47.4361C314.667 47.856 315.237 48.361 315.577 48.9509C315.926 49.5308 316.101 50.2357 316.101 51.0655C316.101 52.6653 315.517 53.9201 314.347 54.8299C313.187 55.7398 311.582 56.1947 309.533 56.1947ZM330.809 55.7598V37.1178H323.625V34.1633H341.127V37.1178H333.943V55.7598H330.809ZM348.159 56.2097C346.539 56.2097 345.135 55.8448 343.945 55.1149C342.755 54.385 341.835 53.3802 341.185 52.1004C340.545 50.8106 340.226 49.3258 340.226 47.6461C340.226 45.9564 340.555 44.4716 341.215 43.1918C341.875 41.902 342.8 40.9022 343.99 40.1923C345.18 39.4724 346.569 39.1125 348.159 39.1125C349.779 39.1125 351.184 39.4774 352.374 40.2073C353.563 40.9372 354.483 41.942 355.133 43.2218C355.783 44.5016 356.108 45.9763 356.108 47.6461C356.108 49.3358 355.778 50.8256 355.118 52.1154C354.468 53.3951 353.548 54.4 352.359 55.1299C351.169 55.8498 349.769 56.2097 348.159 56.2097ZM348.159 53.2552C349.709 53.2552 350.864 52.7353 351.624 51.6954C352.394 50.6456 352.778 49.2958 352.778 47.6461C352.778 45.9564 352.389 44.6066 351.609 43.5967C350.839 42.5769 349.689 42.067 348.159 42.067C347.109 42.067 346.245 42.3069 345.565 42.7869C344.885 43.2568 344.38 43.9117 344.05 44.7515C343.72 45.5814 343.555 46.5463 343.555 47.6461C343.555 49.3458 343.945 50.7056 344.725 51.7254C345.505 52.7453 346.649 53.2552 348.159 53.2552ZM365.409 55.7598V34.1633H368.543V43.4768H379.341V34.1633H382.491V55.7598H379.341V46.4313H368.543V55.7598H365.409ZM392.808 56.1947C391.688 56.1947 390.748 56.0147 389.988 55.6548C389.229 55.2948 388.609 54.8249 388.129 54.245C387.659 53.6551 387.299 53.0152 387.049 52.3253C386.799 51.6354 386.629 50.9605 386.539 50.3006C386.449 49.6408 386.404 49.0608 386.404 48.5609V39.5624H389.584V47.5261C389.584 48.156 389.633 48.8059 389.733 49.4758C389.843 50.1357 390.043 50.7506 390.333 51.3205C390.633 51.8904 391.048 52.3503 391.578 52.7003C392.118 53.0502 392.818 53.2252 393.678 53.2252C394.238 53.2252 394.768 53.1352 395.268 52.9552C395.768 52.7652 396.202 52.4653 396.572 52.0554C396.952 51.6454 397.247 51.1055 397.457 50.4356C397.677 49.7657 397.787 48.9509 397.787 47.991L399.737 48.7259C399.737 50.1957 399.462 51.4955 398.912 52.6253C398.362 53.7451 397.572 54.6199 396.542 55.2498C395.513 55.8797 394.268 56.1947 392.808 56.1947ZM398.162 55.7598V51.0805H397.787V39.5624H400.952V55.7598H398.162ZM424.565 55.7598L424.58 45.6664C424.58 44.4966 424.28 43.5867 423.68 42.9368C423.08 42.2769 422.29 41.947 421.31 41.947C420.71 41.947 420.161 42.087 419.661 42.3669C419.171 42.6369 418.771 43.0468 418.461 43.5967C418.161 44.1366 418.011 44.8165 418.011 45.6364L416.496 44.8715C416.476 43.7317 416.716 42.7319 417.216 41.872C417.726 41.0122 418.416 40.3473 419.286 39.8773C420.156 39.3974 421.13 39.1575 422.21 39.1575C423.96 39.1575 425.315 39.6824 426.275 40.7322C427.234 41.782 427.714 43.1768 427.714 44.9165L427.699 55.7598H424.565ZM405.143 55.7598V39.5624H407.933V44.2416H408.293V55.7598H405.143ZM414.861 55.7598L414.876 45.7264C414.876 44.5466 414.576 43.6217 413.977 42.9518C413.387 42.2819 412.592 41.947 411.592 41.947C410.602 41.947 409.802 42.2869 409.192 42.9668C408.592 43.6467 408.293 44.5366 408.293 45.6364L406.793 44.6766C406.793 43.6167 407.048 42.6719 407.558 41.842C408.068 41.0122 408.757 40.3573 409.627 39.8773C410.497 39.3974 411.482 39.1575 412.582 39.1575C413.732 39.1575 414.711 39.4024 415.521 39.8923C416.331 40.3723 416.946 41.0471 417.366 41.917C417.796 42.7869 418.011 43.7967 418.011 44.9465L417.996 55.7598H414.861ZM436.183 56.2097C434.983 56.2097 433.978 55.9897 433.169 55.5498C432.359 55.0999 431.744 54.51 431.324 53.7801C430.914 53.0402 430.709 52.2303 430.709 51.3505C430.709 50.5306 430.854 49.8107 431.144 49.1908C431.434 48.5709 431.864 48.046 432.434 47.6161C433.004 47.1762 433.703 46.8212 434.533 46.5513C435.253 46.3413 436.068 46.1563 436.978 45.9963C437.888 45.8364 438.843 45.6864 439.842 45.5464C440.852 45.4064 441.852 45.2665 442.842 45.1265L441.702 45.7564C441.722 44.4866 441.452 43.5467 440.892 42.9368C440.342 42.3169 439.393 42.007 438.043 42.007C437.193 42.007 436.413 42.207 435.703 42.6069C434.993 42.9968 434.498 43.6467 434.218 44.5566L431.294 43.6567C431.694 42.2669 432.454 41.1621 433.573 40.3423C434.703 39.5224 436.203 39.1125 438.073 39.1125C439.523 39.1125 440.782 39.3624 441.852 39.8623C442.932 40.3523 443.722 41.1321 444.222 42.202C444.482 42.7319 444.642 43.2918 444.702 43.8817C444.762 44.4716 444.792 45.1065 444.792 45.7864V55.7598H442.017V52.0554L442.557 52.5353C441.887 53.7751 441.032 54.6999 439.992 55.3098C438.963 55.9097 437.693 56.2097 436.183 56.2097ZM436.738 53.6451C437.628 53.6451 438.393 53.4901 439.033 53.1802C439.673 52.8602 440.187 52.4553 440.577 51.9654C440.967 51.4755 441.222 50.9655 441.342 50.4356C441.512 49.9557 441.607 49.4158 441.627 48.8159C441.657 48.216 441.672 47.7361 441.672 47.3761L442.692 47.7511C441.702 47.901 440.802 48.036 439.992 48.156C439.183 48.276 438.448 48.396 437.788 48.5159C437.138 48.6259 436.558 48.7609 436.048 48.9209C435.618 49.0708 435.233 49.2508 434.893 49.4608C434.563 49.6708 434.298 49.9257 434.098 50.2257C433.908 50.5256 433.813 50.8906 433.813 51.3205C433.813 51.7404 433.918 52.1304 434.128 52.4903C434.338 52.8402 434.658 53.1202 435.088 53.3302C435.518 53.5401 436.068 53.6451 436.738 53.6451ZM460.054 55.7598V47.7961C460.054 47.1662 459.999 46.5213 459.889 45.8614C459.789 45.1915 459.589 44.5716 459.289 44.0017C458.999 43.4318 458.584 42.9718 458.045 42.6219C457.515 42.2719 456.82 42.097 455.96 42.097C455.4 42.097 454.87 42.192 454.37 42.3819C453.87 42.5619 453.43 42.8569 453.05 43.2668C452.68 43.6767 452.385 44.2166 452.166 44.8865C451.956 45.5564 451.851 46.3713 451.851 47.3311L449.901 46.5962C449.901 45.1265 450.176 43.8317 450.726 42.7119C451.276 41.5821 452.066 40.7022 453.095 40.0723C454.125 39.4424 455.37 39.1275 456.83 39.1275C457.95 39.1275 458.889 39.3074 459.649 39.6674C460.409 40.0273 461.024 40.5022 461.494 41.0921C461.974 41.672 462.339 42.3069 462.589 42.9968C462.839 43.6867 463.009 44.3616 463.099 45.0215C463.189 45.6814 463.234 46.2613 463.234 46.7612V55.7598H460.054ZM448.671 55.7598V39.5624H451.476V44.2416H451.851V55.7598H448.671ZM467.14 55.7598V34.1633H475.629C476.999 34.1633 478.148 34.4432 479.078 35.0031C480.008 35.563 480.708 36.2879 481.178 37.1778C481.648 38.0576 481.883 38.9875 481.883 39.9673C481.883 41.1571 481.588 42.177 480.998 43.0268C480.418 43.8767 479.633 44.4566 478.643 44.7665L478.613 44.0317C479.993 44.3716 481.053 45.0365 481.793 46.0263C482.533 47.0062 482.903 48.151 482.903 49.4608C482.903 50.7306 482.648 51.8354 482.138 52.7752C481.638 53.7151 480.903 54.45 479.933 54.9799C478.973 55.4998 477.808 55.7598 476.439 55.7598H467.14ZM470.32 52.7752H475.959C476.669 52.7752 477.303 52.6403 477.863 52.3703C478.433 52.1004 478.878 51.7154 479.198 51.2155C479.528 50.7056 479.693 50.1007 479.693 49.4008C479.693 48.7509 479.548 48.166 479.258 47.6461C478.978 47.1162 478.568 46.7012 478.028 46.4013C477.498 46.0913 476.874 45.9364 476.154 45.9364H470.32V52.7752ZM470.32 42.9818H475.584C476.164 42.9818 476.684 42.8669 477.144 42.6369C477.613 42.3969 477.983 42.057 478.253 41.6171C478.533 41.1671 478.673 40.6272 478.673 39.9973C478.673 39.1575 478.393 38.4676 477.833 37.9277C477.273 37.3877 476.524 37.1178 475.584 37.1178H470.32V42.9818ZM492.921 56.2097C491.301 56.2097 489.896 55.8448 488.707 55.1149C487.517 54.385 486.597 53.3802 485.947 52.1004C485.307 50.8106 484.987 49.3258 484.987 47.6461C484.987 45.9564 485.317 44.4716 485.977 43.1918C486.637 41.902 487.562 40.9022 488.752 40.1923C489.941 39.4724 491.331 39.1125 492.921 39.1125C494.541 39.1125 495.946 39.4774 497.135 40.2073C498.325 40.9372 499.245 41.942 499.895 43.2218C500.545 44.5016 500.87 45.9763 500.87 47.6461C500.87 49.3358 500.54 50.8256 499.88 52.1154C499.23 53.3951 498.31 54.4 497.12 55.1299C495.931 55.8498 494.531 56.2097 492.921 56.2097ZM492.921 53.2552C494.471 53.2552 495.626 52.7353 496.385 51.6954C497.155 50.6456 497.54 49.2958 497.54 47.6461C497.54 45.9564 497.15 44.6066 496.37 43.5967C495.601 42.5769 494.451 42.067 492.921 42.067C491.871 42.067 491.006 42.3069 490.326 42.7869C489.647 43.2568 489.142 43.9117 488.812 44.7515C488.482 45.5814 488.317 46.5463 488.317 47.6461C488.317 49.3458 488.707 50.7056 489.487 51.7254C490.266 52.7453 491.411 53.2552 492.921 53.2552ZM513.434 55.7598C512.414 55.9597 511.414 56.0447 510.434 56.0147C509.455 55.9847 508.58 55.7948 507.81 55.4448C507.04 55.0949 506.46 54.545 506.07 53.7951C505.72 53.1252 505.53 52.4453 505.5 51.7554C505.48 51.0555 505.47 50.2657 505.47 49.3858V35.0631H508.62V49.2358C508.62 49.8857 508.625 50.4506 508.635 50.9305C508.655 51.4105 508.76 51.8154 508.95 52.1454C509.31 52.7652 509.879 53.1202 510.659 53.2102C511.449 53.2902 512.374 53.2552 513.434 53.1052V55.7598ZM502.366 42.082V39.5624H513.434V42.082H502.366Z" fill="black"/>
<defs>
<linearGradient id="paint0_linear_452_1286" x1="538.5" y1="33.8974" x2="9.82052" y2="64.2179" gradientUnits="userSpaceOnUse">
<stop stop-color="#FF8C4A"/>
<stop offset="1" stop-color="#FFBD3E"/>
</linearGradient>
</defs>
</svg>
