<svg width="46" height="112" viewBox="0 0 46 112" fill="none" xmlns="http://www.w3.org/2000/svg">
<path d="M26 3C26 1.34315 24.6569 0 23 0C21.3431 0 20 1.34315 20 3H26ZM20.8787 111.121C22.0503 112.293 23.9497 112.293 25.1213 111.121L44.2132 92.0294C45.3848 90.8579 45.3848 88.9584 44.2132 87.7868C43.0416 86.6152 41.1421 86.6152 39.9706 87.7868L23 104.757L6.02944 87.7868C4.85786 86.6152 2.95837 86.6152 1.7868 87.7868C0.615223 88.9584 0.615223 90.8579 1.7868 92.0294L20.8787 111.121ZM20 6.78571C20 8.44257 21.3431 9.78571 23 9.78571C24.6569 9.78571 26 8.44257 26 6.78571H20ZM26 14.3571C26 12.7003 24.6569 11.3571 23 11.3571C21.3431 11.3571 20 12.7003 20 14.3571H26ZM20 21.9286C20 23.5854 21.3431 24.9286 23 24.9286C24.6569 24.9286 26 23.5854 26 21.9286H20ZM26 29.5C26 27.8431 24.6569 26.5 23 26.5C21.3431 26.5 20 27.8431 20 29.5H26ZM20 37.0714C20 38.7283 21.3431 40.0714 23 40.0714C24.6569 40.0714 26 38.7283 26 37.0714H20ZM26 44.6429C26 42.986 24.6569 41.6429 23 41.6429C21.3431 41.6429 20 42.986 20 44.6429H26ZM20 52.2143C20 53.8711 21.3431 55.2143 23 55.2143C24.6569 55.2143 26 53.8711 26 52.2143H20ZM26 59.7857C26 58.1289 24.6569 56.7857 23 56.7857C21.3431 56.7857 20 58.1289 20 59.7857H26ZM20 67.3572C20 69.014 21.3431 70.3572 23 70.3572C24.6569 70.3572 26 69.014 26 67.3572H20ZM26 74.9286C26 73.2717 24.6569 71.9286 23 71.9286C21.3431 71.9286 20 73.2717 20 74.9286H26ZM20 82.5C20 84.1569 21.3431 85.5 23 85.5C24.6569 85.5 26 84.1569 26 82.5H20ZM26 90.0714C26 88.4146 24.6569 87.0714 23 87.0714C21.3431 87.0714 20 88.4146 20 90.0714H26ZM20 97.6429C20 99.2997 21.3431 100.643 23 100.643C24.6569 100.643 26 99.2997 26 97.6429H20ZM26 105.214C26 103.557 24.6569 102.214 23 102.214C21.3431 102.214 20 103.557 20 105.214H26ZM20 3V6.78571H26V3H20ZM20 14.3571V21.9286H26V14.3571H20ZM20 29.5V37.0714H26V29.5H20ZM20 44.6429V52.2143H26V44.6429H20ZM20 59.7857V67.3572H26V59.7857H20ZM20 74.9286V82.5H26V74.9286H20ZM20 90.0714V97.6429H26V90.0714H20ZM20 105.214V109H26V105.214H20Z" fill="white"/>
</svg>
