<svg width="887" height="159" viewBox="0 0 887 159" fill="none" xmlns="http://www.w3.org/2000/svg">
<path d="M849.754 156.634C850.605 156.142 852.154 156.291 852.941 155.752C852.993 155.78 853.083 155.761 853.135 155.78C851.805 155.891 850.502 155.956 849.754 156.634ZM24.8785 63.081C24.8785 63.2204 24.8785 63.369 24.8785 63.5084C24.7753 63.5827 24.6075 63.6385 24.4785 63.7128C21.8719 63.7128 19.2783 63.6942 16.6717 63.6942C19.4331 63.5084 22.1429 63.2947 24.8785 63.081ZM12.1296 57.0417C12.078 57.1625 12.0263 57.2647 12.0263 57.4133C10.8521 57.2832 9.56172 57.4412 8.4649 57.051C9.69076 57.0138 10.9037 57.0417 12.1425 57.0417H12.1296ZM392.908 15.259H392.869V15.2497C392.908 15.2497 392.908 15.259 392.908 15.259ZM493.015 15.259V15.2497V15.259ZM772.176 14.5343C772.112 14.5901 772.112 14.6551 772.034 14.7202C771.982 14.6551 771.918 14.618 771.789 14.5436C771.944 14.5622 772.034 14.5157 772.176 14.5343ZM873.897 57.4133C873.897 57.2647 873.845 57.1532 873.793 57.0417C875.032 57.0417 876.258 57.0138 877.432 57.051C876.4 57.4412 875.071 57.2832 873.91 57.4133H873.897ZM861.419 63.7035C861.328 63.6292 861.135 63.5734 861.057 63.4991C861.057 63.3597 861.057 63.2111 861.057 63.0717C863.78 63.2761 866.503 63.4991 869.238 63.6849C866.658 63.6849 864.064 63.7035 861.432 63.7035H861.419ZM850.012 152.667C849.379 152.676 848.863 152.834 848.296 152.909C848.928 152.909 849.483 152.825 850.012 152.667ZM587.678 139.678C587.678 139.696 587.587 139.715 587.587 139.752C587.536 139.715 587.536 139.687 587.484 139.678C587.587 139.678 587.639 139.678 587.678 139.678ZM298.374 139.752C298.362 139.715 298.233 139.696 298.233 139.678C298.284 139.678 298.375 139.678 298.413 139.678C298.387 139.687 298.374 139.715 298.374 139.752ZM26.3754 69.0367C23.201 69.0367 20.0138 69.0181 16.8266 69.0181C20.2977 68.9531 23.3172 67.5594 27.0076 68.1447C27.1625 68.5443 26.7109 68.7765 26.3625 69.0367H26.3754ZM113.889 14.7109C113.837 14.6458 113.799 14.5808 113.734 14.525C113.876 14.5064 113.941 14.5529 114.082 14.5343C114.031 14.6087 113.928 14.6458 113.889 14.7109ZM257.921 4.14674C256.927 4.15603 255.96 4.1746 254.94 4.19319C255.947 4.21177 256.953 4.3976 257.921 4.14674ZM276.877 7.48226C276.877 7.46368 276.928 7.46371 276.928 7.45442C276.941 7.46371 276.89 7.46368 276.928 7.48226C276.89 7.48226 276.89 7.48226 276.877 7.48226ZM382.636 12.6946C382.701 12.6946 382.791 12.6946 382.856 12.6946C382.791 12.7225 382.701 12.7225 382.675 12.7225C382.636 12.7225 382.636 12.7225 382.636 12.6946ZM381.165 16.95C381.346 16.8478 381.527 16.7642 381.668 16.6899C381.694 16.7642 381.591 16.8571 381.668 16.95C381.488 16.95 381.346 16.95 381.165 16.95ZM504.242 16.6899C504.435 16.7642 504.629 16.8571 504.809 16.95C504.616 16.95 504.422 16.95 504.28 16.95C504.332 16.8478 504.242 16.7642 504.242 16.6899ZM503.3 12.6946C503.3 12.7225 503.3 12.7225 503.3 12.7225C503.209 12.6947 503.184 12.7225 503.106 12.6946C503.171 12.6946 503.248 12.6946 503.3 12.6946ZM609.008 7.45442C609.008 7.46371 609.072 7.46368 609.072 7.48226C609.046 7.48226 609.046 7.48226 609.046 7.48226C609.046 7.46368 609.008 7.46371 609.008 7.45442ZM630.97 4.20249C629.976 4.1839 629.008 4.16533 628.015 4.15604C628.996 4.4162 629.963 4.23036 630.97 4.20249ZM859.573 69.046C859.264 68.7858 858.76 68.5535 858.954 68.154C862.645 67.5779 865.69 68.9623 869.109 69.0274C865.909 69.0274 862.774 69.046 859.561 69.046H859.573ZM44.4923 43.7924C44.4923 43.9596 44.7891 44.0526 44.7375 44.2198C43.9761 43.5694 42.2728 43.6902 41.2793 43.2256C42.2728 43.5044 43.2793 43.7645 44.4923 43.7924ZM146.11 19.5237C146.161 19.4773 146.252 19.5237 146.303 19.4773C146.355 19.4958 146.355 19.533 146.394 19.5423C146.239 19.5423 146.213 19.5237 146.11 19.5237ZM181.143 15.4635C181.195 15.3891 181.247 15.3612 181.285 15.2683C181.311 15.2683 181.35 15.2776 181.389 15.2776C181.311 15.3519 181.221 15.4077 181.143 15.4635ZM232.914 12.8805C233.339 12.7597 233.675 12.8154 234.139 12.6482C233.972 12.8433 233.701 12.8433 233.494 13.0199C233.288 12.9827 233.133 12.9083 232.914 12.8805ZM287.161 11.0687C287.058 11.0687 286.993 11.0687 286.864 11.0687C286.89 11.0687 286.916 11.0501 286.916 11.0315C287.006 11.0501 287.071 11.0315 287.161 11.0315V11.0687ZM315.666 11.8677C315.808 11.812 315.808 11.747 315.911 11.6912C315.859 11.747 315.898 11.812 315.859 11.8677C315.808 11.8677 315.717 11.8677 315.666 11.8677ZM351.086 12.7876C351.086 12.7504 350.945 12.769 350.945 12.7318C351.009 12.7318 351.099 12.7318 351.164 12.7318C351.125 12.7504 351.099 12.769 351.086 12.7876ZM534.914 12.7876C534.888 12.769 534.824 12.7504 534.759 12.7318C534.888 12.7318 534.914 12.7318 535.004 12.7318C535.004 12.769 534.914 12.7504 534.914 12.7876ZM538.63 12.6854C538.63 12.8898 538.966 12.8433 539.056 13.0199C538.811 12.8898 538.592 12.8248 538.372 12.6854C538.437 12.6854 538.553 12.6947 538.63 12.6854ZM570.077 11.6819C570.141 11.7377 570.206 11.8027 570.296 11.8584C570.258 11.8584 570.206 11.8584 570.103 11.8584C570.103 11.8027 570.103 11.7377 570.077 11.6819ZM571.006 11.8213C570.761 11.8213 570.516 11.8492 570.296 11.8584C570.335 11.7191 570.58 11.6169 570.761 11.5147C570.825 11.6169 570.864 11.7377 571.006 11.8213ZM598.801 11.0594V11.0222C598.891 11.0222 598.981 11.0408 599.02 11.0222C599.072 11.0408 599.072 11.0594 599.072 11.0594C598.981 11.0594 598.891 11.0594 598.801 11.0594ZM651.797 12.6296C652.287 12.7969 652.609 12.7504 653.074 12.8619C652.829 12.8898 652.648 12.9641 652.468 13.0013C652.287 12.8247 651.977 12.8248 651.797 12.6296ZM704.676 15.2497C704.715 15.3519 704.754 15.3705 704.818 15.4448C704.728 15.3891 704.676 15.3426 704.573 15.259C704.625 15.259 704.625 15.2497 704.676 15.2497ZM739.865 19.5051C739.71 19.5051 739.71 19.5237 739.594 19.5237C739.62 19.5144 739.62 19.4772 739.659 19.4587C739.71 19.5051 739.813 19.4587 739.865 19.5051ZM841.224 44.2012C841.186 44.034 841.444 43.941 841.444 43.7738C842.721 43.7459 843.715 43.4765 844.708 43.207C843.676 43.6716 842.024 43.5508 841.224 44.2012ZM49.7828 32.3085C49.7828 32.2806 49.7828 32.3084 49.7828 32.2806C49.7828 32.3084 49.7828 32.3085 49.7828 32.3085ZM134.354 18.6503C134.367 18.6318 134.406 18.6224 134.419 18.6224C134.419 18.6317 134.406 18.6318 134.406 18.6503C134.367 18.6503 134.367 18.6503 134.354 18.6503ZM250.269 14.9989C250.334 14.971 250.463 14.971 250.553 14.9338C250.553 14.9338 250.579 14.9338 250.605 14.9338C250.501 14.9338 250.372 14.9989 250.269 14.9989ZM346.931 13.0013C346.97 12.8247 347.319 12.8712 347.331 12.6668C347.422 12.6761 347.525 12.6668 347.602 12.6668C347.37 12.8062 347.138 12.8712 346.931 13.0013ZM539.043 15.6307C538.992 15.6307 538.966 15.6307 538.927 15.6028C538.966 15.5935 538.992 15.6028 539.043 15.5935C539.043 15.6028 539.043 15.6307 539.043 15.6307ZM588.878 12.6668C588.813 12.6761 588.813 12.7039 588.762 12.7225C588.762 12.7039 588.736 12.7039 588.736 12.7039C588.762 12.6668 588.813 12.6761 588.891 12.6668H588.878ZM635.435 14.9245C635.473 14.9617 635.628 14.9617 635.693 14.9896C635.564 14.9896 635.473 14.9245 635.383 14.9245C635.383 14.9245 635.383 14.9245 635.435 14.9245ZM643.745 9.26622C642.377 9.26622 641.009 9.28476 639.667 9.28476C641.022 9.29405 642.39 9.57283 643.745 9.26622ZM751.504 18.5853C751.556 18.6132 751.556 18.6225 751.62 18.641H751.556C751.556 18.6225 751.504 18.6225 751.504 18.5853ZM836.192 32.2992C836.192 32.2992 836.192 32.2991 836.192 32.2713C836.192 32.2991 836.192 32.2713 836.192 32.2992ZM844.747 57.8593C844.554 57.7385 844.502 57.4969 844.308 57.4226C844.45 57.3576 844.618 57.3576 844.747 57.2647C844.812 57.4598 844.747 57.6735 844.747 57.8593ZM162.846 29.7348C163.027 29.7533 163.207 29.6883 163.388 29.6976C163.298 29.7348 163.169 29.7348 163.104 29.7998C163.027 29.7626 162.91 29.7905 162.846 29.7441V29.7348ZM195.763 24.987C195.596 25.0055 195.402 25.0055 195.222 25.0334C195.402 24.9962 195.557 25.0055 195.699 24.987C195.725 24.987 195.751 24.987 195.763 24.987ZM297.239 12.7039C297.2 12.7039 297.187 12.7039 297.162 12.7225C297.162 12.7039 297.11 12.6761 297.11 12.6668C297.149 12.6761 297.2 12.6668 297.252 12.7039H297.239ZM346.919 15.6307C346.893 15.6307 346.919 15.6028 346.893 15.5935C346.944 15.6028 346.97 15.5935 347.048 15.6028C347.022 15.6307 346.97 15.6307 346.919 15.6307ZM690.689 25.0334C690.508 25.0055 690.366 25.0055 690.172 24.987H690.224C690.418 25.0055 690.534 24.9962 690.689 25.0334ZM723.116 29.7348C723.064 29.7812 722.922 29.7533 722.871 29.7905C722.78 29.7348 722.625 29.7348 722.587 29.6883C722.742 29.679 722.922 29.744 723.116 29.7255V29.7348ZM90.7008 28.8614C90.6879 28.8614 90.6621 28.8614 90.6621 28.8614C90.6621 28.8614 90.6879 28.8614 90.7008 28.8614ZM114.289 23.9928C114.237 23.9185 114.199 23.8534 114.16 23.7884C114.186 23.8069 114.263 23.7884 114.328 23.807C114.289 23.8534 114.315 23.9278 114.289 23.9928ZM116.25 27.1518C116.095 27.124 115.979 27.1239 115.863 27.1239C115.966 27.1146 116.108 27.0868 116.263 27.0682C116.263 27.0868 116.225 27.1146 116.25 27.1611V27.1518ZM277.174 18.6317C277.135 18.6596 277.07 18.6875 277.019 18.6968C277.032 18.6968 277.032 18.6968 277.032 18.6875C277.057 18.6596 277.083 18.6596 277.122 18.6503C277.148 18.6318 277.161 18.6503 277.161 18.6317H277.174ZM608.879 18.7061C608.84 18.6875 608.788 18.6596 608.737 18.6317C608.737 18.6503 608.775 18.6318 608.775 18.6503C608.827 18.6596 608.866 18.6875 608.866 18.6875C608.866 18.6968 608.866 18.6968 608.866 18.7061H608.879ZM771.621 23.9928C771.621 23.9185 771.621 23.8534 771.583 23.807C771.621 23.7884 771.737 23.8069 771.776 23.7884C771.737 23.8534 771.686 23.9278 771.621 23.9928ZM795.287 28.8614C795.235 28.8614 795.235 28.8614 795.235 28.8614C795.235 28.8614 795.235 28.8614 795.287 28.8614ZM112.431 27.1146C112.431 27.096 112.431 27.0868 112.431 27.0868C112.431 27.0868 112.444 27.096 112.444 27.1146H112.431ZM263.779 19.9883C263.289 19.8675 262.786 19.7839 262.283 19.7188C262.902 19.6538 263.341 19.7653 263.973 19.6816C263.831 19.7839 263.896 19.8675 263.779 19.9883ZM773.531 27.0868C773.531 27.0868 773.531 27.096 773.531 27.1146C773.479 27.1146 773.479 27.1146 773.479 27.1146C773.479 27.096 773.479 27.0868 773.531 27.0868ZM621.976 19.6816C622.634 19.7653 623.047 19.6538 623.64 19.7188C623.137 19.7746 622.673 19.8675 622.169 19.9883C622.015 19.8675 622.105 19.7839 621.976 19.6816ZM788.59 19.9139C788.59 19.9139 788.616 19.9047 788.616 19.8861C788.59 20.0069 788.654 20.0905 788.706 20.1927C788.654 20.1927 788.616 20.1741 788.59 20.1741C788.59 20.0998 788.59 20.0068 788.59 19.9139ZM769.673 27.0589C769.802 27.0775 769.944 27.1053 770.086 27.1146C769.944 27.1146 769.802 27.1147 769.699 27.1425C769.699 27.1054 769.673 27.0775 769.673 27.0496V27.0589ZM97.372 20.1648C97.3462 20.1648 97.2946 20.1834 97.2559 20.1834C97.2946 20.0812 97.3462 19.9976 97.3204 19.8768C97.3462 19.8954 97.3591 19.9046 97.372 19.9232C97.372 19.9883 97.372 20.0812 97.372 20.1555V20.1648ZM315.188 11.4961C315.395 11.5983 315.64 11.7005 315.653 11.8398C315.42 11.8306 315.214 11.8027 314.982 11.8027C315.098 11.7284 315.137 11.5983 315.188 11.4961ZM242.153 9.26622C243.533 9.57283 244.914 9.29405 246.269 9.28476C246.269 9.28476 246.269 9.28476 246.256 9.28476C244.875 9.28476 243.52 9.26622 242.153 9.26622ZM41.176 57.274C41.318 57.3669 41.4986 57.3669 41.6535 57.4319C41.4083 57.497 41.3696 57.7478 41.2018 57.8686C41.2018 57.6921 41.1115 57.4784 41.176 57.274ZM263.276 9.19187C262.657 9.0525 262.089 8.90384 261.521 8.78305C261.521 8.78305 261.521 8.80164 261.521 8.78305C261.999 9.03392 262.463 9.30337 263.276 9.19187ZM165.633 142.196C165.633 142.196 165.633 142.196 165.646 142.196C165.633 142.196 165.646 142.196 165.633 142.196ZM720.329 142.224C720.329 142.196 720.329 142.196 720.329 142.196C720.329 142.196 720.329 142.196 720.329 142.224ZM886.026 72.0099C885.717 71.5918 885.149 71.5174 884.671 71.2852C885.329 71.0157 885.833 70.737 884.917 70.1516C884.349 69.7707 883.51 70.1609 882.697 70.3746C881.987 70.2538 881.342 70.1609 880.697 70.0494C879.742 69.2783 878.297 69.0274 876.658 69.0367C874.335 68.3956 872.09 67.7824 869.819 67.1413C869.509 66.8625 868.851 66.8254 868.413 66.6303C868.722 66.5466 869.071 66.463 869.393 66.398C874.942 67.7452 880.503 67.8752 886.039 66.3608C885.071 65.4595 882.994 65.6175 881.549 65.1715C881.02 64.9485 880.516 64.6791 879.665 64.6791C878.297 64.4654 877.548 63.6292 875.845 63.6757C873.884 63.7314 871.897 63.6757 869.897 63.6757C870.116 63.6571 870.4 63.5548 870.4 63.527C870.309 63.3133 870.116 63.0903 869.961 62.9045C870.155 62.2912 870.955 62.1704 871.858 62.0775C875.845 62.189 879.949 62.1611 884.362 61.1856C879.794 59.829 876.039 60.5073 872.361 60.5445C871.432 60.5445 870.49 60.5166 869.548 60.5073C868.103 60.1078 866.335 59.8012 866.374 58.7048C866.374 58.7141 866.425 58.7141 866.425 58.7141C866.425 58.7048 866.425 58.7048 866.425 58.6584H866.49C868.309 58.4632 870.309 58.9371 872.116 58.6584C874.426 58.6584 876.671 58.6584 878.852 58.6584C880.645 58.6491 882.297 58.3889 882.104 57.2182C881.923 56.2891 880.4 56.2333 878.955 56.2612C876.787 56.2612 874.723 55.936 872.645 55.6666C871.703 55.3414 870.71 55.0534 869.909 54.7003C869.69 54.5888 869.548 54.4494 869.303 54.3472C872.581 53.8641 876.529 55.5829 879.316 53.5203C879.549 53.1858 879.82 52.8421 880.142 52.5076C880.362 52.3961 880.555 52.2939 880.774 52.1638C880.71 52.1266 880.594 52.043 880.516 51.978C880.555 51.9315 880.658 51.8293 880.71 51.7643C880.774 50.6865 879.523 50.2498 877.639 50.1104C877.587 50.1104 877.587 50.1197 877.561 50.1197C877.587 50.1104 877.587 50.1197 877.639 50.1104C877.69 49.5808 877.69 49.0512 877.729 48.5309C881.962 48.2986 879.523 47.4531 878.916 46.3846C878.297 45.3069 877.394 44.8144 876.284 44.6379C876.181 43.3836 874.581 42.12 873.161 40.8656C881.123 37.688 873.161 36.3501 869.961 34.4175C873.213 32.5035 876.09 34.8078 880.594 34.2131C874.748 31.4629 872.645 27.6164 864.929 26.1855C863.612 25.6838 862.335 25.1914 861.032 24.6803C857.393 23.6026 854.012 21.9673 849.728 24.2251C847.237 25.5444 845.792 21.9394 842.863 23.7048C837.934 24.1136 834.863 20.7873 829.521 21.9952C829.211 21.9952 829.275 22.0323 829.03 22.0231C829.327 21.2054 829.133 20.4063 826.927 19.663C826.953 19.0127 827.004 18.3437 827.082 17.6841C829.521 15.7887 827.611 14.7852 824.165 14.1441C821.069 12.7504 817.301 13.7446 813.855 13.4287C813.907 12.9548 813.933 12.4624 813.971 11.9885C816.488 11.877 819.146 12.2487 822.32 11.0222C814.797 8.69012 807.494 9.50775 800.526 9.39625C800.526 9.39625 800.526 9.39626 800.526 9.40555C800.526 9.39626 800.526 9.39625 800.526 9.39625C799.274 9.36838 797.997 9.35909 796.732 9.34051C794.654 9.28476 792.59 9.21971 790.525 9.15467C789.39 9.43341 788.254 9.68431 787.144 9.95376C788.177 10.0653 789.222 10.1581 790.216 10.2696C789.687 10.7435 789.119 11.2174 788.616 11.7005C787.428 11.7748 786.293 11.877 785.157 11.9885C782.847 12.0629 780.138 11.0408 778.293 12.5924L778.241 12.4623C775.105 12.6203 772.408 13.7539 768.95 13.4287C765.04 13.0384 763.918 14.4971 763.156 16.0673C762.692 16.0209 762.163 15.9652 761.711 15.9094C759.672 14.6551 760.563 12.4717 756.679 11.8491C752.627 11.9421 748.717 11.6076 744.885 11.0129C741.943 11.0129 739.078 11.0129 735.697 11.0129C737.529 12.1929 739.736 11.6355 741.375 11.9885C743.117 12.5088 744.885 13.0292 746.601 13.5588C746.162 13.6238 745.698 13.6516 745.285 13.6237C744.497 13.6237 743.71 13.6052 742.923 13.5959C740.33 14.2091 736.471 11.9514 734.742 14.5343C736.871 16.4112 734.497 16.7921 731.555 16.9407C729.671 14.4507 725.813 16.8199 723.232 16.0673C722.613 15.5099 721.967 14.9617 721.361 14.4228C715.748 14.7573 716.032 12.9269 716.574 11.0129C717.258 10.9014 718.354 10.9015 718.729 10.6413C719.645 9.99091 718.819 9.77722 717.541 9.77722C715.541 9.76793 713.786 8.69943 711.515 9.35911C709.257 10.1767 708.135 12.2022 704.147 11.1337C700.986 10.4554 697.786 10.3533 694.586 10.9944C694.198 10.855 693.786 10.8457 693.36 10.9293C691.45 9.72147 688.753 10.186 686.301 10.1024C686.224 9.89799 686.082 9.68428 685.979 9.452C685.901 8.67153 690.547 8.02114 686.921 7.35217C682.417 6.51596 677.127 4.13746 672.765 7.64025C672.21 7.96545 671.643 8.29063 671.075 8.61582C667.075 8.75519 669.384 5.03871 664.404 5.78201C664.442 4.49053 664.133 3.36625 660.868 3.30121C660.416 2.29775 663.655 0.0864492 657.784 0.811165C653.784 1.03415 650.429 1.61951 650.919 4.18389C649.797 4.46262 648.713 4.74133 647.577 5.02936C644.377 3.97016 642.493 1.59161 637.422 2.53932C633.938 2.51145 630.325 2.0469 627.447 3.54279C625.795 3.72861 624.195 3.93301 622.595 4.10954C616.943 1.43367 617.008 1.4337 612.156 3.32911C611.795 3.47777 611.124 3.43128 610.556 3.46844C608.362 3.46844 606.13 3.47774 603.936 3.47774C601.962 3.29192 600.039 3.14326 598.478 3.99805C594.246 4.00734 590.013 4.04452 585.819 4.0724C585.781 4.0724 585.781 4.0724 585.781 4.0724C585.678 3.36626 581.987 3.81223 583.806 2.49288C585.032 2.38138 587.045 2.38137 586.323 1.49871C585.252 0.244391 583.445 0.83903 582 1.49871C580.903 1.8239 579.819 2.13984 578.735 2.46503C574.748 3.29195 570.748 4.10956 566.735 4.94577C565.728 5.01081 564.683 5.08511 563.651 5.15015C562.528 5.15015 561.367 5.14091 560.205 5.14091C556.167 5.11304 552.115 5.15945 548.063 5.03866C544.489 4.93646 543.25 5.86561 543.224 7.51016C542.23 7.51016 541.185 7.51016 540.153 7.51016C539.598 7.0456 539.03 6.59033 538.437 6.11648C536.166 5.94923 533.533 4.74136 532.075 6.73897C531.378 8.07691 527.456 7.20352 526.901 8.64366C524.126 8.79232 523.636 9.88869 523.133 10.9665C520.978 12.0257 518.9 10.8178 516.745 10.92C511.571 7.96542 504.28 9.83295 498.203 8.88524C497.738 8.82021 495.519 9.04323 496.293 9.78652C496.796 10.3068 498.396 10.5112 499.532 10.855C497.738 11.4589 496.048 11.366 494.035 11.0408C491.725 10.6506 489.506 10.8178 489.622 12.5367C490.28 13.3357 491.57 13.5401 493.093 13.568C492.19 12.9734 491.157 12.5367 489.622 12.5367C488.628 12.5367 487.673 12.546 486.667 12.546C478.253 10.1303 475.015 10.3626 474.408 13.438C473.337 13.5402 472.279 13.6052 471.234 13.6796C464.898 12.9641 458.562 13.2893 452.252 13.6516C451.388 12.5739 450.136 11.6076 447.323 11.1337C445.426 10.8085 444.252 11.1616 443.052 11.4868C441.852 11.1616 440.69 10.8085 438.768 11.1337C435.993 11.6076 434.703 12.5739 433.877 13.6516C427.529 13.2893 421.206 12.9641 414.87 13.6796C413.825 13.6052 412.767 13.5309 411.709 13.438C411.076 10.3626 407.812 10.121 399.424 12.546C398.431 12.546 397.476 12.5367 396.521 12.5367C394.947 12.5367 393.901 12.9827 393.024 13.568C394.546 13.5401 395.863 13.3357 396.521 12.5367C396.611 10.8178 394.43 10.6506 392.082 11.0408C390.082 11.366 388.353 11.4496 386.585 10.855C387.733 10.5112 389.359 10.3068 389.862 9.78652C390.598 9.04323 388.417 8.81091 387.94 8.88524C381.849 9.83295 374.584 7.96542 369.397 10.92C367.255 10.8178 365.139 12.035 362.971 10.9665C362.481 9.89798 361.99 8.79232 359.242 8.64366C358.661 7.20352 354.764 8.07691 354.029 6.73897C352.596 4.74136 349.951 5.94923 347.693 6.11648C347.125 6.59033 346.544 7.05489 345.938 7.51016C344.944 7.51016 343.938 7.51016 342.918 7.51016C342.854 5.86561 341.68 4.94575 338.041 5.03866C334.015 5.15945 329.937 5.10374 325.911 5.14091C324.763 5.14091 323.614 5.15015 322.466 5.15015C321.459 5.08511 320.414 5.01081 319.395 4.94577C315.395 4.10956 311.382 3.29195 307.356 2.46503C306.31 2.13984 305.239 1.8239 304.142 1.49871C302.659 0.83903 300.852 0.244391 299.82 1.49871C299.084 2.38137 301.071 2.38138 302.297 2.49288C304.142 3.82152 300.413 3.36626 300.31 4.0724C296.078 4.04452 291.871 4.00734 287.639 3.99805C286.051 3.14326 284.129 3.29192 282.206 3.47774C279.961 3.47774 277.767 3.46844 275.548 3.46844C275.006 3.43128 274.335 3.47777 273.948 3.32911C269.122 1.4337 269.122 1.43367 263.534 4.10954C261.908 3.93301 260.295 3.72861 258.682 3.54279C255.792 2.0469 252.179 2.51145 248.669 2.53932C243.585 1.58232 241.688 3.97016 238.54 5.02936C237.417 4.74133 236.307 4.46262 235.185 4.18389C235.636 1.61951 232.333 1.03415 228.32 0.811165C222.436 0.0864492 225.713 2.29775 225.223 3.30121C221.984 3.35695 221.649 4.49053 221.726 5.78201C216.719 5.03871 219.042 8.7459 215.042 8.61582C214.474 8.29063 213.893 7.96545 213.338 7.64025C208.951 4.13746 203.674 6.51596 199.17 7.35217C195.583 8.02114 200.241 8.68082 200.138 9.452C199.996 9.67499 199.867 9.89799 199.751 10.1024C197.312 10.1767 194.628 9.72147 192.692 10.9293C192.279 10.855 191.905 10.855 191.531 10.9944C188.305 10.3533 185.105 10.4554 181.944 11.1337C177.943 12.2022 176.834 10.1767 174.537 9.35911C172.343 8.69943 170.588 9.76793 168.536 9.77722C167.285 9.77722 166.433 9.99091 167.388 10.6413C167.762 10.9107 168.795 10.9107 169.543 11.0129C170.033 12.9269 170.291 14.7573 164.717 14.4228C164.098 14.9617 163.504 15.5006 162.872 16.0673C160.291 16.8199 156.407 14.4507 154.51 16.9407C151.568 16.7921 149.22 16.4112 151.297 14.5343C149.581 11.9607 145.723 14.2091 143.103 13.5959C142.355 13.6052 141.593 13.6237 140.806 13.6237C140.355 13.6423 139.903 13.6238 139.451 13.5588C141.193 13.0292 142.935 12.5088 144.664 11.9885C146.355 11.6355 148.523 12.1929 150.342 11.0129C147.013 11.0129 144.084 11.0129 141.193 11.0129C137.335 11.6076 133.425 11.9328 129.412 11.8491C125.464 12.4717 126.367 14.6551 124.354 15.9094C123.864 15.9652 123.386 16.0209 122.883 16.0673C122.173 14.5064 120.999 13.0384 117.102 13.4287C113.644 13.7539 110.947 12.6203 107.785 12.4623H107.773V12.5924C107.773 12.5924 107.773 12.5924 107.734 12.5924C105.901 11.0501 103.205 12.0629 100.843 11.9885C99.7205 11.877 98.585 11.7841 97.4624 11.7005C96.9204 11.2081 96.3914 10.7342 95.8365 10.2696C96.8559 10.1581 97.8624 10.0653 98.9205 9.95376C97.7592 9.68431 96.6752 9.43341 95.5526 9.15467C93.4751 9.229 91.3847 9.28476 89.333 9.34051C88.0555 9.35909 86.7651 9.36838 85.5135 9.39625C78.5325 9.50775 71.2677 8.69012 63.7448 11.0222C66.8804 12.2394 69.5902 11.877 72.029 11.9885C72.0677 12.4624 72.158 12.9548 72.1839 13.4287C68.7772 13.7446 65.0222 12.7504 61.8995 14.1441C58.4155 14.7852 56.5315 15.7887 58.9833 17.6841C59.022 18.3437 59.0736 19.0127 59.151 19.663C59.151 19.663 59.151 19.663 59.1381 19.663C56.9445 20.4063 56.7509 21.2054 57.0348 22.0231C56.7896 22.0323 56.8025 21.9952 56.5444 21.9952C51.1894 20.7873 48.1054 24.1229 43.1761 23.7048C40.2857 21.9487 38.8404 25.5444 36.3371 24.2251C32.0659 21.9673 28.6335 23.5933 25.0334 24.6803C23.743 25.1914 22.4139 25.6838 21.1106 26.1855C13.4329 27.6256 11.3037 31.4629 5.4454 34.2131C9.98754 34.8171 12.8393 32.5035 16.0781 34.4175C12.878 36.3501 4.94216 37.688 12.878 40.8656C11.4457 42.12 9.88431 43.3836 9.76817 44.6379C8.64554 44.8144 7.76809 45.3069 7.13581 46.3846C6.56804 47.4438 4.09051 48.2893 8.32295 48.5309C8.34876 49.0512 8.37457 49.5808 8.40037 50.1104C6.52932 50.2498 5.26475 50.6772 5.35508 51.7643C5.4196 51.8293 5.45831 51.9315 5.53573 51.978C5.4454 52.0523 5.32927 52.1266 5.23895 52.1638C5.47122 52.2939 5.71639 52.3961 5.93575 52.5076C6.20673 52.8421 6.47771 53.1858 6.7616 53.5203C9.51011 55.5829 13.4716 53.8641 16.7233 54.3472C16.4781 54.4587 16.3749 54.5888 16.1297 54.7003C15.3039 55.0534 14.2974 55.3414 13.4329 55.6666C11.3424 55.9453 9.22622 56.2612 7.07128 56.2612C5.62606 56.2333 4.15503 56.2798 3.97437 57.2182C3.7421 58.3889 5.4325 58.6398 7.18741 58.6584C9.38106 58.6584 11.6521 58.6584 13.9361 58.6584C15.7168 58.9371 17.7298 58.4632 19.5751 58.6584C19.588 58.6584 19.6138 58.6584 19.6396 58.6584C19.6396 58.7048 19.588 58.7048 19.588 58.7141C19.6138 58.7141 19.6396 58.7141 19.6654 58.7048C19.6783 59.7919 17.975 60.0985 16.4782 60.5073C15.5749 60.5166 14.6329 60.5445 13.6909 60.5445C10.0004 60.5073 6.21963 59.829 1.7033 61.1856C6.09059 62.1704 10.194 62.189 14.1942 62.0775C15.0845 62.1612 15.8846 62.2912 16.0652 62.9045C15.9104 63.0903 15.7297 63.304 15.6781 63.527C15.6394 63.5548 15.9233 63.6571 16.1556 63.6757C14.1684 63.6757 12.1812 63.7314 10.194 63.6757C8.4778 63.6292 7.781 64.4654 6.38739 64.6791C5.52283 64.6791 5.05829 64.9392 4.51633 65.1715C3.08401 65.6175 1.0065 65.4595 0 66.3608C5.54863 67.8752 11.0973 67.7452 16.6717 66.398C17.0201 66.4723 17.3298 66.5466 17.6395 66.6303C17.2137 66.8254 16.5427 66.8625 16.2201 67.1413C13.9748 67.7824 11.6908 68.3956 9.41978 69.0367C7.76809 69.0274 6.28415 69.2783 5.34217 70.0494C4.68408 70.1609 4.02599 70.2538 3.36789 70.3746C2.54205 70.1609 1.67749 69.7614 1.10973 70.1516C0.206462 70.7277 0.709715 71.0157 1.36781 71.2852C0.916176 71.5174 0.296787 71.5918 0 72.0099C0.890362 71.982 1.342 71.7311 2.14204 71.6847C2.63238 71.8426 3.25176 71.9541 3.32918 72.205C2.73561 72.4837 0.400018 72.0749 1.93557 73.162C4.59375 73.9889 7.43259 74.0539 10.323 74.0167C8.5036 74.4534 6.76159 74.8901 4.58085 75.4104C9.05847 76.0701 11.8586 74.8716 14.9426 74.1561C15.02 74.1561 15.0845 74.1097 15.1491 74.1097C16.7362 74.1004 18.3234 73.9796 19.846 74.1654C16.4911 75.8193 11.5489 74.0632 8.11649 75.6056C7.16161 75.6799 6.20673 75.7821 5.23895 75.8657C7.16161 76.6183 9.04557 76.1537 10.9553 75.8285C9.11009 76.1166 7.25194 76.3489 5.23895 75.8657C4.0518 78.6996 4.05179 78.6996 12.4909 79.4057C12.2844 81.3847 7.92293 80.4927 6.54222 81.6263C4.78731 83.661 7.84551 83.3266 9.97464 83.4195C16.5427 83.6797 23.1107 83.9026 29.6658 84.1442C31.7692 84.2185 34.1693 83.8097 35.4983 85.1105C35.4725 86.2626 35.4596 87.4147 35.4467 88.5575C34.5564 89.2544 34.7112 89.6818 34.9951 90.0256C33.6531 90.7689 33.0208 91.7073 32.5821 92.7107C30.2981 94.2066 32.3756 94.3925 34.7112 94.5132C35.6532 95.9813 29.6271 99.4469 38.1952 98.5456C38.363 98.6292 38.1178 98.7036 38.363 98.7872C38.5178 98.8615 38.6856 98.9451 38.8662 99.0566C38.763 101.231 31.7304 101.965 34.5435 104.687C33.4595 105.142 31.2401 105.746 33.8725 106.229C38.0146 107.038 37.9759 107.753 35.1112 109.212C34.5047 109.546 35.5629 110.699 35.8596 111.451C33.8854 112.752 34.8273 114.257 34.7112 115.697C32.0917 117.165 29.4852 118.652 26.8657 120.12C26.556 120.306 26.3496 120.538 26.2592 120.798C22.9559 120.733 20.6848 121.904 18.104 122.675C16.9943 123.019 14.5039 123.056 15.3555 124.245C16.0265 125.137 17.8201 125.258 19.5622 125.249C16.7104 126.614 11.6521 127.441 14.7103 130.294C14.349 131 11.8586 132.161 15.8975 131.957C17.6911 131.845 19.3815 131.381 21.1493 131.093C23.2526 131.929 20.6977 132.979 21.5493 133.88C19.0718 134.93 16.5943 135.98 14.1297 137.039C18.9299 136.677 20.5945 140.087 24.7237 138.823C26.3496 140.626 18.917 141.936 23.7043 143.905C22.943 144.193 22.1171 144.5 21.3429 144.779C18.0782 144.639 15.4458 145.392 11.2134 146.488C16.3233 146.488 19.6396 146.488 22.9559 146.488L23.1494 146.451C22.7881 147.64 23.9624 148.17 26.2334 148.207C26.3367 148.495 26.4528 148.774 26.5689 149.043C24.3237 149.926 22.0526 150.799 19.8202 151.691C17.5621 150.799 15.291 150.688 12.9296 151.571C10.6456 151.701 8.20682 151.218 4.98087 152.398C8.36166 152.398 10.6972 152.398 13.007 152.398C14.6458 152.704 13.1877 154.386 16.2717 154.135C18.5815 153.977 19.4718 153.364 19.6654 152.323C21.6268 153.159 23.9753 153.224 26.3367 153.252C26.8141 153.587 25.4592 154.971 28.1174 154.079C28.6077 154.107 29.111 154.154 29.5626 154.228C29.5626 154.72 29.6013 155.194 29.6013 155.687C28.5819 155.807 27.6012 155.919 26.6076 156.03C24.2333 156.356 21.859 156.699 18.0524 157.229C22.0913 157.517 24.6204 158.037 26.3754 156.616C29.6916 156.616 32.9821 156.616 36.2726 156.616C35.5242 155.938 34.1822 155.872 32.8402 155.761C32.8918 155.742 32.995 155.761 33.0208 155.733C33.8725 156.272 35.4209 156.123 36.2726 156.616C40.3373 156.746 42.4406 159.32 47.6666 158.511C54.2476 157.452 61.3576 157.294 67.2417 155.176C70.1063 155.148 72.9839 155.101 75.5001 154.265C79.4874 154.302 83.565 154.59 87.1781 153.373C88.7394 153.243 90.3266 153.113 91.9525 153.011C97.0624 152.936 102.366 153.336 107.037 151.784C110.315 151.459 113.708 152.221 116.908 151.413C122.509 151.134 128.109 150.818 133.696 150.539C135.051 150.604 136.29 150.316 137.593 150.251C138.703 150.261 139.955 150.075 141.077 149.973C143.258 150.038 145.516 150.279 147.361 149.378C148.316 149.304 149.258 149.211 150.2 149.118C157.917 150.028 165.582 150.911 172.782 148.272C175.298 148.309 177.776 148.347 180.266 148.347C188.705 148.523 196.744 147.343 204.899 146.628C206.396 146.572 207.893 146.47 209.377 146.395C212.422 146.052 212.926 148.235 215.803 148.059C217.777 146.906 222.126 151.942 222.823 147.38C236.191 145.15 249.495 145.29 262.863 147.399C263.689 148.151 260.695 149.619 263.689 149.712C266.115 149.787 265.728 148.412 265.147 147.455C266.605 147.38 268.115 147.334 269.612 147.269C272.464 147.325 275.315 147.39 278.154 147.445C280.412 147.129 283.277 147.845 284.929 146.442C288.864 146.665 292.194 145.912 295.368 144.881C298.749 147.176 299.678 145.773 300.349 144.017C301.329 144.221 302.323 144.407 303.342 144.612C303.91 144.677 304.478 144.742 305.02 144.825C305.278 145.903 305.73 146.86 308.401 145.773C312.453 146.052 310.233 143.246 313.472 143.106C314.582 143.051 315.678 142.995 316.814 142.939C317.885 142.967 318.969 142.967 320.092 142.986C322.53 143.534 318.504 144.751 321.279 145.401C323.343 144.351 324.698 142.567 328.647 142.986L329.434 143.013L330.221 142.939C331.395 143.246 332.582 143.534 333.77 143.85C334.453 145.857 328.853 144.035 329.098 145.894C330.879 146.86 333.137 146.303 335.254 146.33C339.641 146.637 342.931 145.717 345.37 143.933C348.209 142.995 350.751 142.809 352.377 144.714C352.687 148.021 357.99 145.634 360.39 146.526C360.055 147.185 358.584 148.56 361.603 147.771C364.016 147.176 366.003 146.21 368.907 146.312C371.629 146.33 373.823 145.791 375.668 144.807C387.14 144.546 398.572 144.584 409.657 142.298C410.483 142.121 411.373 142.242 412.263 142.14C412.547 142.14 412.818 142.121 413.141 142.14C418.006 142.614 422.832 143.19 427.774 143.459C428.148 143.469 429.477 143.682 430.625 143.534C431.322 143.599 432.045 143.654 432.755 143.71C433.374 143.413 433.606 143.004 433.787 142.595C433.245 142.921 432.768 143.255 432.755 143.71C434.393 143.822 436.045 143.924 437.658 144.035C437.8 144.862 436.832 146.591 440.136 144.835C440.961 144.389 441.994 144.296 443.026 144.147C444.058 144.296 445.104 144.398 445.942 144.835C449.22 146.591 448.239 144.862 448.381 144.035C449.994 143.924 451.659 143.822 453.297 143.71C453.994 143.654 454.704 143.599 455.401 143.534C456.523 143.682 457.904 143.469 458.278 143.459C463.169 143.199 468.059 142.614 472.911 142.14C473.169 142.121 473.518 142.14 473.802 142.14C474.653 142.242 475.544 142.121 476.382 142.298C487.441 144.574 498.861 144.546 510.397 144.807C512.242 145.791 514.436 146.33 517.133 146.312C520.049 146.2 522.01 147.167 524.423 147.771C527.43 148.56 526.023 147.176 525.636 146.526C528.075 145.643 533.353 148.021 533.636 144.714C535.275 142.818 537.817 143.004 540.63 143.933C543.147 145.726 546.385 146.637 550.811 146.33C552.863 146.312 555.186 146.86 556.967 145.894C557.212 144.035 551.599 145.857 552.257 143.85C553.444 143.534 554.644 143.236 555.831 142.939L556.631 143.013L557.38 142.986C561.315 142.577 562.696 144.351 564.747 145.401C567.522 144.751 563.535 143.534 565.973 142.986C567.07 142.967 568.128 142.967 569.238 142.939C570.348 142.995 571.432 143.051 572.554 143.106C575.793 143.246 573.587 146.042 577.638 145.773C580.271 146.86 580.748 145.912 581.032 144.825C581.587 144.732 582.155 144.677 582.722 144.612C583.716 144.407 584.684 144.221 585.69 144.017C586.349 145.773 587.29 147.185 590.671 144.881C593.859 145.912 597.201 146.674 601.11 146.442C602.749 147.845 605.601 147.129 607.872 147.445C610.75 147.39 613.576 147.325 616.44 147.269C617.885 147.334 619.408 147.39 620.905 147.455C620.273 148.421 619.911 149.796 622.363 149.712C625.331 149.629 622.363 148.161 623.15 147.399C636.518 145.28 649.874 145.15 663.191 147.38C663.887 151.942 668.21 146.906 670.223 148.059C673.101 148.235 673.617 146.052 676.636 146.395C678.12 146.47 679.643 146.572 681.101 146.628C689.282 147.343 697.308 148.523 705.747 148.347C708.238 148.337 710.728 148.309 713.219 148.272C720.432 150.911 728.148 150.028 735.813 149.118C736.794 149.211 737.736 149.294 738.665 149.378C740.497 150.27 742.768 150.038 744.975 149.973C746.072 150.075 747.323 150.261 748.459 150.251C749.711 150.307 750.949 150.604 752.304 150.539C757.917 150.827 763.518 151.143 769.118 151.413C772.305 152.221 775.738 151.459 778.989 151.784C783.648 153.336 788.964 152.936 794.087 153.011C795.687 153.122 797.274 153.243 798.874 153.373C802.448 154.59 806.539 154.302 810.487 154.265C813.042 155.111 815.894 155.148 818.759 155.176C824.643 157.285 831.753 157.443 838.334 158.511C843.547 159.32 845.65 156.737 849.702 156.616C853.044 156.616 856.335 156.616 859.625 156.616C861.367 158.028 863.896 157.508 867.935 157.229C864.141 156.699 861.793 156.356 859.406 156.03C858.412 155.919 857.431 155.807 856.425 155.687C856.425 155.194 856.425 154.72 856.425 154.228C856.89 154.163 857.367 154.107 857.87 154.079C860.554 154.971 859.212 153.587 859.664 153.252C862.038 153.224 864.387 153.15 866.296 152.323C866.529 153.364 867.432 153.977 869.729 154.135C872.852 154.377 871.393 152.695 872.993 152.398C875.303 152.398 877.652 152.398 881.033 152.398C877.832 151.218 875.381 151.701 873.084 151.571C870.722 150.688 868.425 150.79 866.219 151.691C863.948 150.809 861.703 149.935 859.444 149.043C859.522 148.774 859.664 148.495 859.767 148.207C862.064 148.17 863.199 147.64 862.851 146.451L863.045 146.488C866.335 146.488 869.677 146.488 874.826 146.488C870.529 145.383 867.935 144.639 864.645 144.779C863.858 144.491 863.096 144.184 862.296 143.905C867.058 141.936 859.625 140.626 861.315 138.823C865.419 140.077 867.058 136.667 871.897 137.039C869.419 135.989 866.967 134.939 864.451 133.88C865.303 132.979 862.735 131.92 864.89 131.093C866.632 131.381 868.322 131.845 870.103 131.957C874.142 132.161 871.664 131 871.277 130.294C874.335 127.441 869.316 126.614 866.49 125.249C868.18 125.258 870.026 125.137 870.671 124.245C871.522 123.056 869.032 123.019 867.896 122.675C865.367 121.894 863.109 120.724 859.78 120.798C859.728 120.538 859.483 120.306 859.161 120.12C856.58 118.643 853.947 117.165 851.354 115.697C851.212 114.257 852.167 112.752 850.192 111.451C850.451 110.699 851.547 109.546 850.941 109.212C848.063 107.753 848.063 107.038 852.154 106.229C854.825 105.746 852.58 105.133 851.483 104.687C854.296 101.965 847.237 101.231 847.173 99.0566C847.366 98.9451 847.483 98.8708 847.676 98.7872C847.921 98.7036 847.676 98.6292 847.818 98.5456C856.438 99.4469 850.373 95.9813 851.354 94.5132C853.651 94.3925 855.728 94.2066 853.457 92.7107C853.044 91.7073 852.386 90.7782 851.018 90.0256C851.354 89.6818 851.496 89.2544 850.605 88.5575C850.605 87.4054 850.567 86.2533 850.567 85.1105C851.818 83.8097 854.27 84.2278 856.348 84.1442C862.929 83.9026 869.522 83.6797 876.065 83.4195C878.181 83.3266 881.239 83.661 879.497 81.6263C878.09 80.4927 873.768 81.3754 873.574 79.4057C881.987 78.6996 881.987 78.6996 880.762 75.8657C878.8 76.3489 876.929 76.1073 875.084 75.8285C876.968 76.1537 878.903 76.6276 880.762 75.8657C879.82 75.7914 878.903 75.6892 877.91 75.6056C874.529 74.0725 869.535 75.8193 866.206 74.1654C867.69 73.9796 869.303 74.1004 870.851 74.1097C870.942 74.1097 870.993 74.1561 871.097 74.1561C874.142 74.8716 876.968 76.0701 881.484 75.4104C879.29 74.8901 877.536 74.4441 875.703 74.0167C878.555 74.0539 881.42 73.9889 884.116 73.162C885.678 72.0842 883.329 72.4837 882.697 72.205C882.8 71.9448 883.394 71.8426 883.923 71.6847C884.671 71.7311 885.149 71.982 886.026 72.0099Z" fill="#FBC02D"/>
</svg>
