<svg width="464" height="98" viewBox="0 0 464 98" fill="none" xmlns="http://www.w3.org/2000/svg">
<path d="M134.358 71.5879V50.2178H155.885V71.5879H166.626V19.9492H155.885V40.398H134.358V19.9492H123.594V71.5879H134.358ZM195.569 57.1164C195.569 61.4084 193.345 63.4982 189.817 63.4982C186.289 63.4982 184.042 61.4084 184.042 57.1164V34.4207H173.682V59.1165C173.682 67.1836 178.132 72.3519 185.704 72.3519C190.244 72.3519 194.154 70.2396 195.861 67.1836V71.5879H205.951V34.4207H195.569V57.1164ZM253.657 33.6566C249.23 33.6566 245.141 35.6341 242.781 39.3868C240.804 35.7464 237.208 33.6566 232.354 33.6566C227.86 33.6566 224.04 35.7913 222.332 38.8474V34.4207H212.243V71.5879H222.602V48.9145C222.602 44.6 224.849 42.5102 228.377 42.5102C231.905 42.5102 234.13 44.6 234.13 48.9145V71.5879H244.511V48.9145C244.511 44.6 246.758 42.5102 250.286 42.5102C253.814 42.5102 256.039 44.6 256.039 48.9145V71.5879H266.421V46.8921C266.421 38.9598 261.342 33.6566 253.657 33.6566ZM285.409 72.3518C289.296 72.3518 293.453 71.0036 295.723 67.0487V71.5878H305.723V47.9032C305.723 37.9934 300.307 33.6565 288.847 33.6565C284.128 33.6565 278.623 34.8924 275.252 36.7575L274.375 45.9258C280.488 43.0944 284.51 42.3978 288.757 42.3978C292.555 42.3978 295.296 43.6337 295.296 46.1953C295.296 48.7796 293.364 49.4537 289.768 49.7458L284.735 50.2626C277.769 50.8693 272.308 54.1725 272.308 61.2959C272.308 67.6103 277.184 72.3516 285.409 72.3516V72.3518ZM287.903 64.4195C284.667 64.4195 282.577 63.0038 282.577 60.6669C282.577 58.7793 283.768 57.5433 286.6 57.1164L289.431 56.6895C292.757 56.1727 294.757 55.5209 295.543 53.8132V57.7232C295.543 61.6332 292.869 64.4195 287.903 64.4195ZM332.216 33.6566C327.699 33.6566 323.789 35.7913 322.082 38.8474V34.4207H311.992V71.5879H322.351V48.9145C322.351 44.6 324.599 42.5102 328.126 42.5102C331.654 42.5102 333.879 44.6 333.879 48.9145V71.5879H344.261V46.8921C344.261 38.8474 339.811 33.6566 332.216 33.6566Z" fill="#20A5D6"/>
<path d="M386.124 44.4427C389.832 42.0832 391.877 38.4429 391.877 34.0386C391.877 25.6119 385.383 19.9492 373.608 19.9492H351.317V71.5879H375.945C387.742 71.5879 394.214 65.9476 394.214 56.9592C394.214 51.3415 391.383 47.0045 386.124 44.4428V44.4427ZM373.338 29.5444C378.147 29.5444 380.731 31.5668 380.731 35.0498C380.731 38.5328 378.147 40.5552 373.338 40.5552H361.968V29.5444H373.338ZM361.968 61.9926V50.1503H375.653C380.304 50.1503 383.046 52.1953 383.046 56.0602C383.046 59.9477 380.304 61.9926 375.653 61.9926H361.968ZM417.988 72.3518C429.583 72.3518 436.797 64.4644 436.797 53.0042C436.797 41.3867 429.561 33.6566 417.988 33.6566C406.416 33.6566 399.247 41.3867 399.247 53.0042C399.247 64.4644 406.416 72.3518 417.988 72.3518ZM417.988 63.7229C412.977 63.7229 410.011 59.7905 410.011 53.0042C410.011 46.3977 412.842 42.2855 417.988 42.2855C423.134 42.2855 425.988 46.3978 425.988 53.0042C425.988 59.7456 423.022 63.7229 417.988 63.7229ZM455.447 72.1271C457.851 72.1271 460.256 71.9473 462.233 71.5878L463.312 62.7566C462.031 63.1162 460.481 63.3408 459.132 63.3408C455.964 63.3408 454.638 62.3745 454.638 59.3859V43.0943H462.93V34.4204H454.638V24.286H444.279V34.4204H439.942V43.0943H444.279V61.8352C444.279 68.9585 448.459 72.127 455.447 72.127V72.1271Z" fill="#717272"/>
<path fill-rule="evenodd" clip-rule="evenodd" d="M93.781 71.5908C100.686 63.6895 104.729 53.352 104.397 42.1437C104.026 29.6439 98.2838 18.5341 89.3983 10.8633C84.9258 13.0904 81.5409 16.3735 79.8704 20.3713C79.4236 21.5377 78.9487 23.2216 78.6776 25.5162L78.6828 25.5173C78.5259 26.8868 78.2676 30.2117 78.1001 33.0906C77.8064 38.1461 72.223 39.8772 71.5971 42.7032C71.0865 45.0162 76.0285 45.7967 75.6886 49.3135C75.6886 49.3135 74.6145 50.7073 74.5431 51.1064C74.4718 51.5061 75.2721 52.2776 75.3899 52.7337C75.507 53.1917 75.0318 54.1019 75.0909 54.4877C75.151 54.8733 76.1768 55.9903 76.6478 56.4956C78.4073 58.3909 72.6694 62.3849 79.8591 65.5021C82.8444 66.7956 84.196 65.5651 88.3381 65.6343C90.1739 65.6654 92.5024 68.3787 93.7809 71.5906L93.781 71.5908Z" fill="#717272"/>
<path fill-rule="evenodd" clip-rule="evenodd" d="M1.72723 41.4707H2.97041C3.51163 41.4707 3.95409 41.0379 3.95409 40.5094V40.5086C3.95409 39.9797 3.51163 39.5469 2.97041 39.5469H1.72723C1.18641 39.5469 0.743652 39.9797 0.743652 40.5086V40.5094C0.743652 41.0379 1.18641 41.4707 1.72723 41.4707Z" fill="#20A5D6"/>
<path fill-rule="evenodd" clip-rule="evenodd" d="M5.92908 41.4707H10.3828C10.924 41.4707 11.3665 41.0379 11.3665 40.5094V40.5086C11.3665 39.9797 10.924 39.5469 10.3828 39.5469H5.92908C5.38826 39.5469 4.9458 39.9797 4.9458 40.5086V40.5094C4.9458 41.0379 5.38826 41.4707 5.92908 41.4707Z" fill="#20A5D6"/>
<path fill-rule="evenodd" clip-rule="evenodd" d="M8.44901 58.6328H10.7263C11.2674 58.6328 11.7099 59.0663 11.7099 59.5945C11.7099 60.1239 11.2674 60.557 10.7263 60.557H8.44901C7.90849 60.557 7.46533 60.1239 7.46533 59.5945C7.46533 59.0663 7.90849 58.6328 8.44901 58.6328Z" fill="#20A5D6"/>
<path fill-rule="evenodd" clip-rule="evenodd" d="M9.16272 25.5723H12.4234C12.9642 25.5723 13.4067 26.005 13.4067 26.5343V26.5346C13.4067 27.0633 12.9642 27.496 12.4234 27.496H9.16272C8.6219 27.496 8.17944 27.0633 8.17944 26.5346V26.5343C8.17944 26.005 8.6219 25.5723 9.16272 25.5723Z" fill="#20A5D6"/>
<path fill-rule="evenodd" clip-rule="evenodd" d="M44.6636 9.62492H47.6273H49.4459C49.9867 9.62492 50.4295 10.0577 50.4295 10.5867C50.4295 11.116 49.9867 11.5488 49.4459 11.5488H44.6636C44.1228 11.5488 43.6803 11.116 43.6803 10.5867C43.6803 10.0577 44.1228 9.62492 44.6636 9.62492ZM40.2693 25.5711H41.9971C42.538 25.5711 42.9804 25.1383 42.9804 24.6093C42.9804 24.0801 42.538 23.6473 41.9971 23.6473H40.2693C39.7285 23.6473 39.286 24.0801 39.286 24.6093C39.286 25.1383 39.7285 25.5711 40.2693 25.5711ZM29.6355 58.634H32.3329C32.8738 58.634 33.3163 58.2012 33.3163 57.6723C33.3163 57.143 32.8738 56.7106 32.3329 56.7106H29.6355C29.0946 56.7106 28.6519 57.143 28.6519 57.6723C28.6519 58.2012 29.0946 58.634 29.6355 58.634ZM21.8833 41.4696H32.329H34.0982C34.639 41.4696 35.0815 41.9028 35.0815 42.4321C35.0815 42.961 34.639 43.3938 34.0982 43.3938H21.8833C21.3425 43.3938 20.9 42.961 20.9 42.4321C20.9 41.9028 21.3425 41.4696 21.8833 41.4696ZM41.2469 75.4436H42.9426C43.4838 75.4436 43.9262 75.8771 43.9262 76.4059C43.9262 76.9346 43.4838 77.3681 42.9426 77.3681H41.2469C40.7057 77.3681 40.2632 76.9346 40.2632 76.4059C40.2632 75.8771 40.7057 75.4436 41.2469 75.4436ZM58.7461 0.0184265C49.8328 0.271705 41.6123 3.07866 34.7923 7.70107H31.4383C30.8971 7.70107 30.4547 8.13378 30.4547 8.66275C30.4547 9.19201 30.8971 9.62482 31.4383 9.62482H32.1643H39.8974C40.4382 9.62482 40.8811 10.0576 40.8811 10.5866C40.8811 11.1159 40.4382 11.5487 39.8974 11.5487H29.8913C26.0816 14.9999 22.8948 19.0934 20.5098 23.6473H36.6159C37.1567 23.6473 37.5995 24.0801 37.5995 24.6093C37.5995 25.1383 37.1567 25.5711 36.6159 25.5711H19.5621H16.3354C15.7945 25.5711 15.352 26.0038 15.352 26.5332V26.5335C15.352 27.0622 15.7945 27.4949 16.3354 27.4949H18.7308C17.202 31.2859 16.2039 35.3329 15.8248 39.5455H13.5821C13.0412 39.5455 12.5984 39.9786 12.5984 40.5076V40.5083C12.5984 41.0366 13.0412 41.4697 13.5821 41.4697H15.6951H18.5065C19.0473 41.4697 19.4898 41.9029 19.4898 42.4322C19.4898 42.9611 19.0473 43.3939 18.5065 43.3939H15.6522C15.6529 43.8159 15.659 44.2386 15.6713 44.6626C15.7963 48.8613 16.5286 52.9027 17.7807 56.7107H26.3238C26.865 56.7107 27.3075 57.1431 27.3075 57.6724C27.3075 58.2013 26.865 58.6341 26.3238 58.6341H18.4639H14.7114C14.1706 58.6341 13.7277 59.0677 13.7277 59.5962C13.7277 60.1252 14.1706 60.5587 14.7114 60.5587H19.2563C21.3898 65.404 24.3986 69.7853 28.0808 73.5201H26.419C25.8775 73.5201 25.4349 73.9529 25.4349 74.4819C25.4349 75.0111 25.8774 75.4436 26.419 75.4436H30.1016H37.4593C38.0004 75.4436 38.4428 75.8772 38.4428 76.406C38.4428 76.9347 38.0004 77.3682 37.4593 77.3682H32.4059C40.3193 83.532 50.4175 87.0961 61.3223 86.7868C63.2676 86.7317 65.1803 86.554 67.0526 86.2633C68.3484 88.4982 68.9069 91.2237 67.0699 97.6935C73.865 91.654 79.8131 83.9396 79.8319 74.5862C79.8513 66.1132 74.6071 61.3158 70.5677 61.2491C66.6019 61.1838 65.3062 62.3604 62.4465 61.1219C55.5607 58.1369 61.0563 54.3119 59.3697 52.4963C58.9207 52.0126 57.9376 50.9406 57.8794 50.571C57.8221 50.2013 58.2803 49.3308 58.1676 48.8932C58.0541 48.4552 57.2873 47.7167 57.3539 47.3338C57.422 46.9508 58.4508 45.6158 58.4508 45.6158C58.7779 42.247 54.0439 41.4992 54.5333 39.2857C55.1322 36.5789 60.4802 34.9196 60.7613 30.0764C60.9509 26.8467 61.2585 23.0298 61.3879 22.3238L61.398 22.277C61.4038 22.1948 61.4085 22.1133 61.4167 22.0312C62.2672 13.2362 70.9983 6.8911 82.3141 5.86282C75.4041 1.93193 67.3251 -0.225006 58.7463 0.0186275L58.7461 0.0184265Z" fill="#20A5D6"/>
</svg>
