<svg width="68" height="145" viewBox="0 0 68 145" fill="none" xmlns="http://www.w3.org/2000/svg">
<path d="M65.3797 3.05545C42.2954 12.477 24.8545 20.2817 19.5001 46.2083C16.9443 58.5833 21.7624 69.86 33.2684 75.879C54.2062 86.8321 55.2832 48.8862 36.4424 49.3221C1.90289 50.1213 0.121801 94.9088 10.6164 118.438C13.6747 125.294 17.2814 133.037 21.0366 139.459C24.2938 145.029 18.6755 139.566 16.7063 138.051C13.0583 135.244 9.02512 133.723 5.45913 130.979C-0.780841 126.178 5.62544 130.123 8.35897 132.476C16.2002 139.226 21.437 146.845 24.6255 133.268C25.2671 130.536 29.6624 116.837 27.829 117.756C22.6309 120.362 15.1745 120.714 10.4865 123.417C4.06941 127.117 -0.727034 127.229 10.2243 125.93C13.7976 125.506 17.0217 124.644 20.4919 124.071C26.2108 123.128 18.8987 125.707 18.1154 125.634C15.8401 125.422 11.3815 127.55 16.4815 126.709C17.7945 126.492 22.9151 124.818 21.5664 125.705C17.308 128.506 8.90748 127.938 12.3693 129.839C15.2786 131.436 17.2104 130.71 19.772 128.8C20.644 128.15 22.22 123.36 20.6873 124.368" stroke="#1C1C1C" stroke-width="5" stroke-linecap="round"/>
</svg>
