<svg width="178" height="160" viewBox="0 0 178 160" fill="none" xmlns="http://www.w3.org/2000/svg">
<path d="M176.491 1.58438C176.261 0.503922 175.199 -0.18588 174.119 0.0436622C173.038 0.273204 172.348 1.33517 172.578 2.41562L176.491 1.58438ZM88.3152 66.5517L88.6966 64.5884L88.3152 66.5517ZM16.2833 159.625C17.1807 160.269 18.4303 160.063 19.0742 159.166L29.5676 144.541C30.2115 143.644 30.006 142.394 29.1085 141.75C28.2111 141.106 26.9615 141.312 26.3176 142.209L16.9901 155.209L3.9902 145.882C3.09274 145.238 1.8432 145.443 1.19928 146.341C0.555349 147.238 0.76088 148.488 1.65834 149.132L16.2833 159.625ZM19.0504 153.793C19.002 152.689 18.0682 151.834 16.9646 151.882C15.8611 151.931 15.0058 152.864 15.0543 153.968L19.0504 153.793ZM15.2302 145.419C15.1501 146.521 15.9782 147.479 17.0799 147.559C18.1815 147.639 19.1396 146.811 19.2197 145.709L15.2302 145.419ZM20.1352 137.561C20.298 136.469 19.5443 135.451 18.4518 135.288C17.3593 135.126 16.3417 135.879 16.1789 136.972L20.1352 137.561ZM17.694 128.656C17.4619 129.736 18.1493 130.8 19.2292 131.032C20.3091 131.264 21.3727 130.576 21.6047 129.497L17.694 128.656ZM23.5749 121.532C23.8732 120.468 23.2528 119.364 22.1893 119.066C21.1258 118.768 20.0218 119.388 19.7235 120.452L23.5749 121.532ZM22.2641 112.389C21.898 113.431 22.446 114.573 23.4881 114.939C24.5302 115.305 25.6718 114.757 26.038 113.715L22.2641 112.389ZM29.0175 106.092C29.4565 105.079 28.9907 103.901 27.9771 103.462C26.9635 103.023 25.7859 103.489 25.3469 104.503L29.0175 106.092ZM29.0257 96.8514C28.5063 97.8262 28.8755 99.0375 29.8503 99.557C30.8251 100.076 32.0364 99.7072 32.5559 98.7324L29.0257 96.8514ZM36.709 91.7348C37.3184 90.8136 37.0657 89.5728 36.1445 88.9633C35.2232 88.3539 33.9824 88.6066 33.3729 89.5278L36.709 91.7348ZM38.4754 82.667C37.7656 83.5133 37.8764 84.7748 38.7227 85.4846C39.5691 86.1943 40.8306 86.0836 41.5403 85.2372L38.4754 82.667ZM47.1068 79.4245C47.9248 78.6823 47.9862 77.4174 47.2439 76.5994C46.5017 75.7814 45.2368 75.7201 44.4188 76.4623L47.1068 79.4245ZM51.2505 71.1757C50.3245 71.7777 50.0618 73.0165 50.6639 73.9426C51.266 74.8687 52.5048 75.1313 53.4308 74.5292L51.2505 71.1757ZM60.462 70.8004C61.481 70.3742 61.9616 69.2026 61.5353 68.1835C61.1091 67.1645 59.9375 66.684 58.9185 67.1102L60.462 70.8004ZM67.2082 64.5232C66.1277 64.7525 65.4376 65.8142 65.6668 66.8948C65.8961 67.9753 66.9579 68.6653 68.0384 68.4361L67.2082 64.5232ZM75.9292 67.4924C77.0332 67.457 77.8995 66.5334 77.8641 65.4294C77.8288 64.3254 76.9052 63.4591 75.8012 63.4944L75.9292 67.4924ZM84.421 63.9064C83.3249 63.7704 82.326 64.5487 82.19 65.6449C82.054 66.7411 82.8324 67.7399 83.9285 67.8759L84.421 63.9064ZM92.0366 69.2493C93.1266 69.4275 94.1548 68.6883 94.3331 67.5982C94.5113 66.5081 93.7721 65.4799 92.682 65.3017L92.0366 69.2493ZM100.668 66.351C99.5685 66.2428 98.5896 67.0462 98.4814 68.1454C98.3732 69.2447 99.1766 70.2235 100.276 70.3317L100.668 66.351ZM108.576 70.8582C109.68 70.8884 110.6 70.0178 110.63 68.9136C110.66 67.8094 109.79 66.8899 108.685 66.8597L108.576 70.8582ZM116.718 66.7674C115.615 66.8246 114.767 67.7652 114.824 68.8683C114.881 69.9714 115.822 70.8192 116.925 70.762L116.718 66.7674ZM125.243 69.967C126.337 69.8124 127.098 68.8005 126.943 67.7068C126.789 66.6131 125.777 65.8518 124.683 66.0064L125.243 69.967ZM132.517 64.5051C131.444 64.768 130.788 65.8508 131.051 66.9237C131.313 67.9965 132.396 68.6531 133.469 68.3902L132.517 64.5051ZM141.508 65.9419C142.545 65.5598 143.075 64.41 142.693 63.3736C142.311 62.3372 141.161 61.8067 140.125 62.1887L141.508 65.9419ZM147.376 58.9893C146.396 59.4999 146.016 60.7078 146.527 61.6873C147.037 62.6668 148.245 63.0469 149.225 62.5363L147.376 58.9893ZM156.437 58.1085C157.334 57.4639 157.539 56.2142 156.894 55.3172C156.249 54.4202 155 54.2156 154.103 54.8602L156.437 58.1085ZM160.113 49.7943C159.328 50.5709 159.321 51.8372 160.098 52.6226C160.874 53.408 162.141 53.4151 162.926 52.6385L160.113 49.7943ZM168.457 46.1762C169.102 45.2795 168.898 44.0298 168.001 43.3848C167.105 42.7398 165.855 42.9439 165.21 43.8406L168.457 46.1762ZM169.219 37.1154C168.737 38.1093 169.152 39.3056 170.146 39.7875C171.14 40.2694 172.336 39.8543 172.818 38.8604L169.219 37.1154ZM175.867 30.9149C176.174 29.8541 175.564 28.7446 174.503 28.4369C173.442 28.1292 172.333 28.7397 172.025 29.8006L175.867 30.9149ZM173.598 22.1007C173.463 23.1969 174.242 24.1954 175.338 24.331C176.434 24.4665 177.433 23.6877 177.568 22.5915L173.598 22.1007ZM177.985 14.1299C177.961 13.0256 177.046 12.1501 175.942 12.1744C174.837 12.1987 173.962 13.1136 173.986 14.2179L177.985 14.1299ZM173.291 6.32734C173.457 7.41937 174.477 8.17007 175.569 8.00408C176.661 7.83808 177.412 6.81826 177.246 5.72623L173.291 6.32734ZM19.4227 157.675C19.2435 156.586 19.1159 155.285 19.0504 153.793L15.0543 153.968C15.1249 155.578 15.2648 157.042 15.4757 158.325L19.4227 157.675ZM19.2197 145.709C19.4035 143.183 19.7053 140.447 20.1352 137.561L16.1789 136.972C15.7351 139.951 15.4217 142.787 15.2302 145.419L19.2197 145.709ZM21.6047 129.497C22.164 126.894 22.819 124.227 23.5749 121.532L19.7235 120.452C18.9446 123.229 18.2701 125.976 17.694 128.656L21.6047 129.497ZM26.038 113.715C26.9364 111.158 27.9282 108.607 29.0175 106.092L25.3469 104.503C24.2178 107.11 23.1919 109.749 22.2641 112.389L26.038 113.715ZM32.5559 98.7324C33.8392 96.324 35.2223 93.9821 36.709 91.7348L33.3729 89.5278C31.8109 91.889 30.3636 94.3405 29.0257 96.8514L32.5559 98.7324ZM41.5403 85.2372C43.2836 83.1584 45.1378 81.2113 47.1068 79.4245L44.4188 76.4623C42.3046 78.3809 40.3254 80.4608 38.4754 82.667L41.5403 85.2372ZM53.4308 74.5292C55.6511 73.0857 57.9931 71.8331 60.462 70.8004L58.9185 67.1102C56.217 68.2402 53.6626 69.6075 51.2505 71.1757L53.4308 74.5292ZM68.0384 68.4361C70.547 67.9038 73.1755 67.5805 75.9292 67.4924L75.8012 63.4944C72.8149 63.59 69.9514 63.9411 67.2082 64.5232L68.0384 68.4361ZM83.9285 67.8759C85.2378 68.0384 86.5727 68.2506 87.9338 68.515L88.6966 64.5884C87.2482 64.307 85.8231 64.0803 84.421 63.9064L83.9285 67.8759ZM87.9338 68.515C89.3129 68.7829 90.6806 69.0276 92.0366 69.2493L92.682 65.3017C91.3658 65.0865 90.0372 64.8489 88.6966 64.5884L87.9338 68.515ZM100.276 70.3317C103.101 70.6099 105.869 70.7842 108.576 70.8582L108.685 66.8597C106.075 66.7884 103.402 66.6202 100.668 66.351L100.276 70.3317ZM116.925 70.762C119.778 70.6141 122.552 70.3475 125.243 69.967L124.683 66.0064C122.113 66.3698 119.456 66.6254 116.718 66.7674L116.925 70.762ZM133.469 68.3902C136.259 67.7066 138.941 66.8884 141.508 65.9419L140.125 62.1887C137.703 63.0813 135.166 63.8561 132.517 64.5051L133.469 68.3902ZM149.225 62.5363C151.779 61.2047 154.186 59.7258 156.437 58.1085L154.103 54.8602C152.011 56.363 149.767 57.7427 147.376 58.9893L149.225 62.5363ZM162.926 52.6385C164.962 50.6249 166.809 48.4669 168.457 46.1762L165.21 43.8406C163.695 45.947 161.993 47.9352 160.113 49.7943L162.926 52.6385ZM172.818 38.8604C174.048 36.3242 175.067 33.6715 175.867 30.9149L172.025 29.8006C171.288 32.3427 170.349 34.7842 169.219 37.1154L172.818 38.8604ZM177.568 22.5915C177.908 19.845 178.049 17.0211 177.985 14.1299L173.986 14.2179C174.046 16.9216 173.913 19.5519 173.598 22.1007L177.568 22.5915ZM177.246 5.72623C177.038 4.3572 176.786 2.97628 176.491 1.58438L172.578 2.41562C172.858 3.73266 173.095 5.03684 173.291 6.32734L177.246 5.72623Z" fill="white"/>
</svg>
