<svg width="356" height="76" viewBox="0 0 356 76" fill="none" xmlns="http://www.w3.org/2000/svg">
<path d="M102.832 55.406V38.9593H119.4V55.406H127.666V15.6641H119.4V31.4017H102.832V15.6641H94.5479V55.406H102.832ZM149.941 44.2686C149.941 47.5717 148.229 49.1801 145.514 49.1801C142.798 49.1801 141.069 47.5717 141.069 44.2686V26.8015H133.096V45.8078C133.096 52.0164 136.521 55.994 142.349 55.994C145.842 55.994 148.851 54.3684 150.166 52.0164V55.406H157.931V26.8015H149.941V44.2686ZM194.646 26.2135C191.239 26.2135 188.092 27.7354 186.276 30.6235C184.754 27.8218 181.987 26.2135 178.251 26.2135C174.793 26.2135 171.853 27.8564 170.538 30.2084V26.8015H162.773V55.406H170.746V37.9562C170.746 34.6357 172.475 33.0273 175.19 33.0273C177.906 33.0273 179.618 34.6357 179.618 37.9562V55.406H187.608V37.9562C187.608 34.6357 189.337 33.0273 192.052 33.0273C194.767 33.0273 196.479 34.6357 196.479 37.9562V55.406H204.469V36.3997C204.469 30.2949 200.561 26.2135 194.646 26.2135ZM219.083 55.994C222.075 55.994 225.274 54.9563 227.021 51.9125V55.4059H234.717V37.1779C234.717 29.5511 230.549 26.2134 221.729 26.2134C218.097 26.2134 213.86 27.1646 211.266 28.6L210.592 35.656C215.296 33.477 218.391 32.9408 221.66 32.9408C224.582 32.9408 226.692 33.892 226.692 35.8635C226.692 37.8524 225.205 38.3712 222.438 38.596L218.564 38.9937C213.203 39.4606 209 42.0029 209 47.4851C209 52.3448 212.753 55.9938 219.083 55.9938V55.994ZM221.003 49.8891C218.512 49.8891 216.904 48.7996 216.904 47.001C216.904 45.5483 217.82 44.5971 220 44.2686L222.179 43.9399C224.738 43.5422 226.277 43.0406 226.883 41.7263V44.7355C226.883 47.7447 224.825 49.8891 221.003 49.8891ZM255.107 26.2135C251.631 26.2135 248.621 27.8564 247.307 30.2084V26.8015H239.542V55.406H247.515V37.9562C247.515 34.6357 249.244 33.0273 251.959 33.0273C254.674 33.0273 256.386 34.6357 256.386 37.9562V55.406H264.376V36.3997C264.376 30.2084 260.952 26.2135 255.107 26.2135Z" fill="white"/>
<path d="M296.595 34.5146C299.449 32.6987 301.023 29.8971 301.023 26.5075C301.023 20.0221 296.025 15.6641 286.962 15.6641H269.807V55.406H288.761C297.84 55.406 302.821 51.0652 302.821 44.1476C302.821 39.8241 300.642 36.4862 296.595 34.5147V34.5146ZM286.755 23.0486C290.456 23.0486 292.445 24.6051 292.445 27.2857C292.445 29.9663 290.456 31.5227 286.755 31.5227H278.004V23.0486H286.755ZM278.004 48.0214V38.9073H288.536C292.116 38.9073 294.226 40.4811 294.226 43.4557C294.226 46.4476 292.116 48.0214 288.536 48.0214H278.004ZM321.118 55.994C330.042 55.994 335.593 49.9237 335.593 41.1037C335.593 32.1627 330.025 26.2135 321.118 26.2135C312.212 26.2135 306.695 32.1627 306.695 41.1037C306.695 49.9237 312.212 55.994 321.118 55.994ZM321.118 49.353C317.262 49.353 314.979 46.3265 314.979 41.1037C314.979 36.0192 317.158 32.8545 321.118 32.8545C325.079 32.8545 327.275 36.0193 327.275 41.1037C327.275 46.292 324.992 49.353 321.118 49.353ZM349.947 55.821C351.798 55.821 353.648 55.6827 355.17 55.4059L356 48.6093C355.014 48.886 353.821 49.0589 352.783 49.0589C350.345 49.0589 349.324 48.3153 349.324 46.0152V33.4769H355.706V26.8014H349.324V19.0017H341.352V26.8014H338.014V33.4769H341.352V47.9002C341.352 53.3824 344.569 55.8209 349.947 55.8209V55.821Z" fill="white"/>
<path fill-rule="evenodd" clip-rule="evenodd" d="M71.6031 55.4068C76.9175 49.3258 80.0291 41.3699 79.7734 32.7439C79.4874 23.1238 75.0685 14.5735 68.2301 8.66992C64.788 10.384 62.1829 12.9107 60.8972 15.9875C60.5534 16.8852 60.1879 18.1811 59.9793 19.947L59.9832 19.9479C59.8625 21.0019 59.6637 23.5608 59.5348 25.7764C59.3087 29.6672 55.0117 30.9995 54.53 33.1745C54.137 34.9545 57.9405 35.5553 57.6789 38.2618C57.6789 38.2618 56.8522 39.3345 56.7973 39.6417C56.7424 39.9493 57.3583 40.543 57.449 40.8941C57.5391 41.2466 57.1734 41.947 57.2188 42.244C57.2651 42.5408 58.0546 43.4004 58.4171 43.7893C59.7712 45.248 55.3552 48.3218 60.8886 50.7208C63.1861 51.7164 64.2263 50.7693 67.4141 50.8226C68.827 50.8465 70.619 52.9347 71.603 55.4067L71.6031 55.4068Z" fill="white"/>
<path fill-rule="evenodd" clip-rule="evenodd" d="M0.756976 32.2257H1.71375C2.13028 32.2257 2.4708 31.8926 2.4708 31.4859V31.4853C2.4708 31.0782 2.13028 30.7451 1.71375 30.7451H0.756976C0.340755 30.7451 0 31.0782 0 31.4853V31.4859C0 31.8926 0.340755 32.2257 0.756976 32.2257Z" fill="white"/>
<path fill-rule="evenodd" clip-rule="evenodd" d="M3.99088 32.2257H7.41853C7.83506 32.2257 8.17558 31.8926 8.17558 31.4859V31.4853C8.17558 31.0782 7.83506 30.7451 7.41853 30.7451H3.99088C3.57465 30.7451 3.23413 31.0782 3.23413 31.4853V31.4859C3.23413 31.8926 3.57465 32.2257 3.99088 32.2257Z" fill="white"/>
<path fill-rule="evenodd" clip-rule="evenodd" d="M5.93015 45.4346H7.68279C8.09925 45.4346 8.43977 45.7682 8.43977 46.1747C8.43977 46.5821 8.09925 46.9154 7.68279 46.9154H5.93015C5.51416 46.9154 5.1731 46.5821 5.1731 46.1747C5.1731 45.7682 5.51416 45.4346 5.93015 45.4346Z" fill="white"/>
<path fill-rule="evenodd" clip-rule="evenodd" d="M6.47964 19.9902H8.98911C9.40533 19.9902 9.74585 20.3233 9.74585 20.7307V20.7309C9.74585 21.1378 9.40533 21.4708 8.98911 21.4708H6.47964C6.06342 21.4708 5.7229 21.1378 5.7229 20.7309V20.7307C5.7229 20.3233 6.06342 19.9902 6.47964 19.9902Z" fill="white"/>
<path fill-rule="evenodd" clip-rule="evenodd" d="M33.8017 7.71707H36.0826H37.4822C37.8985 7.71707 38.2392 8.05017 38.2392 8.45726C38.2392 8.86459 37.8985 9.19769 37.4822 9.19769H33.8017C33.3854 9.19769 33.0449 8.86459 33.0449 8.45726C33.0449 8.05017 33.3854 7.71707 33.8017 7.71707ZM30.4198 19.9895H31.7495C32.1658 19.9895 32.5063 19.6564 32.5063 19.2493C32.5063 18.842 32.1658 18.5089 31.7495 18.5089H30.4198C30.0036 18.5089 29.663 18.842 29.663 19.2493C29.663 19.6564 30.0036 19.9895 30.4198 19.9895ZM22.2358 45.4353H24.3118C24.7281 45.4353 25.0686 45.1022 25.0686 44.6951C25.0686 44.2878 24.7281 43.955 24.3118 43.955H22.2358C21.8196 43.955 21.4788 44.2878 21.4788 44.6951C21.4788 45.1022 21.8196 45.4353 22.2358 45.4353ZM16.2696 32.2252H24.3088H25.6704C26.0866 32.2252 26.4271 32.5586 26.4271 32.966C26.4271 33.3731 26.0866 33.7062 25.6704 33.7062H16.2696C15.8534 33.7062 15.5128 33.3731 15.5128 32.966C15.5128 32.5586 15.8534 32.2252 16.2696 32.2252ZM31.1721 58.3722H32.4771C32.8937 58.3722 33.2342 58.7058 33.2342 59.1128C33.2342 59.5197 32.8937 59.8533 32.4771 59.8533H31.1721C30.7556 59.8533 30.4151 59.5197 30.4151 59.1128C30.4151 58.7058 30.7556 58.3722 31.1721 58.3722ZM44.6398 0.323752C37.78 0.518679 31.4533 2.67896 26.2046 6.23644H23.6233C23.2068 6.23644 22.8663 6.56946 22.8663 6.97656C22.8663 7.38389 23.2068 7.71699 23.6233 7.71699H24.182H30.1335C30.5498 7.71699 30.8906 8.05009 30.8906 8.45719C30.8906 8.86452 30.5498 9.19762 30.1335 9.19762H22.4327C19.5007 11.8538 17.0481 15.0041 15.2125 18.5089H27.6081C28.0243 18.5089 28.365 18.842 28.365 19.2493C28.365 19.6564 28.0243 19.9895 27.6081 19.9895H14.4832H11.9998C11.5835 19.9895 11.243 20.3225 11.243 20.7299V20.7302C11.243 21.137 11.5835 21.4701 11.9998 21.4701H13.8434C12.6668 24.3877 11.8986 27.5024 11.6069 30.7445H9.88083C9.46461 30.7445 9.12378 31.0778 9.12378 31.4849V31.4854C9.12378 31.892 9.46461 32.2253 9.88083 32.2253H11.5071H13.6707C14.087 32.2253 14.4275 32.5587 14.4275 32.9661C14.4275 33.3731 14.087 33.7062 13.6707 33.7062H11.474C11.4746 34.031 11.4793 34.3563 11.4887 34.6827C11.5849 37.914 12.1485 41.0243 13.1122 43.955H19.6871C20.1036 43.955 20.4442 44.2878 20.4442 44.6952C20.4442 45.1023 20.1036 45.4354 19.6871 45.4354H13.638H10.75C10.3338 45.4354 9.99295 45.769 9.99295 46.1758C9.99295 46.5829 10.3338 46.9165 10.75 46.9165H14.2478C15.8898 50.6456 18.2054 54.0175 21.0393 56.8918H19.7603C19.3436 56.8918 19.003 57.2249 19.003 57.632C19.003 58.0394 19.3435 58.3722 19.7603 58.3722H22.5946H28.2571C28.6736 58.3722 29.0141 58.7059 29.0141 59.1129C29.0141 59.5198 28.6736 59.8534 28.2571 59.8534H24.368C30.4582 64.5971 38.23 67.3401 46.6225 67.1021C48.1196 67.0597 49.5917 66.923 51.0327 66.6992C52.0299 68.4192 52.4597 70.5168 51.0459 75.4961C56.2756 70.848 60.8533 64.9108 60.8678 57.7123C60.8827 51.1914 56.8467 47.4992 53.7379 47.4479C50.6858 47.3976 49.6886 48.3031 47.4877 47.35C42.1883 45.0527 46.4178 42.1089 45.1197 40.7116C44.7742 40.3393 44.0176 39.5143 43.9728 39.2299C43.9287 38.9453 44.2813 38.2753 44.1946 37.9386C44.1072 37.6015 43.5171 37.0332 43.5684 36.7384C43.6208 36.4437 44.4126 35.4162 44.4126 35.4162C44.6643 32.8235 41.0209 32.248 41.3976 30.5445C41.8585 28.4613 45.9744 27.1843 46.1907 23.4568C46.3366 20.9713 46.5734 18.0337 46.673 17.4903L46.6808 17.4543C46.6852 17.3911 46.6888 17.3283 46.6952 17.2652C47.3497 10.4964 54.0693 5.61307 62.7782 4.82169C57.4601 1.79641 51.2424 0.136402 44.64 0.323906L44.6398 0.323752Z" fill="white"/>
</svg>
