<svg width="626" height="47" viewBox="0 0 626 47" fill="none" xmlns="http://www.w3.org/2000/svg">
<path d="M186.242 45.7129C186.437 45.6601 186.557 45.6073 186.455 45.5508C186.474 45.5508 186.511 45.5508 186.557 45.5508C186.557 45.6073 186.557 45.6639 186.557 45.7129C186.446 45.7129 186.353 45.7129 186.242 45.7129ZM161.633 45.924C161.652 45.924 161.67 45.924 161.707 45.924C161.707 45.9315 161.698 45.9315 161.707 45.9315C161.698 45.9315 161.661 45.9315 161.633 45.9315C161.633 45.9315 161.633 45.9315 161.633 45.924ZM20.4067 37.4051C20.2954 37.4202 20.4252 37.4428 20.3603 37.4616C20.2954 37.4428 20.2954 37.4202 20.2212 37.4051C20.2676 37.4051 20.3417 37.4051 20.4067 37.4051ZM10.7356 11.415C10.7356 11.4602 10.7356 11.4602 10.7356 11.5168C10.578 11.4715 10.578 11.4715 10.4575 11.4527C10.5687 11.4376 10.6336 11.415 10.7356 11.415ZM10.6522 8.98748C10.6429 8.98748 10.68 8.99879 10.6522 8.99879C10.6151 8.99879 10.578 8.99879 10.5409 8.99879C10.5687 8.98748 10.6058 8.98748 10.6522 8.98748ZM10.7913 6.44312C10.7634 6.44312 10.7449 6.45819 10.6893 6.45819L10.2998 6.39412C10.3833 6.42051 10.6429 6.42051 10.7913 6.44312ZM27.6483 5.2633C27.6483 5.27837 27.6112 5.27837 27.6112 5.29345C27.5371 5.29345 27.4536 5.29345 27.3423 5.29345C27.4073 5.27837 27.5649 5.27837 27.6483 5.2633ZM119.481 2.02537C119.259 1.90098 119.778 2.03668 119.407 2.10453C119.342 2.10453 119.268 2.10453 119.212 2.10453C119.444 2.09322 119.574 2.08191 119.481 2.02537ZM166.863 1.5165C167.41 1.5165 168.013 1.49011 168.541 1.5165C167.938 1.50142 167.336 1.5165 166.724 1.5165C166.77 1.5165 166.798 1.5165 166.863 1.5165ZM359.625 0.815393C359.625 0.845548 359.541 0.860615 359.588 0.887001H359.542C359.542 0.887001 359.542 0.887001 359.523 0.887001C359.542 0.887001 359.542 0.887001 359.542 0.887001C359.542 0.860615 359.588 0.83047 359.625 0.815393ZM586.481 27.5141C586.509 27.5141 586.583 27.5141 586.62 27.5141C586.444 27.5292 586.444 27.5707 586.222 27.5858C586.379 27.5707 586.361 27.5292 586.481 27.5141ZM586.889 32.5275C586.843 32.5162 586.797 32.5162 586.778 32.5162C586.834 32.5162 586.889 32.5086 586.936 32.5086L586.889 32.5275C586.908 32.5162 586.936 32.5162 586.982 32.5162C586.982 32.5275 586.945 32.5162 586.908 32.5275H586.889ZM577.181 34.8946C577.218 34.8946 577.283 34.8946 577.348 34.8946C577.348 34.906 577.385 34.906 577.385 34.9173C577.348 34.906 577.218 34.906 577.181 34.8946ZM545.386 39.2898C545.312 39.2898 545.275 39.2898 545.247 39.2898C545.275 39.2898 545.349 39.2898 545.386 39.2898ZM493.768 42.7124C493.786 42.7124 493.879 42.7124 493.907 42.7124C493.907 42.7652 493.907 42.833 493.925 42.8896C493.907 42.8896 493.907 42.8896 493.907 42.8896C494.036 42.833 493.925 42.7652 493.768 42.7124ZM492.887 43.3155V43.3306H492.914C492.887 43.3306 492.887 43.3306 492.887 43.3306C492.887 43.3155 492.887 43.3306 492.887 43.3155ZM485.422 43.1798C485.562 43.1798 485.654 43.1798 485.793 43.1798C485.719 43.1874 485.793 43.21 485.747 43.2251C485.654 43.2251 485.589 43.2326 485.478 43.2326C485.478 43.2251 485.422 43.1874 485.422 43.1798ZM474.5 43.1798C474.5 43.1874 474.5 43.1874 474.5 43.21C474.463 43.21 474.5 43.1911 474.463 43.1911L474.5 43.1836V43.1798ZM435.806 44.0016C435.769 43.9563 435.695 43.9224 435.602 43.8809C435.676 43.8809 435.732 43.8922 435.806 43.8922L435.695 43.8093C435.76 43.8093 435.862 43.8093 435.955 43.8093C435.936 43.8357 435.853 43.8659 435.797 43.8922C435.797 43.9224 435.797 43.9563 435.797 44.0016H435.806ZM393.886 43.2062C393.997 43.2062 394.099 43.2062 394.192 43.2062C394.137 43.3118 394.109 43.4324 394.062 43.5455C394.711 43.4248 394.257 43.3155 393.886 43.2062ZM265.14 44.8949C265.001 44.8723 264.825 44.8384 264.658 44.8157C264.89 44.8271 264.964 44.8723 265.14 44.8949ZM243.369 44.8271C243.378 44.8271 243.396 44.8271 243.424 44.8271C243.424 44.8271 243.434 44.8271 243.434 44.8384C243.424 44.8384 243.378 44.8271 243.369 44.8271ZM221.236 45.0193C221.375 45.0193 221.523 45.0193 221.653 45.0344C221.579 45.0344 221.495 45.0344 221.449 45.0344H221.273C221.264 45.0344 221.264 45.0193 221.236 45.0193ZM27.3331 43.1798C27.4722 43.1346 27.704 43.1346 27.8801 43.112C28.4736 43.2778 29.373 43.3419 30.5135 43.3306C30.5042 43.3419 30.4671 43.3419 30.4486 43.357C29.4008 43.2854 28.3716 43.2288 27.3423 43.176L27.3331 43.1798ZM26.0071 43.6171C25.9979 43.6171 25.9979 43.6171 25.9886 43.6171C25.9886 43.6171 25.9979 43.6171 26.0071 43.6171ZM14.0273 21.5057C14.018 21.5057 14.0273 21.5057 14.018 21.5057C13.5266 21.4416 12.7663 21.3738 12.7941 21.3587C12.8126 21.2758 12.4139 21.2607 12.4046 21.1815C12.9424 21.2908 13.4246 21.4115 14.0366 21.5057H14.0273ZM27.7874 5.80232C27.1105 5.77593 26.6006 5.68924 26.2111 5.56862C26.4986 5.71939 27.2496 5.7307 27.7874 5.80232ZM212.863 1.14709H212.872H212.863ZM398.253 1.12071C398.43 1.10564 398.698 1.07548 398.828 1.04909C398.828 1.07548 398.856 1.08302 398.791 1.12071C398.615 1.12071 398.457 1.12071 398.253 1.12071ZM468.667 1.12071C468.63 1.12071 468.63 1.12071 468.575 1.12071C468.621 1.12071 468.667 1.12071 468.695 1.12071C468.667 1.12071 468.667 1.12071 468.667 1.12071ZM473.22 3.60476C473.146 3.59345 473.183 3.55953 473.146 3.54822C473.313 3.54822 473.489 3.57459 473.647 3.57459C473.508 3.58967 473.35 3.58967 473.211 3.60098L473.22 3.60476ZM555.048 3.90253C554.974 3.93269 555.076 3.95154 555.048 3.95908C554.974 3.95154 554.918 3.93646 554.835 3.91384C554.918 3.91384 554.974 3.90253 555.048 3.90253ZM565.174 10.0052C565.155 9.9939 565.09 9.97883 565.044 9.95998C565.174 9.97506 565.313 9.97506 565.452 9.97506C565.396 9.99014 565.257 9.99014 565.164 10.0015L565.174 10.0052ZM570.06 18.4525C570.06 18.4525 570.088 18.4525 570.088 18.4449C570.107 18.4525 570.153 18.4525 570.153 18.4525C570.107 18.4525 570.088 18.4525 570.051 18.4525H570.06ZM590.839 26.4926C590.839 26.5077 590.867 26.519 590.867 26.5341C590.839 26.5341 590.839 26.5341 590.839 26.5341C590.812 26.5341 590.774 26.5341 590.728 26.5341C590.802 26.5228 590.765 26.5115 590.839 26.4926ZM585.369 31.8527C585.341 31.8527 585.341 31.864 585.304 31.864C585.341 31.8527 585.341 31.8527 585.369 31.8527ZM571.377 35.5355C571.349 35.5204 571.266 35.5091 571.21 35.5091C571.312 35.5015 571.442 35.5015 571.571 35.5015C571.571 35.5091 571.395 35.5204 571.377 35.5392V35.5355ZM518.849 42.4787C518.914 42.4787 518.988 42.4787 519.072 42.4787C518.988 42.4787 518.914 42.4787 518.849 42.4863C518.849 42.4787 518.849 42.4787 518.849 42.4787ZM466.525 42.8067C466.386 42.7916 466.247 42.7765 466.145 42.7539C466.257 42.7539 466.386 42.7539 466.498 42.7539C466.461 42.7614 466.525 42.7727 466.525 42.8067ZM421.907 43.3984C421.907 43.4135 421.907 43.4135 421.907 43.4286C421.907 43.4173 421.87 43.4173 421.842 43.3984C421.87 43.3984 421.907 43.3984 421.907 43.3984ZM406.867 42.49C406.84 42.5013 406.812 42.5164 406.765 42.5164C406.765 42.5164 406.765 42.5013 406.728 42.49C406.802 42.49 406.84 42.49 406.867 42.49ZM185.176 44.3333C185.12 44.3483 185.101 44.3483 185.037 44.3596C185.055 44.3483 185.037 44.3483 185.037 44.3333C185.092 44.3333 185.148 44.3333 185.176 44.3333ZM82.9113 41.7776C82.8928 41.7889 82.8186 41.7889 82.7815 41.804C82.763 41.7889 82.7537 41.7889 82.7073 41.7889C82.8 41.7889 82.8279 41.7776 82.9021 41.7776H82.9113ZM43.9491 42.9499C44.0974 42.9499 44.2365 42.9499 44.3849 42.9499C44.0881 43.014 43.6802 43.0818 43.9676 43.1798C43.9676 43.0969 43.9583 43.0253 43.9583 42.9499H43.9491ZM33.9442 35.9916C34.0833 35.9916 34.1575 36.0217 34.2966 36.0217C34.3059 36.0217 34.3059 36.0217 34.3059 36.0217C34.3059 36.0217 34.3059 36.0217 34.2966 36.0217C34.2688 36.033 34.1575 36.0217 34.139 36.033C34.0833 36.0217 33.9813 36.0066 33.9442 35.9878V35.9916ZM41.2323 34.4009C41.2323 34.4159 41.2323 34.4009 41.2323 34.4159C41.2044 34.4159 41.1581 34.4159 41.1303 34.4159C41.1303 34.4159 41.121 34.4159 41.121 34.4009C41.1488 34.4159 41.1859 34.4009 41.2323 34.4009ZM28.7425 6.68436H28.7239C28.7239 6.68436 28.7239 6.68436 28.7425 6.68436H28.7239C28.7425 6.68436 28.7517 6.68436 28.761 6.68436C28.7517 6.68436 28.7517 6.68436 28.7425 6.68436ZM93.797 3.7593C93.3612 3.88369 93.3705 4.01939 93.8248 4.13624C93.797 4.13624 93.797 4.13624 93.797 4.13624C93.797 4.01562 93.797 3.87992 93.797 3.7593ZM96.5509 3.68768C96.5972 3.67261 96.6622 3.66506 96.6992 3.64999C96.7085 3.6613 96.6714 3.66129 96.69 3.66883C96.6343 3.66883 96.6065 3.68391 96.5509 3.68391V3.68768ZM353.969 1.43734C353.969 1.42604 353.932 1.42604 353.932 1.42604C353.969 1.42604 354.043 1.42604 354.062 1.42604C354.043 1.42604 354.015 1.43734 353.969 1.43734ZM556.198 4.84488C556.152 4.84488 556.105 4.84489 556.078 4.83358C556.105 4.83358 556.142 4.84488 556.198 4.84488ZM563.115 10.6309C563.115 10.6309 563.115 10.6309 563.115 10.6159C563.143 10.6309 563.18 10.6309 563.226 10.6309C563.189 10.6422 563.152 10.6309 563.115 10.6309ZM577.172 18.7126C577.098 18.7201 577.033 18.7389 576.977 18.7465C576.977 18.7389 576.977 18.7201 576.977 18.7126C577.033 18.7126 577.107 18.7126 577.172 18.7126ZM582.559 21.468C582.587 21.468 582.606 21.4529 582.643 21.4529L582.606 21.468C582.587 21.468 582.587 21.468 582.559 21.468ZM570.051 23.0926C570.153 23.0775 570.273 23.0775 570.375 23.0625L570.348 23.0738C570.236 23.0738 570.153 23.0889 570.051 23.0889V23.0926ZM552.137 31.4042C552.1 31.4042 552.063 31.4042 552.063 31.4042C552.063 31.4042 552.1 31.4042 552.137 31.4042ZM551.488 36.1348C551.46 36.0632 551.312 35.9803 550.904 35.8822C551.256 35.9765 551.553 36.0782 551.488 36.1348ZM505.024 42.3996L504.848 42.343L504.904 42.2865C504.931 42.3279 504.978 42.3656 505.024 42.3996L505.07 42.4674C504.978 42.441 504.848 42.4222 504.737 42.4109C504.811 42.3996 504.904 42.3996 505.024 42.3996ZM501.018 42.4222C501.018 42.4372 501.018 42.4373 501.018 42.4523C500.963 42.4523 500.916 42.4372 500.879 42.4372C500.916 42.4372 500.954 42.4222 501.018 42.4222ZM449.233 43.1798C449.233 43.1798 449.205 43.1798 449.177 43.1874C449.177 43.1798 449.205 43.1798 449.205 43.1685C449.205 43.1798 449.233 43.1798 449.233 43.1798ZM428.889 42.9047C428.926 42.9047 428.926 42.9047 428.963 42.9047C428.889 42.916 428.889 42.931 428.852 42.931C428.852 42.916 428.88 42.916 428.88 42.9047H428.889ZM362.138 42.8632C362.166 42.8632 362.166 42.8632 362.203 42.8632V42.8745C362.166 42.8745 362.166 42.8745 362.166 42.8745L362.138 42.8632ZM185.63 42.9461C185.482 42.9461 185.315 42.9461 185.157 42.9461C185.287 42.9461 185.426 42.9461 185.565 42.931C185.584 42.9461 185.593 42.9461 185.621 42.9461H185.63ZM41.2972 28.1738C42.178 28.2379 43.0496 28.3246 43.9491 28.3924C43.8285 28.4188 43.6616 28.4075 43.5503 28.4301C43.0775 28.2831 42.5768 28.1323 41.3064 28.1738H41.2972ZM63.1427 5.4216C62.7719 5.4103 62.4566 5.42161 62.0764 5.4103C62.54 5.39522 62.7533 5.39522 63.1427 5.37637C63.1613 5.39522 63.1335 5.42538 63.1427 5.42538V5.4216ZM193.892 3.84223C194.077 3.81208 194.123 3.78569 194.3 3.77061C194.337 3.78569 194.179 3.82715 194.235 3.84223C194.123 3.85354 194.031 3.84223 193.892 3.84223ZM329.24 2.75286C329.24 2.76794 329.277 2.77926 329.277 2.79433C329.175 2.78303 329.24 2.78302 329.138 2.77171C329.175 2.75663 329.202 2.77172 329.24 2.75664V2.75286ZM367.404 1.2074C367.293 1.19233 367.238 1.16971 367.154 1.16971C367.432 1.16971 367.738 1.16971 368.035 1.16971C367.849 1.2074 367.59 1.16971 367.395 1.2074H367.404ZM557.765 19.6587C557.737 19.6436 557.654 19.6285 557.598 19.6285C557.654 19.6172 557.7 19.6285 557.765 19.6285C557.737 19.6285 557.793 19.6398 557.765 19.6587ZM542.327 24.9359C542.512 24.9057 542.762 24.917 542.939 24.8944C542.966 24.8944 542.966 24.9057 542.985 24.9132C542.762 24.9057 542.549 24.9321 542.327 24.9321V24.9359ZM514.64 39.2483C514.677 39.2408 514.723 39.2408 514.779 39.2408V39.2483C514.732 39.2483 514.714 39.2483 514.64 39.2483ZM428.787 42.8783C428.472 42.867 428.212 42.9047 427.953 42.8896C428.212 42.8896 428.518 42.8896 428.787 42.8783ZM425.848 42.9197C425.82 42.9197 425.82 42.9197 425.792 42.9084C425.848 42.9197 425.894 42.9197 425.959 42.9197C425.922 42.9197 425.894 42.9197 425.848 42.9197ZM380.367 41.3253C380.469 41.314 380.571 41.314 380.664 41.3027C380.896 41.3441 381.257 41.3441 381.48 41.3818C381.118 41.3592 380.71 41.3705 380.367 41.3253ZM380.33 42.2601C380.367 42.2601 380.404 42.2601 380.432 42.2601C380.432 42.2902 380.432 42.3166 380.469 42.3468C380.432 42.3468 380.404 42.3468 380.367 42.3468C380.367 42.3166 380.423 42.2902 380.33 42.2601ZM363.992 43.0102C363.992 43.0102 363.992 43.0102 363.974 43.0102C363.974 42.9913 363.946 42.9914 363.909 42.9914C363.946 42.9914 363.974 43.0102 363.992 43.0102ZM350.928 41.7927C350.928 41.7814 350.928 41.7927 350.928 41.7814C351.057 41.7927 351.187 41.7814 351.298 41.7927C351.132 41.7814 351.132 41.7927 350.928 41.7927ZM333.171 43.3758C333.217 43.3871 333.264 43.4022 333.31 43.4211C333.125 43.4211 332.911 43.4211 332.745 43.4211C332.884 43.406 333.051 43.406 333.18 43.3758H333.171ZM272.474 43.7302L272.447 43.749C272.437 43.749 272.4 43.7302 272.382 43.7302C272.428 43.7302 272.447 43.7302 272.484 43.7302H272.474ZM42.5489 40.643H42.5768H42.5489ZM41.733 38.0987C41.733 38.0987 41.733 38.0987 41.7515 38.0987C42.0111 38.0987 42.2708 38.0987 42.5489 38.0987C42.5489 38.0987 42.5489 38.0986 42.5397 38.11C42.28 38.0873 42.0111 38.0987 41.733 38.0987ZM17.9309 23.1492C18.4038 23.2283 18.7191 23.2999 18.6264 23.3414C18.4038 23.2698 18.1442 23.2132 17.9124 23.1567C17.9309 23.1492 17.9309 23.1492 17.9309 23.1492ZM36.0305 7.3817C35.9934 7.41563 36.0954 7.41563 36.0769 7.43824C35.9285 7.4194 35.808 7.40432 35.6689 7.3817C35.7894 7.3817 35.9007 7.3817 36.0305 7.3817ZM122.866 6.18303C122.866 6.12649 122.866 6.08503 122.894 6.02849C122.912 6.02849 122.968 6.02849 122.986 6.02849C122.866 6.07372 122.829 6.12649 122.866 6.18303ZM280.606 2.77171C280.625 2.77171 280.662 2.77171 280.727 2.77171C280.69 2.77171 280.625 2.77171 280.606 2.77171ZM298.678 2.75664C298.687 2.75664 298.678 2.75663 298.687 2.77171C298.678 2.77171 298.678 2.77171 298.659 2.77171C298.659 2.75663 298.678 2.75664 298.678 2.75664ZM528.604 5.54977C528.567 5.5347 528.567 5.54977 528.529 5.53469C528.567 5.53469 528.567 5.53469 528.604 5.53469V5.54977ZM504.978 39.4896C505.033 39.4707 505.108 39.4707 505.154 39.4556C505.172 39.4707 505.172 39.4707 505.2 39.4896C505.098 39.4707 505.033 39.4896 504.978 39.4896ZM414.999 39.3916C414.758 39.4029 414.387 39.4029 414.183 39.4179C414.424 39.4029 414.656 39.3916 414.999 39.3916ZM124.572 41.133C124.581 41.133 124.72 41.1594 124.776 41.1594C124.646 41.1481 124.535 41.1481 124.405 41.1481C124.461 41.1481 124.516 41.1481 124.572 41.133ZM50.3933 36.4213C49.5681 36.4062 48.7243 36.3798 47.9361 36.4552L47.964 36.4477C48.7799 36.4024 49.5774 36.4213 50.384 36.4213H50.3933ZM34.0091 31.3929H33.9906C33.6939 31.3476 33.3323 31.3363 32.9614 31.3363C32.9799 31.3363 32.9799 31.3363 32.9892 31.3363C33.3508 31.3363 33.6197 31.3929 34.0091 31.3929ZM52.0252 23.0926C52.118 23.0926 52.2014 23.0926 52.3127 23.0926C52.1921 23.1077 52.0809 23.0926 51.9789 23.1077C51.9789 23.0926 52.0067 23.1077 52.0252 23.0926ZM16.2805 17.0917C16.2805 17.0917 16.2805 17.0917 16.2897 17.0917C16.2805 17.0917 16.2805 17.0917 16.2527 17.0917C16.2527 17.0917 16.2527 17.0917 16.2805 17.0917ZM55.0666 8.76508C55.0295 8.76508 55.0202 8.76508 54.9738 8.76508C54.946 8.76508 54.9831 8.73492 54.9553 8.73492C55.0109 8.73492 54.9831 8.75001 55.0666 8.76508ZM548.233 18.9199C548.131 18.9199 548.001 18.9274 547.899 18.9199C547.936 18.9086 548.076 18.9199 548.131 18.9086C548.159 18.9199 548.187 18.9199 548.233 18.9199ZM319.439 41.3253C319.272 41.3969 319.114 41.4534 318.892 41.5062C319.068 41.4534 319.522 41.4157 319.439 41.3253ZM57.3475 40.0889C57.5145 40.0889 57.6535 40.104 57.8019 40.104C57.4774 40.1304 57.1528 40.1191 56.8283 40.1869C56.9581 40.1417 57.1899 40.1304 57.3475 40.0889ZM52.1458 37.3297C52.22 37.3599 52.1736 37.3862 52.2941 37.3975C52.7578 37.3975 53.2121 37.3975 53.685 37.3975C53.3697 37.4428 53.1194 37.4277 52.8041 37.4503C52.5909 37.4503 52.6094 37.3862 52.2941 37.3975C52.1921 37.3975 52.118 37.3975 52.016 37.3862C52.0623 37.3749 52.1087 37.3599 52.1458 37.3297ZM50.8291 31.0762H50.8477C50.8477 31.1064 50.8477 31.1328 50.8477 31.1629C50.8291 31.1629 50.8291 31.1629 50.8198 31.1629C50.8847 31.1328 50.8477 31.1064 50.8291 31.0762ZM78.5441 28.17C78.4791 28.1813 78.4235 28.1813 78.3864 28.1813C78.3864 28.17 78.3586 28.17 78.3864 28.17C78.4235 28.17 78.4977 28.17 78.5441 28.17ZM88.2243 27.009H88.2336H88.2243C88.076 27.0543 87.872 27.0807 87.668 27.1259C87.7051 27.0807 87.8164 27.0543 87.7607 27.009C87.9276 27.009 88.0853 27.009 88.2336 27.009H88.2243ZM45.3028 26.3381C45.3492 26.3381 45.4141 26.3381 45.4512 26.323C45.2472 26.3795 45.4234 26.4512 45.3863 26.5039C45.3584 26.5039 45.3492 26.5039 45.3121 26.5039C45.3121 26.4512 45.3121 26.3946 45.3121 26.3418L45.3028 26.3381ZM53.3141 24.9396C53.3975 24.9396 53.5088 24.9396 53.6108 24.9396C53.5459 24.9547 53.4532 24.9396 53.3697 24.9547C53.3419 24.9547 53.3326 24.9396 53.3234 24.9396H53.3141ZM39.5354 22.4104C39.6096 22.4104 39.7023 22.4104 39.7951 22.4104H39.8043H39.7951C39.758 22.4254 39.6652 22.4104 39.6467 22.4254C39.6003 22.4104 39.554 22.4104 39.5354 22.4104ZM108.633 7.85665C108.633 7.85665 108.633 7.85665 108.614 7.84535C108.753 7.84535 108.874 7.84535 108.976 7.84535C108.883 7.85665 108.753 7.85665 108.633 7.85665ZM165.426 6.08502C165.546 6.08502 165.583 6.08502 165.722 6.08502C165.602 6.08502 165.537 6.08502 165.426 6.09633C165.407 6.08502 165.426 6.08502 165.426 6.08502ZM240.568 4.64511C240.55 4.64511 240.504 4.63004 240.494 4.60742C240.568 4.60742 240.643 4.60742 240.708 4.60742C240.661 4.62627 240.606 4.64511 240.568 4.64511ZM302.934 3.47282C302.934 3.47282 302.823 3.47282 302.823 3.45774C303.898 3.50298 304.909 3.39367 305.975 3.4012C304.965 3.4012 303.945 3.42005 302.934 3.47282ZM306.003 3.944C305.864 3.92515 305.688 3.94401 305.595 3.92516C305.697 3.91385 305.799 3.92515 305.938 3.91384C305.938 3.92515 305.975 3.92515 306.012 3.944H306.003ZM365.893 3.9817C365.698 3.9817 365.531 3.9817 365.318 3.97039C365.81 3.97039 366.273 3.96284 366.737 3.96284C366.459 3.96284 366.347 3.99677 365.893 3.9817ZM456.474 5.30475C456.511 5.30475 456.613 5.28968 456.65 5.28968V5.30475C456.576 5.30475 456.539 5.30475 456.474 5.30475ZM532.637 24.7097C532.721 24.6946 532.823 24.6758 532.934 24.6532C532.971 24.672 532.906 24.6946 532.971 24.7097C532.86 24.7097 532.721 24.7097 532.637 24.7097ZM230.276 40.3301C230.23 40.3867 230.007 40.4432 229.803 40.5073C229.766 40.5073 229.738 40.5073 229.692 40.5073C229.822 40.4319 230.007 40.3754 230.267 40.3301H230.276ZM71.5249 39.4971C71.5527 39.4971 71.5805 39.4971 71.5898 39.4971C71.5898 39.4971 71.5898 39.5046 71.5898 39.516C71.5805 39.516 71.562 39.516 71.5249 39.516C71.5249 39.5046 71.5249 39.4971 71.5249 39.4971ZM59.1464 36.4816C59.0722 36.4816 59.0258 36.4816 58.9702 36.4816C59.0815 36.459 59.1093 36.4137 59.1464 36.3911C59.1464 36.4137 59.1464 36.459 59.1464 36.4816ZM88.28 6.69191C88.28 6.67683 88.28 6.67683 88.2614 6.67683C88.4654 6.67683 88.6323 6.67683 88.8178 6.69191C88.6323 6.69191 88.4654 6.69191 88.28 6.69191ZM320.811 5.77593C320.691 5.74577 320.57 5.72317 320.468 5.67793C320.672 5.70432 320.672 5.74577 320.941 5.77593C320.876 5.77593 320.839 5.77593 320.811 5.77593ZM456.474 6.92561C456.511 6.92561 456.511 6.92561 456.511 6.92561C456.511 6.92561 456.511 6.92561 456.474 6.92561ZM489.706 7.85288C489.558 7.85288 489.419 7.85288 489.298 7.85288C489.298 7.85288 489.27 7.85288 489.298 7.84157C489.428 7.85288 489.558 7.84157 489.706 7.85288ZM491.125 7.85288C491.153 7.85288 491.153 7.85288 491.181 7.85288C491.153 7.85288 491.125 7.85288 491.125 7.85288ZM527.074 9.00632C527.185 8.99878 527.166 8.95356 527.213 8.94225C527.324 8.96109 527.287 8.97993 527.426 9.00632C527.287 9.00632 527.213 9.00632 527.074 9.00632ZM541.047 11.9955C541.158 12.003 541.242 12.003 541.381 12.0143C541.242 12.0143 541.047 12.0143 540.936 12.0143C540.973 12.003 541.01 11.9955 541.047 11.9955ZM537.19 18.5618C537.051 18.5316 536.912 18.509 536.791 18.4902C536.967 18.4902 537.125 18.4902 537.264 18.4902C537.236 18.5166 537.236 18.5316 537.199 18.5618H537.19ZM408.657 36.1913C408.546 36.2064 408.416 36.2253 408.351 36.2629C408.045 36.2177 407.785 36.2441 407.442 36.2064C407.878 36.1913 408.24 36.1913 408.657 36.1913ZM89.2629 35.5279C89.3649 35.5392 89.5132 35.5543 89.6059 35.5732C89.4761 35.5732 89.3556 35.5732 89.2258 35.5732C89.2536 35.5581 89.2629 35.543 89.2629 35.5279ZM28.7239 20.0997C28.7425 20.0846 28.7796 20.0997 28.7888 20.0846C28.7796 20.0846 28.7795 20.0846 28.7795 20.0997C28.7703 20.0997 28.7425 20.0997 28.7239 20.0997ZM27.398 19.18C27.398 19.1875 27.398 19.1875 27.398 19.1875C27.398 19.1875 27.398 19.1875 27.3794 19.18C27.398 19.18 27.398 19.18 27.398 19.18ZM32.8965 17.5742L32.8686 17.6307C32.8316 17.6157 32.7945 17.5855 32.7203 17.5742C32.7666 17.5742 32.8316 17.5742 32.8965 17.5742ZM60.5558 10.4312C60.5558 10.4312 60.5558 10.4161 60.5558 10.401C60.6949 10.401 60.8432 10.4161 60.9916 10.401C60.871 10.4312 60.6856 10.4161 60.5558 10.4312ZM60.5836 10.6498C60.5836 10.6347 60.5743 10.6045 60.5743 10.5932C60.6207 10.6045 60.6949 10.6347 60.7598 10.6498C60.7041 10.6498 60.6392 10.6498 60.5836 10.6498ZM69.0121 9.69989C68.9936 9.69989 68.9936 9.69989 68.9936 9.69989C69.8837 9.71497 70.3752 9.58681 71.0891 9.53404C70.3473 9.5755 69.5592 9.61696 69.0121 9.69989ZM182.561 6.5939C182.533 6.5939 182.57 6.60898 182.561 6.60898C182.533 6.60898 182.524 6.60898 182.524 6.60898C182.533 6.60898 182.533 6.5939 182.561 6.5939ZM191.907 7.15178C191.156 7.17062 190.396 7.17062 189.645 7.17062C190.396 7.1857 191.156 7.15178 191.907 7.15178ZM410.919 7.40055C410.845 7.41939 410.845 7.43448 410.827 7.43448C410.827 7.43448 410.827 7.41939 410.827 7.40055C410.845 7.40055 410.873 7.40055 410.919 7.40055ZM457.726 8.29767C457.763 8.29767 457.8 8.29767 457.837 8.31275C457.837 8.31275 457.837 8.31275 457.837 8.32406C457.809 8.32406 457.726 8.32406 457.698 8.32406C457.726 8.31275 457.698 8.31275 457.726 8.29767ZM514.482 24.4571C514.417 24.4383 514.371 24.4157 514.343 24.3855C514.343 24.3742 514.408 24.3441 514.408 24.329C514.445 24.3441 514.445 24.3441 514.473 24.3591C515.242 24.2724 514.5 24.5363 514.473 24.4534L514.482 24.4571ZM162.635 39.2672C162.857 39.2446 162.857 39.188 162.978 39.1465C162.978 39.188 162.978 39.2219 162.978 39.2672C162.857 39.2785 162.755 39.2672 162.635 39.2672ZM85.4427 21.958C85.4334 21.958 85.4241 21.9731 85.3685 21.9731C85.3592 21.9731 85.387 21.958 85.3592 21.958C85.387 21.958 85.4241 21.9392 85.4334 21.958H85.4427ZM124.238 9.25133C124.229 9.25133 124.229 9.25133 124.229 9.25133C124.507 9.05532 123.988 8.91209 122.968 8.8367C123.404 8.96863 123.821 9.10809 124.247 9.25133H124.238ZM258.529 8.55776C258.455 8.55776 258.399 8.57284 258.353 8.58792C258.065 8.55777 257.759 8.57284 257.481 8.55776C257.815 8.55776 258.167 8.55776 258.529 8.55776ZM235.005 5.78724C234.931 5.79855 234.847 5.79855 234.783 5.79855C234.755 5.79855 234.681 5.78724 234.643 5.78724C234.783 5.78724 234.875 5.78724 235.005 5.78724ZM401.805 8.16575C402.621 8.1959 403.158 8.16575 403.9 8.16575C403.65 8.21098 403.464 8.2449 403.335 8.28636C402.778 8.22982 402.37 8.24491 401.805 8.16575ZM507.759 9.47372H507.732H507.759ZM528.353 10.3897C528.233 10.3746 528.149 10.3633 527.945 10.3633C527.927 10.3633 527.927 10.3633 527.871 10.3633C527.565 10.3633 527.333 10.352 527.472 10.2653C527.751 10.3105 528.057 10.352 528.372 10.3935H528.353V10.3897ZM531.395 19.0443C531.45 19.0179 531.524 18.9877 531.589 18.9463C531.969 18.9463 532.294 18.9463 532.683 18.9463C532.34 19.033 531.83 19.0028 531.395 19.0443ZM481.296 31.6869C481.519 31.7133 481.741 31.702 481.973 31.7246C481.908 31.7246 481.797 31.7397 481.741 31.7585C481.612 31.7133 481.435 31.7397 481.296 31.6869ZM398.754 35.4412C398.865 35.4902 398.912 35.5317 399.051 35.5769C398.828 35.5769 398.578 35.5769 398.355 35.5769C398.485 35.5317 398.624 35.4902 398.754 35.4412ZM322.767 39.041C323.046 39.041 323.305 39.041 323.583 39.041C323.583 39.0485 323.519 39.0485 323.519 39.0599C323.259 39.041 323.009 39.041 322.73 39.0485C322.73 39.0485 322.767 39.0485 322.767 39.041ZM164.369 37.88C164.294 37.9102 164.332 37.9366 164.248 37.9667C164.174 37.9366 164.248 37.9102 164.174 37.88C164.239 37.88 164.304 37.88 164.369 37.88ZM140.353 37.0131C140.465 37.0847 140.798 37.1261 140.826 37.1978C140.715 37.1978 140.594 37.1827 140.465 37.1978C140.52 37.1111 140.335 37.0847 140.353 37.0131ZM66.0913 20.7895C65.8781 20.8008 65.6277 20.7895 65.4145 20.7895C65.4701 20.7895 65.4701 20.7744 65.5072 20.7593C65.6926 20.7895 65.9059 20.7594 66.1006 20.7895H66.0913ZM46.6937 10.8646C46.4804 10.8797 46.2393 10.8797 46.0261 10.8948C46.1651 10.8797 46.4155 10.8797 46.5453 10.8496C46.5639 10.8496 46.6751 10.8496 46.6937 10.8609V10.8646ZM104.636 9.94867C104.673 9.93737 104.748 9.93737 104.775 9.91852C104.803 9.9336 104.822 9.9336 104.84 9.94867C104.775 9.94867 104.701 9.94867 104.636 9.94867ZM125.657 9.22871C125.666 9.24756 125.694 9.24757 125.694 9.24757C125.666 9.24757 125.647 9.24757 125.592 9.24757C125.62 9.22872 125.647 9.24756 125.647 9.22871H125.657ZM161.717 8.32406C161.541 8.33537 161.476 8.33537 161.318 8.35422C161.207 8.35422 161.105 8.33914 161.021 8.32406C161.281 8.32406 161.457 8.32406 161.717 8.32406ZM176.803 10.6347C176.543 10.6347 176.265 10.6196 175.987 10.6083C176.237 10.597 176.534 10.6083 176.803 10.5819C176.803 10.597 176.803 10.6234 176.803 10.6385V10.6347ZM239.224 10.1824C239.205 10.1673 239.15 10.1824 239.103 10.1824C239.103 10.1824 239.103 10.1824 239.094 10.1824H239.103C239.215 10.1673 239.141 10.1673 239.243 10.1673C239.243 10.1673 239.242 10.1673 239.224 10.1824ZM229.469 7.85665C229.228 7.88304 229.015 7.92073 228.848 7.9622C229.052 7.91696 229.256 7.89812 229.469 7.85665ZM298.65 6.23204C298.14 6.20565 298.085 6.28858 297.806 6.32627C297.649 6.28481 297.436 6.2848 297.296 6.25088C297.76 6.25088 298.187 6.25088 298.65 6.23204C298.65 6.23204 298.65 6.23203 298.65 6.21696C298.66 6.23203 298.706 6.23204 298.715 6.23204C298.706 6.23204 298.66 6.23204 298.65 6.23204ZM413.525 9.00632C413.553 9.00632 413.553 8.99878 413.581 8.97993C413.581 8.99878 413.581 9.00632 413.581 9.00632C413.553 9.00632 413.525 9.00632 413.525 9.00632ZM518.877 9.48504C518.84 9.48504 518.812 9.48504 518.775 9.48504C518.803 9.47373 518.877 9.48503 518.905 9.47372C518.905 9.48503 518.877 9.48504 518.877 9.48504ZM506.332 18.2414C506.508 18.2263 506.285 18.2037 506.332 18.1698V18.2414ZM484.171 26.7866C484.3 26.7603 484.532 26.7866 484.699 26.7603C484.912 26.7866 485.191 26.7866 485.413 26.8017C485.014 26.8017 484.56 26.8017 484.171 26.7904V26.7866ZM394.201 33.7224C394.637 33.7224 395.073 33.7224 395.537 33.7224C395.073 33.7035 394.637 33.7148 394.201 33.7224ZM121.994 27.1711C121.79 27.1975 121.772 27.1975 121.595 27.2239C121.521 27.1711 121.243 27.2013 121.123 27.156C121.447 27.156 121.67 27.1711 121.994 27.1711ZM125.212 24.0651C125.202 24.0387 125.323 24.0387 125.277 24.0086C125.397 24.0086 125.481 24.0237 125.601 24.0237C125.462 24.035 125.341 24.0463 125.212 24.0651ZM37.0226 11.9992C36.9948 12.0105 36.9763 12.0105 36.9577 12.0105C36.9763 12.0105 36.9948 12.0105 37.0226 11.9992ZM140.835 10.6008C140.817 10.6121 140.91 10.6121 140.882 10.6121C140.873 10.6121 140.863 10.6121 140.835 10.6121C140.835 10.6121 140.835 10.6121 140.835 10.6008ZM169.941 8.7877C169.941 8.79901 169.886 8.799 169.876 8.81785C169.858 8.80277 169.811 8.7877 169.802 8.7877C169.839 8.7877 169.895 8.7877 169.951 8.7877H169.941ZM248.839 7.85665C248.83 7.85665 248.812 7.85665 248.812 7.85665C248.812 7.85665 248.83 7.85665 248.839 7.85665ZM502.187 11.7844C502.224 11.7844 502.15 11.7731 502.187 11.7731L502.224 11.7844C502.224 11.7844 502.224 11.7844 502.187 11.7844ZM504.913 17.8041C505.006 17.8041 505.052 17.8041 505.163 17.8041C505.145 17.8041 505.145 17.8154 505.089 17.8343C505.024 17.8192 505.006 17.8041 504.913 17.8041ZM499.414 28.6487C499.414 28.6487 499.414 28.6487 499.442 28.6487C499.442 28.6487 499.442 28.6487 499.414 28.6487ZM205.909 36.7379C205.909 36.7379 205.909 36.7379 205.909 36.7304C205.927 36.7304 205.955 36.7304 205.964 36.7304C205.955 36.7379 205.927 36.7379 205.909 36.7379ZM205.909 36.9603C205.909 36.9603 205.955 36.9603 205.964 36.9754C205.955 36.9754 205.927 36.9603 205.909 36.9603C205.964 37.0131 206.038 37.0508 206.066 37.1073C205.89 37.0508 205.686 36.9942 205.473 36.9603C205.621 36.9603 205.779 36.9603 205.918 36.9603H205.909ZM149.162 30.1867C149.162 30.2055 149.162 30.2432 149.162 30.2507C149.069 30.2507 149.004 30.2507 148.958 30.2507C149.032 30.2432 149.116 30.2055 149.162 30.1867ZM134.373 27.7328C134.039 27.778 133.538 27.7667 133.297 27.8308C132.815 27.7667 132.231 27.8044 131.73 27.7478C132.611 27.7478 133.483 27.7478 134.382 27.7328H134.373ZM137.868 27.2013C137.943 27.2239 138.035 27.2465 138.082 27.2541C137.98 27.2541 137.933 27.2541 137.868 27.2541C137.905 27.2465 137.831 27.2277 137.868 27.2013ZM61.7797 18.5052C61.7797 18.5128 61.7797 18.5128 61.7704 18.5128V18.5052H61.7797ZM133.751 9.69613C133.761 9.67728 133.668 9.66597 133.649 9.65466C133.761 9.66597 133.853 9.67351 133.965 9.69613C133.891 9.69613 133.816 9.69613 133.751 9.69613ZM131.146 11.317H131.183C131.183 11.317 131.155 11.317 131.146 11.317ZM244.092 11.3999C243.832 11.415 243.536 11.3848 243.276 11.3999C243.016 11.3999 242.794 11.3999 242.553 11.3848C243.035 11.3735 243.554 11.3999 244.036 11.3735C243.573 11.234 245.001 11.3848 244.092 11.3999ZM322.341 7.41563C322.313 7.39678 322.239 7.41563 322.202 7.39678C322.295 7.39678 322.313 7.39678 322.341 7.39678C322.341 7.41563 322.378 7.41563 322.341 7.41563ZM459.302 25.6521C459.302 25.6521 459.302 25.6521 459.275 25.6521C459.302 25.637 459.339 25.637 459.386 25.637C459.386 25.652 459.349 25.6521 459.312 25.6521H459.302ZM250.953 35.8445C251.093 35.8295 251.222 35.8445 251.352 35.8295C251.389 35.8295 251.343 35.8144 251.38 35.8144C251.445 35.8031 251.528 35.8144 251.593 35.8031C251.519 35.8031 251.454 35.8031 251.389 35.8031C251.593 35.7578 251.473 35.7239 251.491 35.6938C251.528 35.6825 251.565 35.6938 251.602 35.6938C251.602 35.7239 251.602 35.7578 251.602 35.8031C251.816 35.8031 252.057 35.8295 252.27 35.8483C251.918 35.8596 251.482 35.8182 251.176 35.8596C250.963 35.8709 250.74 35.8596 250.536 35.8596C250.675 35.8483 250.824 35.8596 250.953 35.8483V35.8445ZM190.489 35.7578C190.544 35.7729 190.628 35.788 190.683 35.8031C190.544 35.8031 190.377 35.8031 190.257 35.8031C190.285 35.7918 190.461 35.7767 190.479 35.7578H190.489ZM131.053 34.8796C131.081 34.8796 131.127 34.8796 131.155 34.8796C131.127 34.8796 131.081 34.8796 131.044 34.8796H131.053ZM150.683 31.0762H150.664C150.673 31.0762 150.683 31.0762 150.683 31.0762ZM149.171 30.0321C149.171 30.0472 149.171 30.0585 149.171 30.0585C148.559 29.9944 147.892 30.0472 147.27 30.0321C147.901 30.0321 148.578 30.0321 149.171 30.0321ZM143.83 29.953C143.83 29.9266 143.701 29.8851 143.988 29.8964C144.563 29.8851 145.138 29.8964 145.731 29.8964C145.064 29.9228 144.452 29.9077 143.83 29.953ZM151.99 24.0312C151.953 24.0312 151.944 24.0312 151.925 24.0312C151.925 24.0086 151.925 23.9709 151.925 23.952C151.944 23.952 151.944 23.952 151.953 23.952C151.962 23.9709 151.925 24.0086 151.99 24.0312ZM77.1625 19.4287C77.1718 19.4287 77.181 19.4287 77.2088 19.4438C77.2088 19.4438 77.2088 19.4438 77.1996 19.4551C77.181 19.4551 77.1718 19.4438 77.1625 19.4438C77.1347 19.4438 77.1625 19.4438 77.1625 19.4287ZM128.234 10.8646C128.244 10.8533 128.207 10.8533 128.207 10.842C128.234 10.8533 128.346 10.8533 128.373 10.8646C128.327 10.8646 128.29 10.8646 128.234 10.8646ZM128.559 11.3886C128.522 11.366 128.392 11.3471 128.373 11.3207H128.392H128.373C128.485 11.3207 128.559 11.3207 128.661 11.3207C128.568 11.3471 128.615 11.366 128.559 11.3886ZM261.06 13.1489C261.134 13.164 261.264 13.1489 261.338 13.164C261.134 13.1904 260.856 13.1791 260.662 13.1904C260.782 13.164 260.977 13.1791 261.06 13.1451V13.1489ZM326.597 8.31652C326.616 8.33914 326.727 8.35798 326.782 8.38437C326.643 8.37306 326.476 8.33914 326.337 8.32783C326.412 8.31652 326.504 8.31652 326.597 8.31652ZM500.981 15.2259C500.926 15.1618 500.842 15.1052 500.75 15.0336C500.712 15.1052 500.824 15.1618 501.028 15.2259H500.991H500.981ZM507.713 15.2824C507.713 15.2824 507.741 15.2673 507.713 15.2522C507.741 15.2635 507.778 15.2635 507.824 15.2635C507.787 15.2635 507.75 15.2786 507.713 15.2786V15.2824ZM481.417 17.3443C481.862 17.333 482.288 17.333 482.743 17.333C482.363 17.3556 481.918 17.3443 481.547 17.3895C481.51 17.3744 481.472 17.3593 481.417 17.3443ZM495.233 19.1875C495.27 19.1875 495.307 19.1875 495.344 19.1875C495.316 19.1875 495.344 19.195 495.316 19.195C495.316 19.195 495.279 19.1875 495.242 19.1875H495.233ZM304.826 34.8909C304.826 34.8494 304.789 34.823 304.789 34.7778C305.094 34.808 305.234 34.8645 305.558 34.8909C305.336 34.8796 305.094 34.8909 304.835 34.8909H304.826ZM179.529 29.1237C179.52 29.1086 179.473 29.1086 179.455 29.1086C179.51 29.1086 179.557 29.1086 179.594 29.1237C179.584 29.1237 179.557 29.1237 179.538 29.1237H179.529ZM129.848 20.9064C129.82 20.8913 129.783 20.8913 129.755 20.8913C129.755 20.8649 129.755 20.8347 129.755 20.8084C129.811 20.8084 129.876 20.8084 129.94 20.8084C129.829 20.8347 129.839 20.8649 129.839 20.9064H129.848ZM81.4092 19.8622L81.2794 19.8735C81.2979 19.8735 81.2608 19.8622 81.2794 19.8472C81.3072 19.8622 81.3628 19.8472 81.4092 19.8622ZM81.3536 19.3798C81.3072 19.3798 81.233 19.3948 81.1774 19.3948C81.3072 19.3232 81.5205 19.2516 81.2887 19.1875C81.2145 19.1875 81.1032 19.1875 81.0198 19.1875C81.131 19.1611 81.2887 19.131 81.3165 19.0933L81.2887 19.1875C81.3072 19.2516 81.3165 19.3232 81.3536 19.3798ZM81.2608 18.9123C81.3814 18.9123 81.4927 18.9123 81.6039 18.9123C81.4927 18.9387 81.4092 18.95 81.2979 18.9689V18.9915C81.2052 18.984 81.0939 18.984 81.0105 18.9689C81.1032 18.984 81.2052 18.9689 81.2979 18.9689L81.2608 18.9123ZM122.94 11.3547C122.912 11.3396 122.866 11.3396 122.819 11.3283C122.875 11.3283 122.94 11.3283 123.005 11.3283C122.986 11.3396 122.977 11.3396 122.94 11.3547ZM463.373 17.333C463.744 17.2613 464.291 17.3028 464.699 17.2463C464.699 17.2764 464.727 17.3028 464.754 17.333C464.291 17.333 463.846 17.333 463.373 17.333ZM208.672 27.7328H208.662H208.672ZM229.293 23.9935C229.33 24.0124 229.423 24.0199 229.423 24.0387C229.349 24.0387 229.256 24.0387 229.164 24.0387C229.201 24.0237 229.266 24.0161 229.303 23.9935H229.293ZM244.676 23.5676C244.175 23.5676 244.064 23.6693 243.647 23.6844C243.925 23.6392 244.352 23.6128 244.537 23.5563C244.574 23.5563 244.611 23.5676 244.676 23.5676ZM187.902 22.1842C187.902 22.2181 187.902 22.2822 187.902 22.3199H187.892C187.957 22.2633 187.93 22.2181 187.883 22.1842C187.892 22.1842 187.892 22.1842 187.902 22.1842ZM128.049 20.1223C128.169 20.1223 128.309 20.1223 128.42 20.1223C128.411 20.1487 128.411 20.1864 128.392 20.2316C128.327 20.2241 128.244 20.2241 128.197 20.209C128.169 20.1826 128.142 20.1525 128.049 20.1261V20.1223ZM261.459 14.5851C261.793 14.57 261.95 14.5134 262.256 14.4984C262.275 14.4984 262.275 14.4984 262.275 14.4984C261.969 14.5134 261.617 14.5285 261.459 14.5851ZM268.172 14.4418C268.144 14.4871 268.191 14.5398 268.293 14.5851C268.256 14.57 268.2 14.5851 268.154 14.57C268.172 14.5285 268.144 14.4871 268.107 14.4418C268.144 14.4418 268.154 14.4418 268.172 14.4418ZM380.682 10.6121C380.729 10.6234 380.812 10.6234 380.84 10.6385C380.812 10.6385 380.729 10.6385 380.682 10.6385C380.636 10.6234 380.599 10.6234 380.562 10.6234C380.59 10.6121 380.627 10.6121 380.682 10.6121ZM456.484 17.5629H456.521C456.484 17.5629 456.484 17.5629 456.484 17.5629ZM482.585 19.146C482.724 19.1159 482.9 19.131 483.058 19.1008C483.123 19.1121 483.123 19.131 483.234 19.146C482.993 19.1573 482.817 19.131 482.585 19.146ZM373.45 30.2696C379.366 30.4543 385.281 30.3563 391.216 30.2696C385.281 29.9831 379.366 30.002 373.45 30.2696ZM374.257 30.737C374.526 30.7521 374.526 30.7935 374.934 30.7822C374.739 30.7935 374.498 30.7822 374.294 30.7822C374.331 30.7747 374.257 30.7558 374.257 30.737ZM262.173 33.4208C262.303 33.4472 262.562 33.466 262.683 33.5C262.562 33.5 262.423 33.5 262.293 33.5C262.331 33.466 262.173 33.4472 262.173 33.4208ZM246.058 33.5C246.132 33.5 246.234 33.5 246.317 33.5C246.28 33.5188 246.252 33.5188 246.243 33.5264C246.187 33.5188 246.132 33.5188 246.067 33.5H246.058ZM232.214 23.8013C232.214 23.8126 232.214 23.8314 232.214 23.8465C232.103 23.8314 232.01 23.8465 231.917 23.8314C232.001 23.8314 232.112 23.8163 232.214 23.8013ZM131.192 20.1072C131.248 20.1072 131.294 20.1072 131.359 20.1072C131.331 20.1186 131.257 20.1186 131.22 20.1299C131.192 20.1186 131.211 20.1186 131.192 20.1072ZM118.702 13.6502C118.582 13.6615 118.443 13.6352 118.313 13.6502C118.276 13.6352 118.146 13.6352 118.09 13.605C118.304 13.6163 118.498 13.6314 118.712 13.6502H118.702ZM294.524 10.4048C294.524 10.4048 294.524 10.4048 294.515 10.4048C294.524 10.4048 294.524 10.4048 294.524 10.4048ZM424.763 13.9895V14.046C424.689 14.046 424.624 14.046 424.55 14.0611C424.587 14.0309 424.624 14.0083 424.624 13.9895C424.652 13.9895 424.68 13.9895 424.763 13.9895ZM481.565 13.8952C481.528 13.8839 481.472 13.8839 481.435 13.8726C481.519 13.8425 481.797 13.8425 481.936 13.8161C481.88 13.8576 481.639 13.8576 481.565 13.8952ZM449.325 16.3114C449.464 16.2888 449.566 16.3001 449.687 16.27C449.724 16.2964 449.863 16.2964 449.9 16.3114C449.687 16.3114 449.52 16.3114 449.325 16.3114ZM431.587 17.593C431.55 17.5817 431.55 17.5817 431.513 17.5629C431.513 17.5629 431.55 17.5629 431.587 17.5629C431.587 17.578 431.587 17.578 431.587 17.593ZM402.584 27.5104C402.547 27.5104 402.546 27.4953 402.509 27.4953C402.546 27.4953 402.584 27.4953 402.621 27.4953C402.593 27.4953 402.593 27.5104 402.593 27.5104H402.584ZM289.6 32.3616C289.526 32.3767 289.489 32.4068 289.396 32.4219C289.322 32.3767 289.044 32.4068 288.97 32.3503C289.174 32.3503 289.396 32.3616 289.6 32.3616ZM147.762 19.4212C147.771 19.4212 147.799 19.4212 147.808 19.4212H147.762ZM86.8335 16.6507C86.6944 16.6733 86.5646 16.6922 86.4348 16.7185C86.4255 16.6922 86.509 16.6733 86.4441 16.6507C86.5832 16.6507 86.7222 16.6507 86.8335 16.6507ZM104.748 15.7234C104.775 15.7234 104.813 15.7234 104.85 15.7234C104.831 15.7234 104.822 15.7234 104.813 15.7234C104.785 15.7234 104.775 15.7234 104.757 15.7234H104.748ZM132.49 13.8726C132.527 13.8576 132.481 13.8425 132.49 13.8274C132.518 13.8274 132.518 13.8274 132.527 13.8274C132.527 13.8387 132.527 13.8576 132.527 13.8726C132.518 13.8726 132.518 13.8726 132.49 13.8726ZM369.25 14.0762C369.296 14.0649 369.417 14.0649 369.472 14.0498C369.472 14.0649 369.417 14.0649 369.417 14.0762C369.352 14.0762 369.277 14.0762 369.25 14.0762ZM482.715 14.2157C482.669 14.2684 482.613 14.325 482.576 14.3777C482.474 14.3777 482.372 14.3777 482.261 14.3777C482.502 14.3212 482.576 14.2647 482.613 14.193C482.641 14.2119 482.659 14.2119 482.715 14.2119V14.2157ZM401.434 17.5667C401.323 17.5667 401.221 17.5667 401.119 17.5667C401.119 17.4159 401.119 17.2651 401.119 17.0993C401.119 17.0842 401.119 17.0729 401.119 17.0578C401.156 17.0691 401.258 17.0804 401.295 17.0993C401.258 17.0993 401.183 17.0993 401.119 17.0993C400.469 17.2802 400.85 17.4159 401.434 17.5667ZM226.669 33.7374C226.595 33.7374 226.4 33.7374 226.271 33.7374C226.326 33.7299 226.308 33.7299 226.345 33.7186C226.419 33.7299 226.595 33.7186 226.669 33.7374ZM198.936 20.3447C198.945 20.3447 198.973 20.3447 198.982 20.3447C198.973 20.3447 198.945 20.3447 198.936 20.3447ZM151.925 18.4864C151.879 18.5015 151.897 18.5015 151.851 18.5015C151.851 18.5015 151.832 18.5015 151.832 18.4864C151.851 18.5015 151.888 18.4864 151.934 18.4864H151.925ZM114.548 15.7272H114.521C114.511 15.7272 114.493 15.7272 114.474 15.7272C114.493 15.7272 114.521 15.7272 114.548 15.7272ZM157.442 14.5738C157.405 14.5738 157.312 14.5587 157.247 14.5587C157.312 14.5474 157.405 14.5474 157.461 14.5474C157.461 14.5474 157.461 14.5587 157.461 14.5775H157.442V14.5738ZM369.834 14.8376C369.63 14.8376 369.491 14.7924 369.296 14.7924C369.435 14.7924 369.574 14.7924 369.695 14.7773C369.741 14.8037 369.769 14.8225 369.834 14.8376ZM445.459 14.8075C445.459 14.8075 445.477 14.8075 445.477 14.7961C445.477 14.8075 445.477 14.8075 445.477 14.8075H445.459ZM401.091 16.8844C401.332 16.8844 401.61 16.8957 401.879 16.8844C401.638 16.9296 401.341 16.8957 401.091 16.9409C401.091 16.9296 401.091 16.8957 401.091 16.8844ZM309.74 30.9632C309.221 30.8011 308.423 30.9104 307.728 30.9104C308.386 30.8878 309.063 30.9556 309.74 30.9632ZM204.61 20.8008C204.62 20.8121 204.685 20.8121 204.712 20.8121C204.657 20.8121 204.601 20.8121 204.546 20.8121C204.555 20.8008 204.601 20.8008 204.62 20.8008H204.61ZM340.162 14.1629C340.135 14.1478 340.135 14.1365 340.135 14.1214C340.274 14.1214 340.413 14.1214 340.524 14.1214C340.431 14.144 340.264 14.1327 340.162 14.1629ZM380.386 15.7272C380.451 15.7197 380.562 15.7197 380.645 15.7046C380.608 15.7272 380.515 15.7197 380.469 15.7272C380.451 15.7272 380.413 15.7272 380.386 15.7272ZM379.097 27.9665H378.986C379.06 27.9589 379.199 27.9589 379.301 27.9589C379.236 27.9665 379.162 27.9589 379.097 27.9665ZM241.023 29.3197C241.078 29.331 241.125 29.3423 241.19 29.3612C241.051 29.3612 240.912 29.3612 240.782 29.3612C240.772 29.3461 240.735 29.3461 240.717 29.3461C240.819 29.3348 240.93 29.3348 241.032 29.3235L241.023 29.3197ZM141.828 15.5086C141.957 15.5086 142.171 15.5086 142.291 15.5086C142.18 15.5086 142.106 15.5086 142.004 15.5274C141.957 15.5086 141.893 15.5086 141.828 15.5086ZM340.274 14.3099C340.237 14.2986 340.237 14.2684 340.237 14.242C340.237 14.2684 340.339 14.2986 340.413 14.3099C340.376 14.3099 340.339 14.3099 340.274 14.3099ZM312.624 23.9822C312.781 23.9634 313.032 23.9822 313.189 23.9633C313.328 23.9747 313.467 23.9747 313.588 23.9822C313.254 23.9822 312.939 23.9822 312.614 23.9822H312.624ZM213.261 18.4223C213.484 18.4223 213.697 18.4299 213.92 18.4299C213.428 18.4223 213.132 18.4487 212.668 18.4299C212.863 18.4299 213.039 18.4223 213.261 18.4223ZM179.622 17.5704C180.54 17.4649 180.363 17.3518 180.549 17.2387C180.586 17.3405 180.345 17.4197 179.826 17.5139C179.826 17.5139 179.826 17.5139 179.807 17.5139C179.807 17.5139 179.807 17.5139 179.807 17.5327C179.696 17.5403 179.761 17.5516 179.622 17.5667L179.51 17.5968C179.557 17.5968 179.631 17.5968 179.686 17.5968C179.612 17.6232 179.557 17.6647 179.538 17.6948C179.538 17.6647 179.538 17.6383 179.51 17.5968C179.473 17.5968 179.408 17.5855 179.371 17.5667C179.445 17.5667 179.538 17.5667 179.622 17.5667V17.5704ZM179.612 16.4283L179.622 16.417C179.659 16.417 179.696 16.417 179.733 16.417C179.742 16.417 179.742 16.4283 179.761 16.4283C179.705 16.4283 179.677 16.4283 179.612 16.4283ZM330.334 14.7924C330.334 14.7773 330.222 14.7773 330.222 14.766C330.334 14.766 330.389 14.7773 330.501 14.7924C330.426 14.7924 330.362 14.7924 330.334 14.7924ZM317.547 27.0505C317.723 27.0505 317.881 27.0354 318.057 27.0505L318.094 27.0354L318.122 27.0241C318.122 27.0354 318.094 27.0354 318.048 27.0505C317.909 27.0505 317.733 27.0656 317.575 27.0769C317.538 27.0656 317.575 27.0656 317.538 27.0505H317.547ZM354.043 22.6554C354.182 22.6554 354.321 22.6554 354.451 22.6704C354.349 22.6704 354.219 22.6704 354.126 22.6818C354.089 22.6704 354.089 22.6554 354.043 22.6554ZM348.545 24.966C348.545 24.966 348.545 24.966 348.517 24.966C348.545 24.966 348.545 24.966 348.563 24.966C348.545 24.966 348.545 24.966 348.545 24.966ZM340.19 15.7272C340.005 15.7197 339.754 15.7046 339.55 15.7046C339.652 15.6857 339.727 15.6857 339.829 15.6744C339.893 15.7046 340.135 15.682 340.19 15.7272ZM325.271 18.0378C325.16 18.0378 325.132 18.0228 324.993 18.0378C325.021 18.0228 325.095 18.0378 325.132 18.0115C325.16 18.0228 325.225 18.0228 325.271 18.0378ZM347.126 15.4822C347.154 15.4822 347.154 15.4822 347.154 15.4822C347.126 15.4822 347.126 15.4822 347.126 15.4822ZM307.042 15.7046C307.069 15.7046 307.153 15.7046 307.199 15.7046C307.181 15.7197 307.153 15.7196 307.107 15.7196C307.107 15.7196 307.042 15.7197 307.042 15.7046ZM271.427 18.0378C271.288 18.0378 271.13 18.0378 270.963 18.0378C271.093 18.0114 271.251 18.0378 271.353 18.0228C271.38 18.0228 271.408 18.0228 271.417 18.0378H271.427ZM211.453 18.2565C211.509 18.2414 211.592 18.2565 211.648 18.2414C211.657 18.2565 211.667 18.2565 211.704 18.2565C211.63 18.2565 211.537 18.2565 211.444 18.2565H211.453ZM311.14 29.5798C311.14 29.5798 311.14 29.5647 311.14 29.5496C311.159 29.5609 311.159 29.5798 311.186 29.5798C311.159 29.5798 311.159 29.5798 311.14 29.5798ZM138.925 15.3276C139.166 15.3276 139.426 15.3276 139.658 15.3427C139.63 15.3427 139.584 15.3427 139.528 15.3578C139.343 15.3427 139.046 15.3578 138.916 15.3276H138.925ZM282.09 15.2598C282.108 15.2598 282.118 15.2598 282.118 15.2598C282.498 15.3729 283.138 15.3729 283.731 15.3992C283.731 15.3992 283.731 15.3992 283.722 15.3992C283.184 15.3578 282.646 15.3163 282.09 15.2598ZM169.932 15.5086C169.923 15.5086 169.923 15.4935 169.895 15.4935C169.923 15.4935 169.923 15.4935 169.932 15.4935V15.5086ZM147.78 14.7924C147.651 14.7924 147.539 14.7924 147.41 14.7924C147.474 14.7924 147.512 14.766 147.567 14.766C147.614 14.7773 147.743 14.766 147.78 14.7924ZM234.198 33.3417C234.495 33.3567 234.81 33.368 235.116 33.368C235.116 33.368 235.116 33.368 235.098 33.368C234.792 33.368 234.43 33.3793 234.198 33.3417ZM453.776 18.9727C453.776 18.9727 453.776 18.9538 453.739 18.9538C453.813 18.9538 453.869 18.9538 453.915 18.9538C453.869 18.9538 453.804 18.9727 453.776 18.9727ZM237.416 33.5264C237.351 33.5264 237.277 33.5075 237.221 33.5075C237.379 33.5075 237.601 33.5075 237.768 33.5075C237.648 33.5264 237.509 33.5075 237.416 33.5264ZM471.375 18.7766C471.134 18.788 470.865 18.7766 470.587 18.7766C470.624 18.7766 470.624 18.7766 470.624 18.7766C470.856 18.788 471.124 18.7766 471.366 18.7766H471.375ZM80.3336 14.8037C80.38 14.8037 80.4449 14.8037 80.5098 14.8037C80.38 14.8338 80.2316 14.8602 80.1667 14.8904C80.0462 14.8602 80.1296 14.8602 79.9813 14.8188C80.1018 14.8188 80.2038 14.8037 80.3336 14.8037ZM427.508 12.493H427.47C427.508 12.493 427.508 12.493 427.508 12.493ZM318.743 7.98481C318.743 8.01497 318.947 7.98481 318.901 8.03004C318.78 8.01874 318.678 8.04135 318.539 8.03004C318.651 8.01874 318.678 7.99989 318.743 7.98481ZM249.043 7.63049C249.173 7.61918 249.303 7.60787 249.423 7.61918C249.423 7.61918 249.433 7.61918 249.451 7.61918C249.312 7.63049 249.173 7.61918 249.043 7.63049ZM494.231 9.18726C494.231 9.20233 494.231 9.20234 494.231 9.20234C493.489 9.11564 492.673 9.10432 491.904 9.07417C492.673 9.07417 493.452 9.13071 494.231 9.18726ZM399.385 8.49745C398.93 8.48991 398.55 8.50875 398.142 8.50875C398.281 8.49745 398.42 8.49745 398.578 8.48991C398.856 8.49745 399.116 8.49745 399.394 8.49745H399.385ZM299.958 6.00964C299.856 5.99834 299.856 6.02472 299.781 6.00964C299.809 6.00964 299.819 6.00964 299.856 6.00964C299.883 6.00964 299.921 6.00964 299.958 6.00964ZM86.8428 10.8646C86.8799 10.8646 86.917 10.8759 86.9633 10.8759C86.9448 10.8759 86.917 10.8759 86.8706 10.8759C86.8799 10.8759 86.8799 10.8759 86.9077 10.8759C86.917 10.8759 86.7779 10.8646 86.7964 10.8759C86.8057 10.8759 86.8057 10.8759 86.8335 10.8759C86.8335 10.8646 86.8335 10.8646 86.8335 10.8646H86.8428ZM254.375 5.69678C254.393 5.69678 254.403 5.69678 254.44 5.69678C254.44 5.72316 254.403 5.75332 254.486 5.79478C254.44 5.79478 254.403 5.79478 254.366 5.79478C254.366 5.74955 254.366 5.72316 254.366 5.69678H254.375ZM111.739 30.737C111.757 30.737 111.757 30.737 111.776 30.737C111.757 30.737 111.757 30.737 111.739 30.737ZM440.47 5.22183C440.201 5.22936 439.97 5.22183 439.682 5.22183C439.97 5.22183 440.201 5.22936 440.47 5.22183ZM226.706 6.22073C226.734 6.23204 226.734 6.24711 226.762 6.24711C226.734 6.24711 226.716 6.24711 226.706 6.24711C226.706 6.23203 226.706 6.23204 226.706 6.22073ZM99.3511 9.02517C98.8968 9.03648 98.4332 9.03648 97.9696 9.03648C98.1272 9.01763 98.2477 8.99501 98.359 8.97993C98.6835 9.01763 99.0359 8.97994 99.3511 9.02517ZM193.122 39.4481C193.048 39.4029 192.937 39.3652 192.788 39.3086C193.001 39.2936 193.233 39.3086 193.456 39.2785C193.233 39.335 193.326 39.4029 193.122 39.4443V39.4481ZM47.9176 21.7583C47.7785 21.7469 47.6302 21.7469 47.4818 21.7469C47.4911 21.7469 47.5096 21.7394 47.5189 21.7394C47.7043 21.7394 47.8805 21.7394 48.0474 21.7394C48.0474 21.7582 47.9176 21.7469 47.9083 21.7583H47.9176ZM77.5797 29.9115C78.0155 29.9115 78.4606 29.9228 78.9057 29.9228C78.8964 29.9228 78.8964 29.9228 78.8964 29.9228C78.4606 29.9228 78.0155 29.9115 77.5797 29.9115ZM72.9158 39.0712C72.8879 39.0599 72.9158 39.0598 72.8879 39.0523C72.925 39.0523 72.9621 39.0523 72.9899 39.0523C72.9714 39.0598 72.9529 39.0712 72.925 39.0712H72.9158ZM431.411 36.655C431.949 36.6135 432.598 36.67 433.164 36.7002C433.164 36.7002 433.164 36.7002 433.136 36.7077C432.561 36.655 431.986 36.6738 431.411 36.655ZM82.7073 39.9834C82.8557 39.9532 83.0133 39.9381 83.1802 39.9268C83.106 39.9381 83.0319 39.9494 82.9855 39.9834C82.8742 39.9834 82.7908 39.9834 82.7073 39.9834ZM369.213 37.6689C369.277 37.6576 369.213 37.6388 369.277 37.6275C369.277 37.6388 369.25 37.6539 369.277 37.6689C369.25 37.6689 369.25 37.6689 369.213 37.6689ZM550.644 19.6587C550.681 19.6587 550.709 19.6587 550.709 19.6587C550.709 19.7039 550.95 19.7228 550.987 19.768C550.82 19.7416 550.876 19.6888 550.644 19.6587ZM417.744 4.18901C417.744 4.18901 417.744 4.18901 417.716 4.18901C417.744 4.18901 417.744 4.18901 417.744 4.18901ZM312.188 3.36351C311.029 3.42005 309.656 3.3899 308.275 3.3899C308.776 3.37482 309.295 3.37482 309.786 3.34467C310.584 3.35974 311.418 3.33336 312.188 3.35975V3.36351ZM38.0333 32.4822C38.3115 32.4935 38.3949 32.5011 38.7287 32.5199C38.3579 32.5199 38.1168 32.5388 37.7551 32.5463C37.8571 32.5199 37.9777 32.5011 38.0333 32.4822ZM186.529 41.3517C186.529 41.3517 186.529 41.3517 186.539 41.3517C186.529 41.3517 186.539 41.3517 186.529 41.3667C186.529 41.3517 186.529 41.3517 186.529 41.3517ZM503.754 41.5326C503.847 41.5175 503.93 41.5326 503.967 41.5175C504.199 41.5552 504.505 41.5741 504.866 41.5891V41.6042C504.56 41.5514 504.273 41.4949 503.745 41.5326H503.754ZM560.983 12.9567C560.76 12.9567 560.537 12.9642 560.315 12.9567C560.51 12.8888 560.853 12.8737 561.094 12.8323C561.057 12.8737 560.945 12.9001 560.983 12.9567ZM54.9646 34.1973C54.6957 34.1973 54.4546 34.1973 54.1764 34.1973C54.2599 34.186 54.3804 34.186 54.4546 34.1709C54.6029 34.1973 54.8069 34.1709 54.9646 34.1973ZM582.42 20.8121C582.392 20.8121 582.3 20.8121 582.281 20.8008C582.346 20.8008 582.42 20.8121 582.476 20.8121C582.958 20.8687 583.394 20.8385 583.876 20.8008C583.394 20.8121 582.958 20.8121 582.476 20.8121H582.42ZM466.887 3.64621C466.155 3.62737 465.404 3.69521 464.662 3.68014C464.699 3.68014 464.736 3.68014 464.764 3.68014C465.478 3.68014 466.201 3.63491 466.896 3.64621H466.887ZM32.5627 24.2875C32.5441 24.2762 32.5627 24.2762 32.5441 24.2687C32.6461 24.2687 32.7388 24.2687 32.8316 24.2687C32.7666 24.2875 32.6368 24.2762 32.5719 24.2875H32.5627ZM46.7957 41.6155C46.7678 41.6042 46.6473 41.6042 46.6473 41.5854C46.7122 41.5854 46.7957 41.5854 46.8606 41.5703C46.8327 41.5854 46.7864 41.6004 46.7864 41.6155H46.7957ZM372.041 1.18101H372.022C372.068 1.15463 372.041 1.11695 372.022 1.0981C372.022 1.11695 372.041 1.15463 372.041 1.18101ZM22.8267 41.3667C22.9102 41.3667 23.04 41.3517 23.1605 41.3667C23.1234 41.3667 23.0585 41.3667 23.0214 41.3667C22.9565 41.3667 22.8731 41.3667 22.8267 41.3667ZM474.49 42.7953C474.453 42.7878 474.453 42.7501 474.379 42.7426C474.407 42.7426 474.444 42.7426 474.49 42.7426C474.49 42.7501 474.49 42.7878 474.49 42.7953ZM479.952 43.6095C479.952 43.6208 479.989 43.6208 480.026 43.6322C479.989 43.6322 479.952 43.6322 479.915 43.6322C479.915 43.6208 479.915 43.6208 479.942 43.6095H479.952ZM3.88339 19.9225C3.87412 19.9075 3.80921 19.8924 3.80921 19.8773C3.8463 19.8886 3.87412 19.8886 3.9483 19.9037C3.93903 19.9037 3.91121 19.9037 3.89266 19.9188L3.88339 19.9225ZM44.4219 43.2628C44.2921 43.2401 44.014 43.2401 43.9027 43.21C44.0603 43.21 44.218 43.21 44.3849 43.21C44.3107 43.2401 44.4312 43.2401 44.4219 43.2628ZM621.206 31.9168C618.795 31.9168 616.357 31.9319 613.965 31.9319C609.347 31.7472 604.878 31.9432 600.473 32.1468C598.081 32.0789 595.828 32.0902 593.714 32.3277C593.241 32.1656 592.777 31.996 592.341 31.8452C597.135 31.9432 601.438 31.668 605.768 31.3929C600.696 31.4079 595.587 31.2534 590.923 31.668C590.812 31.668 590.849 31.6417 590.756 31.6417C590.756 31.6567 590.719 31.6567 590.719 31.668C589.393 31.5851 588.039 31.4833 586.732 31.4079C587.177 31.2534 587.585 31.1177 588.021 30.9594C590.682 30.5636 594.215 30.4731 597.339 30.2168C599.194 30.2507 600.881 30.2093 602.207 29.9039C600.381 29.7004 599.147 29.9303 597.756 30.0095C597.868 29.8738 595.225 29.7192 598.053 29.5873C601.985 29.4064 599.305 29.2669 597.794 29.1312C595.003 28.9013 592.23 28.6751 589.504 28.4452C588.215 28.3623 586.528 28.498 585.591 28.2416C591.034 27.9401 594.539 27.386 594.038 26.3381C597.868 26.2627 596.857 25.1319 601.985 25.309C600.566 25.2035 599.166 25.1017 597.794 25.0075C599.11 24.8982 600.436 24.8002 601.716 24.6871C603.923 24.7059 606.268 24.7587 607.798 24.3328C604.34 24.2385 601.02 23.937 597.543 24.3101C596.421 24.2234 594.817 24.3516 594.205 24.0576C597.515 23.8804 600.965 23.741 603.793 23.3866C604.525 23.3602 605.295 23.3414 606.037 23.3188C609.078 22.9833 614.373 23.3188 615.485 22.4104C615.485 22.3425 615.522 22.2596 615.522 22.1804C616.134 22.041 616.755 21.8902 617.377 21.7394C617.775 21.6602 618.183 21.5773 618.601 21.5132C622.847 21.3398 620.817 20.9252 619.89 20.5746C617.015 19.7077 611.739 20.0356 607.446 19.8849C607.047 19.9301 607.307 19.9791 607.409 20.0356C607.409 19.9791 607.409 19.9301 607.446 19.8849C606.908 19.719 606.398 19.5682 605.861 19.4174C605.99 19.2139 606.037 19.0179 604.98 18.8709C606.732 18.4713 606.167 18.2753 603.255 18.2489C603.292 18.1132 603.329 17.9926 603.357 17.8644C603.357 17.8531 603.357 17.8644 603.338 17.8531C603.357 17.8531 603.357 17.8531 603.357 17.8531C604.062 17.7966 606.343 17.7815 604.405 17.5893C602.819 17.4347 600.427 17.5327 598.693 17.7664C598.971 17.7815 599.231 17.7966 599.509 17.8117H599.472C599.194 17.8004 599.064 17.7287 598.693 17.7664C597.877 17.7966 597.033 17.8117 596.227 17.8381C595.355 17.8079 594.474 17.7966 593.575 17.7664C594.493 17.6345 595.401 17.4913 596.319 17.3443C599.268 17.3895 601.614 17.1256 604.089 16.9334C605.007 16.8505 606.556 16.907 606.658 16.6582C606.862 16.221 607.196 16.2361 608.893 15.9948C610.812 15.731 613.937 15.8026 614.975 15.4068C614.669 14.8828 609.764 15.5387 610.404 14.8301C611.99 14.6642 613.047 14.438 613.121 14.1176C614.595 13.9895 614.595 13.8274 613.445 13.6352C613.659 13.1979 613.955 12.7531 613.983 12.3159C614.02 11.8598 614.298 11.3697 610.246 11.3547C609.903 11.3132 609.505 11.2981 609.069 11.3132C603.885 10.5292 598.674 11.023 593.482 11.2981C591.516 10.8458 591.488 10.8307 594.252 10.6686C596.681 10.5141 599.861 10.5857 600.575 9.99014C604.182 9.73005 608.624 9.81298 611.665 9.2928C614.595 9.11187 617.553 8.91963 621.225 8.68969C618.137 8.21098 615.253 7.86419 611.897 7.62671C611.776 7.32893 611.238 7.08015 608.948 7.148C605.629 6.93691 604.154 6.66928 605.054 5.96817C606.306 5.02205 601.057 3.98547 594.956 3.7103C592.545 3.72915 590.023 3.63114 587.9 3.92139H587.854C584.135 3.90631 580.408 3.92138 576.903 4.16262C576.05 4.16262 575.234 4.15509 574.381 4.15509C574.084 3.51429 569.763 3.92515 567.863 3.51428C576.987 2.91872 586.964 3.14111 596.866 2.07814C591.118 2.07814 587.334 2.09321 583.57 2.06683C578.099 2.04044 572.434 2.54555 567.232 1.88213C566.741 1.88213 566.258 1.88213 565.767 1.88213C563.514 1.87459 561.233 1.86329 558.943 1.86329C558.6 1.83313 558.229 1.81805 557.867 1.83313C553.333 1.5165 548.558 1.39965 543.708 1.39965C538.349 1.04155 532.776 0.939778 527.055 0.951086C515.4 0.378135 503.439 0.378132 491.431 0.464828C487.954 0.321591 484.449 0.321591 480.972 0.464828C479.841 0.464828 478.765 0.464828 477.652 0.464828C475.687 0.182122 473.359 0.238661 471.078 0.238661C457.939 0.238661 444.791 0.238661 431.597 0.238661C418.931 0.148195 406.228 0.163274 393.543 0.298973C387.841 0.355514 381.953 0.0351148 376.371 0.476136C375.981 0.543986 375.536 0.615604 375.128 0.687222C369.723 0.053961 363.937 0.163284 358.058 0.449759C358.234 0.472375 358.41 0.502528 358.549 0.528913C358.457 0.528913 358.373 0.528913 358.299 0.528913C358.698 0.596763 359.152 0.649538 359.551 0.721157C359.273 0.630691 358.874 0.559069 358.299 0.528913L358.058 0.449759C357.177 0.464837 356.268 0.472366 355.369 0.487444C351.271 0.148197 347.107 0.412065 343 0.449759C340.793 0.449759 338.632 0.449752 336.426 0.430905C334.172 0.412058 331.91 0.34044 329.638 0.325362C309.629 0.314054 289.61 0.272596 269.591 0.283904C262.025 0.298982 254.412 0.163277 246.911 0.430905C235.506 0.423366 224.156 0.543994 212.807 0.732465C208.496 0.76262 204.1 0.626918 199.919 0.917163C204.147 0.93224 208.356 0.932239 212.557 0.939778C208.356 0.762616 204.147 0.80408 199.919 0.917163C197.267 0.939779 194.633 0.954858 191.982 0.988782C188.551 0.988782 185.037 0.875697 181.745 1.15086C179.204 1.16217 176.645 1.17725 174.095 1.19987C169.802 1.23756 165.435 1.09433 161.235 1.36572C159.056 1.3808 156.867 1.41095 154.688 1.41849C149.959 1.41849 145.175 1.34311 140.576 1.61451C139.751 1.62958 138.907 1.64466 138.072 1.65974C134.252 1.68612 130.348 1.54666 126.704 1.85198C126.306 1.8256 125.926 1.82559 125.555 1.86705C121.262 1.85197 116.931 1.79543 112.796 2.0706C111.516 2.08191 110.265 2.09699 108.994 2.12714C108.503 2.12714 108.03 2.12714 107.539 2.12714C105.137 2.11583 102.754 2.11583 100.529 2.28922C100.417 2.30053 100.306 2.28922 100.195 2.30053C96.0131 2.28922 91.7942 2.22514 87.8442 2.54931H87.8349C81.6966 2.54931 75.614 2.62093 69.8003 2.99787C68.5578 3.00541 67.2967 3.0318 66.0543 3.05441C63.6249 3.18257 61.1863 3.32582 58.7384 3.45021C58.896 3.47283 59.0907 3.50298 59.202 3.52936C59.3318 3.5746 59.3689 3.6123 59.4338 3.64245C59.1093 3.64999 58.7848 3.67261 58.4695 3.68768C58.5159 3.60099 58.8311 3.55953 58.7384 3.45398C51.2649 3.67261 43.8841 3.93646 36.8001 4.40387C36.3643 4.37371 35.9749 4.38879 35.5947 4.44533C34.5006 4.41894 33.4157 4.38879 32.6646 4.56973C26.8787 4.81851 21.1392 5.11629 15.2698 5.30853C11.2085 5.43669 9.96603 5.8174 10.2442 6.44312C8.55664 6.71075 9.23352 7.06884 9.12225 7.40432C7.87976 8.00366 7.90758 8.63692 8.08375 9.2551C7.62941 9.80544 7.44396 10.3558 8.12084 10.891C7.64795 11.3019 7.91685 11.6901 9.07589 12.0595C8.51955 12.4327 8.15793 12.8021 9.01098 13.1866C6.44255 13.801 10.3091 14.6567 6.20147 15.2221C6.27565 15.2447 6.47964 15.2673 6.58164 15.2749C6.55382 15.2749 6.55382 15.2862 6.51673 15.2862L6.20147 15.2221C4.47682 15.2862 2.78926 15.3729 2.27001 15.7159C0.767895 15.991 1.25933 16.3454 1.07388 16.6658C1.04606 16.8128 1.00897 16.9598 0.971884 17.1332C-1.20711 18.3545 0.925524 19.5908 1.15733 20.8272C1.62095 20.8951 2.04747 20.8272 2.51109 20.8159C2.04747 20.8159 1.59313 20.8159 1.15733 20.8272C1.63949 21.3512 2.11238 21.8864 2.54818 22.4217C3.00252 22.8061 3.41978 23.1906 3.83703 23.5864C3.83703 23.888 4.66227 24.1141 6.11802 24.2875C6.09948 24.5062 6.0902 24.7097 6.06239 24.9396C4.01321 25.407 2.14947 25.8556 7.95394 25.8858C7.91685 25.8179 7.86121 25.7501 7.84267 25.6671C7.90757 25.6671 7.97248 25.6671 8.05593 25.6671C7.87976 25.7388 7.6665 25.8028 7.96321 25.8858C10.4389 26.1873 15.0936 25.4485 16.2619 26.3645C17.1335 26.3946 17.3839 26.2702 17.7362 26.1873H17.7455C18.1257 26.1609 18.5336 26.1308 18.9509 26.1308C18.9602 26.1308 18.9602 26.1308 18.9787 26.1308H18.9509C18.9416 26.1873 18.7469 26.1722 18.7191 26.2137C18.3946 26.2024 18.0978 26.1458 17.7455 26.1873C17.2448 26.2439 16.7626 26.3079 16.2619 26.3645C15.3532 26.3796 14.4167 26.3946 13.5173 26.4097C10.0958 26.3645 6.65581 26.3079 3.36414 26.5454C1.82494 26.5303 0.508271 26.6736 0.387731 26.9035C0.257919 27.1674 1.96402 27.1221 2.95616 27.1334C7.2307 27.205 11.5238 27.2578 15.8076 27.3144C15.8354 27.4538 15.8725 27.5895 15.9096 27.7441C12.6735 27.7441 9.44678 27.7441 5.7564 27.7441C8.18574 28.5658 12.9424 27.6423 14.6949 28.3434C14.7691 28.3887 15.0287 28.3585 15.1678 28.3886C15.0009 28.4339 15.0194 28.4716 14.7505 28.5168C14.5651 28.4603 14.5558 28.4 14.7042 28.3472C12.4974 28.4037 10.2998 28.4452 8.08375 28.4829C6.23856 28.4753 4.0132 28.3057 2.94689 28.694C2.56672 28.8146 4.08738 28.8447 4.8848 28.8862C8.705 28.7241 10.9674 29.3951 14.5002 29.38C14.0737 31.1554 12.3397 32.9383 16.3917 34.6723C16.4474 34.7476 16.503 34.8343 16.5401 34.9022C16.5123 35.151 16.4659 35.3809 16.4474 35.6146C16.3176 35.7541 16.1785 35.8898 16.0672 36.0255C16.1414 36.1084 16.3825 36.312 16.5123 36.4288C16.4196 36.4401 16.503 36.4703 16.3825 36.4853C17.2819 36.3006 16.9017 36.1649 16.0672 36.0255C14.8433 36.4853 14.2498 36.9528 15.1029 37.4579C11.598 38.4643 14.1386 39.6818 10.6893 40.6882C10.2071 40.9182 9.02025 41.1406 10.3369 41.4007C10.0495 41.6306 9.78058 41.8681 9.49314 42.1131C9.51169 42.1131 9.51169 42.1131 9.51169 42.1131C9.51169 42.1131 9.51169 42.1131 9.49314 42.1131C9.42824 42.3996 9.34479 42.7049 9.27988 42.9951C9.3077 43.2552 8.92753 43.5379 10.782 43.6811C11.1992 43.6661 11.6072 43.6812 11.9688 43.7226C11.0694 43.8583 10.1607 43.9978 9.24279 44.1335C9.02025 44.6009 9.27988 44.9439 13.0352 44.9024C19.1827 44.8308 25.3395 44.8308 31.4963 44.812C36.6054 44.8497 41.7608 44.9741 46.7307 44.6424L47.1016 44.6725L47.4633 44.6273C51.5894 44.9741 56.1143 44.9741 60.528 45.0381C68.1591 45.5546 76.2631 45.3133 84.126 45.4829C93.3148 45.5885 102.467 45.8787 111.748 45.7581C112.212 45.7581 112.666 45.7581 113.13 45.7468C117.061 46.169 121.493 45.8373 125.592 45.9654C128.336 45.9654 131.1 45.9654 133.844 45.9654C133.399 45.8938 132.954 45.8222 132.509 45.7581C132.546 45.7581 132.583 45.7581 132.639 45.7468C132.954 45.8222 133.297 45.9089 133.844 45.9654C135.272 45.9654 136.681 45.9654 138.119 45.9767C143.571 46.0031 149.051 46.0295 154.549 46.0559C159.547 46.4705 164.767 46.0031 169.849 46.169C170.813 46.233 171.137 46.1577 171.286 46.022C173.613 45.9503 176.386 46.169 178.073 45.7129C178.574 45.7279 179.065 45.7581 179.575 45.7656C183.785 46.2745 188.013 46.7193 192.278 45.7807C192.742 45.7129 193.196 45.645 193.651 45.5734C194.021 45.5621 194.383 45.5546 194.782 45.5319C195.663 45.6149 196.534 45.6865 197.424 45.7619C197.749 46.0446 198.454 46.1765 200.456 46.2217C205.157 46.3424 209.645 46.1954 214.133 46.0182C214.458 45.9315 214.207 45.8523 214.013 45.7619C214.087 45.7619 214.17 45.7619 214.235 45.7619C214.198 45.8486 214.17 45.9277 214.124 46.0182C215.468 46.4969 217.851 46.0521 219.585 46.1954C222.923 46.1954 226.28 46.1803 229.627 46.1803C231.064 46.1803 232.78 46.3424 233.698 46.0031C239.15 46.4818 244.583 46.0823 250.026 45.9843C252.493 46.0483 254.848 46.0031 256.962 45.7656C258.974 46.1577 260.93 46.5911 264.213 46.0484C264.825 45.9202 264.649 45.7996 263.925 45.7016H263.935C264.009 45.8109 264.111 45.9315 264.213 46.0484C266.002 45.7581 268.042 46.5007 269.758 46.0031C270.147 46.0031 270.546 46.0031 270.917 45.9843C275.562 45.7279 280.171 46.6628 284.807 45.9843C285.697 46.0031 286.578 46.0031 287.459 46.022C289.767 46.0484 292.122 46.2255 294.404 45.9767C296.202 46.0031 298.02 46.0295 299.865 46.0559C301.729 45.9089 307.969 46.2104 302.693 45.2982C304.102 45.2982 305.512 45.2982 306.921 45.2982C311.474 45.5093 315.776 45.9654 320.811 45.7656C322.675 45.9767 324.557 45.7581 326.43 45.7656C327.237 45.7656 328.006 45.7656 328.776 45.7656C329.879 45.9654 330.946 46.0484 332.04 45.7656C333.616 45.5885 335.665 45.4264 333.273 45.0532C333.273 44.9967 333.273 44.9477 333.273 44.8761C335.1 44.8497 336.954 44.8195 338.799 44.7931C342.638 44.7404 346.792 44.9326 350.139 44.4388C351.391 44.4086 352.615 44.3973 353.858 44.3672C354.822 44.4539 355.721 44.567 356.732 44.6197C357.808 44.6876 359.143 44.9477 360.116 44.6876C361.062 44.4388 358.624 44.386 358.308 44.1938L358.123 44.1373C362.277 44.1636 366.394 44.1787 370.557 44.2089V44.3446C369.519 44.386 368.424 44.4388 367.377 44.4953C367.849 44.7705 369.129 44.9213 370.594 45.0419C369.036 45.7845 371.54 45.841 374.85 45.7619C375.796 45.694 376.714 45.6224 377.65 45.5395C379.115 45.5244 380.766 45.596 381.684 45.302C385.152 45.2379 388.842 45.7317 392.134 45.2115C390.715 44.7818 387.229 45.0005 385.699 44.6348C389.25 44.6801 391.216 44.141 394.183 43.9601C395.092 43.9601 395.963 43.9601 396.853 43.9601C396.798 44.4162 397.901 44.6348 400.748 44.6348C403.585 44.6235 403.826 44.3144 403.882 43.9601C405.254 43.9375 406.626 43.9186 407.98 43.8922C408.203 43.8206 407.878 43.7641 407.776 43.7113C407.841 43.7113 407.915 43.7113 407.943 43.7113C407.98 43.7113 407.98 43.7113 407.98 43.7113H407.943C407.98 43.7641 407.98 43.8206 407.98 43.8922C408.425 43.9186 408.898 43.9375 409.334 43.9601C409.872 44.1674 407.238 44.5255 410.233 44.6047C413.182 44.6876 413.673 44.3446 413.627 43.9601C413.989 43.9036 414.424 43.9036 414.869 43.9488C415.342 44.1674 415.843 44.386 416.307 44.6235C416.279 44.68 416.26 44.7328 416.26 44.7818C414.628 44.9364 412.023 44.6763 410.836 45.2492C414.193 45.1437 417.169 45.0381 419.737 45.4716C420.915 45.6639 423.205 45.5395 424.781 45.3359C427.943 45.2907 431.226 45.6639 434.341 45.2907C435.76 45.2907 437.243 45.3472 438.124 45.0871C440.211 44.9628 439.747 44.6612 439.951 44.4011C440.906 44.386 441.843 44.371 442.798 44.3446C444.142 44.4124 445.403 44.386 446.265 44.1787C446.599 44.1561 446.915 44.1109 447.248 44.0845C446.915 44.1146 446.507 44.1146 446.265 44.1787C448.862 44.533 451.847 44.1561 454.648 44.1561C455.64 44.1787 456.715 44.141 457.522 44.3483C459.664 44.7743 454.648 44.5293 455.974 44.8949C458.876 44.8534 462.529 44.9929 462.056 44.141C465.672 44.1976 468.677 45.0381 472.877 44.371C474.861 44.4426 476.827 44.8157 478.913 44.4162C480.174 44.3898 481.435 44.3596 482.678 44.3333C483.151 44.3483 483.624 44.3483 484.087 44.3634C487.555 44.3634 491.589 44.665 493.832 43.9073C493.832 43.7603 493.832 43.6058 493.851 43.455C493.944 43.455 493.999 43.455 494.055 43.455C493.489 43.5907 493.174 43.7452 493.832 43.9073C496.874 44.1259 500.073 44.5368 502.14 43.7038C502.483 43.6058 502.14 43.5379 501.918 43.4738C502.011 43.4738 502.076 43.4738 502.14 43.4738C502.14 43.5379 502.14 43.6208 502.14 43.7038C504.505 43.8659 506.869 44.0694 509.299 43.7339C511.533 43.7188 513.759 43.7038 515.947 43.6925C518.052 43.749 519.878 43.6359 521.649 43.4588C522.985 43.4588 524.338 43.4588 525.701 43.4588C528.001 43.2401 530.3 43.0064 532.6 42.7727C535.363 42.6069 538.108 43.2891 540.899 42.7803C540.426 42.6333 539.962 42.4825 539.48 42.3129C539.48 42.2375 539.517 42.1659 539.517 42.0829C541.075 41.902 543.3 41.8907 544.163 41.5326C542.364 41.2348 541.029 41.5627 539.517 41.6155C539.081 41.6155 538.646 41.6155 538.163 41.6155C538.163 41.4685 538.163 41.3253 538.163 41.1896C539.118 41.0953 540.055 41.0124 541.029 40.9295C544.116 40.6807 547.834 41.1481 550.672 40.6807C550.7 40.6807 550.7 40.6807 550.7 40.6807H550.672C552.999 40.3226 557.431 40.6807 558.785 40.0097C561.65 40.1869 564.126 40.0663 567.102 39.776C563.857 39.776 561.353 39.776 558.85 39.776C559.434 39.58 560.473 39.5461 561.594 39.5235C563.069 39.4179 564.515 39.3162 567.121 39.1277C564.219 39.0749 562.707 39.041 561.65 39.3049C561.214 39.3049 560.769 39.3049 560.333 39.2973C560.454 38.9392 563.653 38.5774 560.454 38.208C562.225 38.1967 564.033 38.1627 565.813 38.1514C566.945 38.3135 566.017 38.8111 567.547 38.7281C569.903 38.5887 567.705 38.2344 567.482 37.9705C567.51 37.9705 567.51 37.9705 567.51 37.9705C573.704 37.8046 579.787 37.5709 586.37 37.1337C580.723 36.8698 576.365 37.7933 571.497 37.2468C575.076 36.9791 579.23 36.9791 582.522 36.5683C585.675 36.4213 589.949 36.6663 591.145 35.8559C591.878 35.8144 592.796 35.7993 592.545 35.6108C594.233 35.6222 595.939 35.6335 597.655 35.6523C600.891 36.1046 603.403 35.6108 606.278 35.445C603.125 35.5242 600.585 35.1284 597.543 35.1849C595.55 35.1547 593.519 35.0718 592.045 35.4035C590.292 35.4035 588.484 35.3884 586.704 35.3884C586.185 35.3206 585.712 35.2414 585.248 35.1698C586.287 35.1472 587.464 35.1472 587.919 34.921C594.409 34.8645 600.158 34.3971 606.009 34.0051C606.908 33.9862 607.817 33.9749 608.735 33.9636C610.32 33.7563 611.48 33.4962 611.952 33.1607C609.977 32.9723 608.818 33.2474 607.418 33.3266C606.88 33.3266 606.37 33.3266 605.833 33.3266C603.885 33.2663 602.17 33.3492 600.557 33.5301C598.276 33.5301 596.023 33.549 593.797 33.5565C592.49 33.4359 591.396 33.2135 589.606 33.2663C590.116 33.1343 590.645 32.9911 591.155 32.8592C594.261 32.3767 598.897 32.9157 601.975 32.388C605.517 32.3767 609.069 32.3465 612.629 32.3315C615.634 32.486 618.156 32.1128 621.039 32.1015C622.393 31.9206 624.952 32.1995 626 31.7887C623.867 31.6341 622.337 31.6341 621.169 31.9357L621.206 31.9168Z" fill="#FD6666" fill-opacity="0.25"/>
</svg>
