<svg width="424" height="76" viewBox="0 0 424 76" fill="none" xmlns="http://www.w3.org/2000/svg">
<path d="M406.636 75.0218C407.044 74.785 407.785 74.8565 408.161 74.5972C408.186 74.6106 408.229 74.6017 408.254 74.6106C407.618 74.6643 406.994 74.6956 406.636 75.0218ZM11.9052 30.0215C11.9052 30.0885 11.9052 30.16 11.9052 30.227C11.8558 30.2628 11.7755 30.2896 11.7138 30.3254C10.4665 30.3254 9.22532 30.3164 7.97798 30.3164C9.29941 30.227 10.5961 30.1242 11.9052 30.0215ZM5.80441 27.1165C5.77971 27.1746 5.75501 27.2237 5.75501 27.2952C5.1931 27.2327 4.57561 27.3087 4.05074 27.121C4.63736 27.1031 5.2178 27.1165 5.81059 27.1165H5.80441ZM188.02 7.01848H188.001V7.014C188.02 7.014 188.02 7.01848 188.02 7.01848ZM235.925 7.01848V7.014V7.01848ZM369.513 6.66989C369.482 6.69671 369.482 6.728 369.445 6.75928C369.42 6.728 369.389 6.71012 369.327 6.67437C369.401 6.68331 369.445 6.66096 369.513 6.66989ZM418.189 27.2952C418.189 27.2237 418.165 27.1701 418.14 27.1165C418.733 27.1165 419.319 27.1031 419.881 27.121C419.387 27.3087 418.751 27.2327 418.196 27.2952H418.189ZM412.218 30.3209C412.175 30.2851 412.082 30.2583 412.045 30.2226C412.045 30.1555 412.045 30.084 412.045 30.017C413.348 30.1153 414.651 30.2226 415.96 30.3119C414.725 30.3119 413.484 30.3209 412.224 30.3209H412.218ZM406.76 73.1135C406.457 73.1179 406.21 73.1939 405.938 73.2297C406.241 73.2297 406.506 73.1894 406.76 73.1135ZM281.224 66.8655C281.224 66.8745 281.181 66.8834 281.181 66.9013C281.156 66.8834 281.156 66.87 281.131 66.8655C281.181 66.8655 281.205 66.8655 281.224 66.8655ZM142.782 66.9013C142.776 66.8834 142.714 66.8745 142.714 66.8655C142.739 66.8655 142.782 66.8655 142.801 66.8655C142.789 66.87 142.782 66.8834 142.782 66.9013ZM12.6215 32.8862C11.1025 32.8862 9.57728 32.8773 8.05208 32.8773C9.71313 32.846 11.1581 32.1756 12.9241 32.4572C12.9982 32.6494 12.7821 32.7611 12.6153 32.8862H12.6215ZM54.4997 6.75481C54.475 6.72353 54.4565 6.69224 54.4256 6.66542C54.4936 6.65648 54.5244 6.67883 54.5924 6.66989C54.5676 6.70565 54.5183 6.72353 54.4997 6.75481ZM123.424 1.67333C122.949 1.6778 122.485 1.68674 121.998 1.69567C122.479 1.70461 122.961 1.794 123.424 1.67333ZM132.495 3.27776C132.495 3.26882 132.52 3.26884 132.52 3.26437C132.526 3.26884 132.501 3.26882 132.52 3.27776C132.501 3.27776 132.501 3.27776 132.495 3.27776ZM183.105 5.78497C183.135 5.78497 183.179 5.78497 183.209 5.78497C183.179 5.79838 183.135 5.7984 183.123 5.7984C183.105 5.7984 183.105 5.79838 183.105 5.78497ZM182.401 7.83187C182.487 7.78271 182.573 7.74251 182.641 7.70675C182.654 7.74251 182.604 7.78718 182.641 7.83187C182.555 7.83187 182.487 7.83187 182.401 7.83187ZM241.297 7.70675C241.389 7.74251 241.482 7.78718 241.569 7.83187C241.476 7.83187 241.383 7.83187 241.315 7.83187C241.34 7.78271 241.297 7.74251 241.297 7.70675ZM240.846 5.78497C240.846 5.79838 240.846 5.7984 240.846 5.7984C240.803 5.78499 240.79 5.79838 240.753 5.78497C240.784 5.78497 240.821 5.78497 240.846 5.78497ZM291.431 3.26437C291.431 3.26884 291.462 3.26882 291.462 3.27776C291.449 3.27776 291.449 3.27776 291.449 3.27776C291.449 3.26882 291.431 3.26884 291.431 3.26437ZM301.941 1.70015C301.465 1.69121 301.002 1.68228 300.527 1.67781C300.996 1.80294 301.459 1.71356 301.941 1.70015ZM411.335 32.8907C411.187 32.7655 410.946 32.6538 411.039 32.4616C412.805 32.1845 414.262 32.8504 415.898 32.8817C414.367 32.8817 412.867 32.8907 411.329 32.8907H411.335ZM21.2911 20.7434C21.2911 20.8238 21.4331 20.8685 21.4084 20.949C21.0441 20.6361 20.229 20.6942 19.7535 20.4708C20.229 20.6049 20.7106 20.73 21.2911 20.7434ZM69.9185 9.06985C69.9432 9.04751 69.9864 9.06986 70.0111 9.04751C70.0358 9.05645 70.0358 9.07433 70.0543 9.0788C69.9802 9.0788 69.9679 9.06985 69.9185 9.06985ZM86.6833 7.11681C86.708 7.08106 86.7327 7.06764 86.7513 7.02295C86.7636 7.02295 86.7822 7.02742 86.8007 7.02742C86.7636 7.06318 86.7204 7.09 86.6833 7.11681ZM111.457 5.87436C111.661 5.81626 111.821 5.84308 112.044 5.76263C111.963 5.85649 111.834 5.8565 111.735 5.94141C111.636 5.92354 111.562 5.88777 111.457 5.87436ZM137.416 5.00286C137.367 5.00286 137.336 5.00286 137.274 5.00286C137.287 5.00286 137.299 4.99394 137.299 4.985C137.342 4.99394 137.373 4.985 137.416 4.985V5.00286ZM151.057 5.38724C151.125 5.36042 151.125 5.32914 151.174 5.30232C151.149 5.32914 151.168 5.36042 151.149 5.38724C151.125 5.38724 151.081 5.38724 151.057 5.38724ZM168.007 5.82968C168.007 5.81181 167.939 5.82075 167.939 5.80287C167.97 5.80287 168.013 5.80287 168.044 5.80287C168.025 5.81181 168.013 5.82074 168.007 5.82968ZM255.975 5.82968C255.962 5.82074 255.931 5.81181 255.9 5.80287C255.962 5.80287 255.975 5.80287 256.018 5.80287C256.018 5.82075 255.975 5.81181 255.975 5.82968ZM257.753 5.78053C257.753 5.87885 257.914 5.8565 257.957 5.94141C257.839 5.87884 257.734 5.84757 257.629 5.78053C257.66 5.78053 257.716 5.785 257.753 5.78053ZM272.801 5.29785C272.832 5.32466 272.863 5.35595 272.906 5.38276C272.888 5.38276 272.863 5.38276 272.814 5.38276C272.814 5.35595 272.814 5.32466 272.801 5.29785ZM273.246 5.3649C273.129 5.3649 273.011 5.37829 272.906 5.38276C272.925 5.31572 273.042 5.26657 273.129 5.2174C273.159 5.26657 273.178 5.32467 273.246 5.3649ZM286.547 4.99842V4.98052C286.59 4.98052 286.633 4.98946 286.652 4.98052C286.676 4.98946 286.676 4.99842 286.676 4.99842C286.633 4.99842 286.59 4.99842 286.547 4.99842ZM311.907 5.75371C312.142 5.83416 312.296 5.81181 312.518 5.86544C312.401 5.87885 312.314 5.91459 312.228 5.93247C312.142 5.84755 311.993 5.84757 311.907 5.75371ZM337.212 7.014C337.23 7.06317 337.249 7.07211 337.28 7.10787C337.236 7.08105 337.212 7.0587 337.162 7.01848C337.187 7.01848 337.187 7.014 337.212 7.014ZM354.051 9.0609C353.977 9.0609 353.977 9.06985 353.921 9.06985C353.933 9.06538 353.933 9.0475 353.952 9.03856C353.977 9.06091 354.026 9.03856 354.051 9.0609ZM402.555 20.94C402.536 20.8596 402.659 20.8149 402.659 20.7344C403.271 20.721 403.746 20.5914 404.222 20.4618C403.728 20.6853 402.937 20.6272 402.555 20.94ZM23.8228 15.2195C23.8228 15.2061 23.8228 15.2195 23.8228 15.2061C23.8228 15.2195 23.8228 15.2195 23.8228 15.2195ZM64.2931 8.64975C64.2993 8.64081 64.3178 8.63632 64.324 8.63632C64.324 8.64079 64.3178 8.64081 64.3178 8.64975C64.2993 8.64975 64.2993 8.64975 64.2931 8.64975ZM119.762 6.89335C119.793 6.87995 119.855 6.87994 119.898 6.86207C119.898 6.86207 119.911 6.86207 119.923 6.86207C119.873 6.86207 119.812 6.89335 119.762 6.89335ZM166.019 5.93247C166.037 5.84755 166.204 5.8699 166.21 5.77158C166.253 5.77605 166.303 5.77158 166.34 5.77158C166.229 5.83862 166.117 5.8699 166.019 5.93247ZM257.951 7.19726C257.926 7.19726 257.914 7.19724 257.895 7.18384C257.914 7.17937 257.926 7.18386 257.951 7.17939C257.951 7.18386 257.951 7.19726 257.951 7.19726ZM281.798 5.77158C281.767 5.77605 281.767 5.78946 281.742 5.7984C281.742 5.78946 281.73 5.78945 281.73 5.78945C281.742 5.77157 281.767 5.77605 281.804 5.77158H281.798ZM304.077 6.85759C304.096 6.87547 304.17 6.87547 304.201 6.88888C304.139 6.88888 304.096 6.85759 304.052 6.85759C304.052 6.85759 304.052 6.85759 304.077 6.85759ZM308.054 4.13587C307.399 4.13587 306.745 4.14479 306.102 4.14479C306.751 4.14926 307.405 4.28335 308.054 4.13587ZM359.62 8.61846C359.645 8.63187 359.645 8.63633 359.676 8.64527H359.645C359.645 8.63633 359.62 8.63634 359.62 8.61846ZM400.146 15.215C400.146 15.215 400.146 15.215 400.146 15.2016C400.146 15.215 400.146 15.2016 400.146 15.215ZM404.24 27.5098C404.148 27.4517 404.123 27.3355 404.03 27.2997C404.098 27.2684 404.179 27.2684 404.24 27.2237C404.271 27.3176 404.24 27.4204 404.24 27.5098ZM77.9273 13.9815C78.0138 13.9904 78.1002 13.9592 78.1867 13.9636C78.1434 13.9815 78.0817 13.9815 78.0508 14.0128C78.0138 13.9949 77.9582 14.0083 77.9273 13.986V13.9815ZM93.6795 11.6977C93.5992 11.7067 93.5066 11.7067 93.4202 11.7201C93.5066 11.7022 93.5807 11.7067 93.6486 11.6977C93.661 11.6977 93.6733 11.6977 93.6795 11.6977ZM142.239 5.78945C142.22 5.78945 142.214 5.78946 142.202 5.7984C142.202 5.78946 142.177 5.77605 142.177 5.77158C142.196 5.77605 142.22 5.77157 142.245 5.78945H142.239ZM166.012 7.19726C166 7.19726 166.012 7.18386 166 7.17939C166.025 7.18386 166.037 7.17937 166.074 7.18384C166.062 7.19724 166.037 7.19726 166.012 7.19726ZM330.518 11.7201C330.432 11.7067 330.364 11.7067 330.271 11.6977H330.296C330.388 11.7067 330.444 11.7022 330.518 11.7201ZM346.036 13.9815C346.011 14.0038 345.943 13.9904 345.918 14.0083C345.875 13.9815 345.801 13.9815 345.782 13.9592C345.857 13.9547 345.943 13.986 346.036 13.977V13.9815ZM43.4034 13.5614C43.3972 13.5614 43.3849 13.5614 43.3849 13.5614C43.3849 13.5614 43.3972 13.5614 43.4034 13.5614ZM54.6912 11.2195C54.6665 11.1838 54.6479 11.1525 54.6294 11.1212C54.6418 11.1301 54.6788 11.1212 54.7097 11.1301C54.6912 11.1525 54.7035 11.1883 54.6912 11.2195ZM55.6297 12.7391C55.5556 12.7257 55.5001 12.7257 55.4445 12.7257C55.4939 12.7212 55.5618 12.7078 55.6359 12.6988C55.6359 12.7078 55.6174 12.7212 55.6297 12.7435V12.7391ZM132.637 8.6408C132.618 8.65421 132.588 8.66762 132.563 8.67209C132.569 8.67209 132.569 8.67208 132.569 8.66761C132.581 8.65421 132.594 8.65421 132.612 8.64975C132.625 8.64081 132.631 8.64974 132.631 8.6408H132.637ZM291.369 8.67656C291.351 8.66762 291.326 8.65421 291.301 8.6408C291.301 8.64974 291.32 8.64081 291.32 8.64975C291.344 8.65421 291.363 8.66761 291.363 8.66761C291.363 8.67208 291.363 8.67209 291.363 8.67656H291.369ZM369.247 11.2195C369.247 11.1838 369.247 11.1525 369.229 11.1301C369.247 11.1212 369.303 11.1301 369.321 11.1212C369.303 11.1525 369.278 11.1883 369.247 11.2195ZM380.572 13.5614C380.547 13.5614 380.547 13.5614 380.547 13.5614C380.547 13.5614 380.547 13.5614 380.572 13.5614ZM53.802 12.7212C53.802 12.7122 53.802 12.7078 53.802 12.7078C53.802 12.7078 53.8081 12.7122 53.8081 12.7212H53.802ZM126.227 9.29331C125.993 9.23521 125.752 9.195 125.511 9.16371C125.808 9.13243 126.018 9.18604 126.32 9.14582C126.252 9.19498 126.283 9.23521 126.227 9.29331ZM370.161 12.7078C370.161 12.7078 370.161 12.7122 370.161 12.7212C370.136 12.7212 370.136 12.7212 370.136 12.7212C370.136 12.7122 370.136 12.7078 370.161 12.7078ZM297.637 9.14582C297.952 9.18604 298.149 9.13243 298.433 9.16371C298.192 9.19053 297.97 9.23521 297.729 9.29331C297.655 9.23521 297.698 9.19498 297.637 9.14582ZM377.367 9.25755C377.367 9.25755 377.379 9.2531 377.379 9.24416C377.367 9.30226 377.398 9.34246 377.423 9.39162C377.398 9.39162 377.379 9.3827 377.367 9.3827C377.367 9.34695 377.367 9.30224 377.367 9.25755ZM368.315 12.6944C368.376 12.7033 368.444 12.7167 368.512 12.7212C368.444 12.7212 368.376 12.7212 368.327 12.7346C368.327 12.7167 368.315 12.7033 368.315 12.6899V12.6944ZM46.5958 9.37823C46.5835 9.37823 46.5588 9.38717 46.5403 9.38717C46.5588 9.33801 46.5835 9.29778 46.5712 9.23968C46.5835 9.24862 46.5897 9.25309 46.5958 9.26202C46.5958 9.29331 46.5958 9.338 46.5958 9.37375V9.37823ZM150.828 5.20846C150.927 5.25762 151.044 5.30678 151.051 5.37382C150.939 5.36935 150.841 5.35595 150.729 5.35595C150.785 5.3202 150.804 5.25762 150.828 5.20846ZM115.878 4.13587C116.539 4.28335 117.2 4.14926 117.848 4.14479C117.848 4.14479 117.848 4.14479 117.842 4.14479C117.181 4.14479 116.533 4.13587 115.878 4.13587ZM19.7041 27.2282C19.7721 27.2729 19.8585 27.2729 19.9326 27.3042C19.8153 27.3355 19.7968 27.4561 19.7165 27.5142C19.7165 27.4293 19.6733 27.3265 19.7041 27.2282ZM125.987 4.1001C125.69 4.03307 125.419 3.96156 125.147 3.90346C125.147 3.90346 125.147 3.9124 125.147 3.90346C125.375 4.02413 125.598 4.15374 125.987 4.1001ZM79.2611 68.0767C79.2611 68.0767 79.2611 68.0767 79.2673 68.0767C79.2611 68.0767 79.2673 68.0767 79.2611 68.0767ZM344.702 68.0901C344.702 68.0767 344.702 68.0767 344.702 68.0767C344.702 68.0767 344.702 68.0767 344.702 68.0901ZM423.994 34.3163C423.846 34.1152 423.574 34.0795 423.345 33.9678C423.66 33.8382 423.901 33.7041 423.463 33.4225C423.191 33.2393 422.79 33.427 422.401 33.5298C422.061 33.4717 421.752 33.427 421.444 33.3734C420.987 33.0024 420.295 32.8817 419.511 32.8862C418.399 32.5778 417.325 32.2829 416.238 31.9745C416.09 31.8404 415.775 31.8225 415.565 31.7287C415.713 31.6885 415.88 31.6482 416.034 31.617C418.69 32.265 421.351 32.3275 424 31.5991C423.537 31.1656 422.543 31.2415 421.851 31.027C421.598 30.9198 421.357 30.7901 420.95 30.7901C420.295 30.6874 419.937 30.2851 419.122 30.3075C418.183 30.3343 417.232 30.3075 416.275 30.3075C416.38 30.2986 416.516 30.2494 416.516 30.236C416.473 30.1332 416.38 30.0259 416.306 29.9365C416.399 29.6416 416.782 29.5835 417.214 29.5388C419.122 29.5924 421.085 29.579 423.197 29.1097C421.011 28.4572 419.214 28.7835 417.455 28.8013C417.01 28.8013 416.559 28.788 416.108 28.7835C415.417 28.5913 414.571 28.4438 414.589 27.9165C414.589 27.9209 414.614 27.9209 414.614 27.9209C414.614 27.9165 414.614 27.9165 414.614 27.8941H414.645C415.516 27.8003 416.473 28.0282 417.337 27.8941C418.443 27.8941 419.517 27.8941 420.561 27.8941C421.419 27.8896 422.209 27.7645 422.117 27.2014C422.03 26.7545 421.302 26.7276 420.61 26.7411C419.573 26.7411 418.585 26.5846 417.59 26.455C417.14 26.2986 416.664 26.1601 416.281 25.9902C416.176 25.9366 416.108 25.8696 415.991 25.8204C417.56 25.588 419.449 26.4148 420.783 25.4226C420.894 25.2617 421.024 25.0964 421.178 24.9355C421.283 24.8819 421.376 24.8327 421.481 24.7701C421.45 24.7523 421.394 24.712 421.357 24.6808C421.376 24.6584 421.425 24.6093 421.45 24.578C421.481 24.0595 420.882 23.8495 419.98 23.7824C419.955 23.7824 419.955 23.7869 419.943 23.7869C419.955 23.7825 419.955 23.7869 419.98 23.7824C420.005 23.5277 420.005 23.273 420.023 23.0227C422.049 22.9109 420.882 22.5043 420.591 21.9903C420.295 21.4719 419.863 21.235 419.332 21.1501C419.282 20.5467 418.517 19.9389 417.837 19.3356C421.647 17.8071 417.837 17.1636 416.306 16.234C417.862 15.3133 419.239 16.4217 421.394 16.1357C418.597 14.8128 417.59 12.9625 413.898 12.2743C413.268 12.0329 412.657 11.7961 412.033 11.5503C410.292 11.0318 408.674 10.2452 406.624 11.3313C405.432 11.9659 404.74 10.2318 403.339 11.081C400.98 11.2776 399.51 9.67765 396.954 10.2586C396.806 10.2586 396.837 10.2765 396.719 10.2721C396.861 9.87878 396.769 9.49441 395.713 9.13687C395.725 8.82403 395.75 8.50227 395.787 8.18496C396.954 7.27324 396.04 6.79057 394.391 6.4822C392.909 5.81182 391.106 6.29001 389.458 6.13806C389.482 5.91013 389.495 5.67327 389.513 5.44534C390.717 5.39171 391.989 5.57046 393.508 4.98052C389.908 3.85876 386.413 4.25204 383.079 4.19841C383.079 4.19841 383.079 4.19842 383.079 4.20289C383.079 4.19842 383.079 4.19841 383.079 4.19841C382.48 4.18501 381.869 4.18054 381.263 4.1716C380.269 4.14478 379.281 4.11349 378.293 4.08221C377.75 4.21629 377.207 4.33698 376.676 4.46658C377.169 4.52021 377.67 4.56489 378.145 4.61852C377.892 4.84645 377.62 5.0744 377.379 5.30679C376.811 5.34255 376.268 5.39171 375.725 5.44534C374.619 5.48109 373.323 4.98946 372.44 5.73582L372.415 5.67324C370.914 5.74922 369.624 6.29448 367.969 6.13806C366.098 5.95035 365.561 6.652 365.196 7.4073C364.974 7.38495 364.721 7.35814 364.505 7.33133C363.529 6.72798 363.955 5.67773 362.097 5.37829C360.158 5.42298 358.287 5.26208 356.453 4.97605C355.045 4.97605 353.674 4.97605 352.056 4.97605C352.933 5.54364 353.989 5.27551 354.773 5.44534C355.607 5.69561 356.453 5.94589 357.274 6.20063C357.064 6.23192 356.842 6.2453 356.644 6.23189C356.267 6.23189 355.891 6.22297 355.514 6.2185C354.273 6.51347 352.427 5.42746 351.599 6.66989C352.618 7.57267 351.482 7.75589 350.074 7.8274C349.172 6.62966 347.326 7.7693 346.091 7.4073C345.795 7.13914 345.486 6.87548 345.196 6.61627C342.51 6.77716 342.646 5.89671 342.905 4.97605C343.232 4.92242 343.757 4.92244 343.936 4.7973C344.375 4.48446 343.979 4.38167 343.368 4.38167C342.411 4.3772 341.571 3.86323 340.484 4.18055C339.404 4.57384 338.867 5.54811 336.958 5.03415C335.446 4.7079 333.914 4.65876 332.383 4.96713C332.198 4.90009 332 4.89562 331.796 4.93584C330.882 4.35485 329.592 4.5783 328.419 4.53808C328.382 4.43976 328.314 4.33696 328.264 4.22523C328.227 3.84982 330.45 3.53697 328.715 3.21519C326.56 2.81296 324.028 1.66887 321.941 3.35376C321.676 3.51018 321.404 3.66659 321.132 3.82302C319.218 3.89005 320.323 2.10238 317.94 2.45992C317.958 1.8387 317.81 1.29791 316.248 1.26662C316.032 0.783948 317.582 -0.279718 314.772 0.0688792C312.858 0.17614 311.252 0.457702 311.487 1.6912C310.95 1.82528 310.431 1.95934 309.888 2.09789C308.356 1.5884 307.455 0.444285 305.028 0.900144C303.361 0.886736 301.632 0.663284 300.255 1.38282C299.464 1.47221 298.699 1.57052 297.933 1.65544C295.228 0.36831 295.259 0.368325 292.938 1.28004C292.765 1.35155 292.444 1.32919 292.172 1.34706C291.122 1.34706 290.054 1.35154 289.004 1.35154C288.059 1.26215 287.139 1.19064 286.392 1.60181C284.367 1.60628 282.341 1.62416 280.335 1.63757C280.316 1.63757 280.316 1.63757 280.316 1.63757C280.267 1.29791 278.501 1.51243 279.371 0.877803C279.958 0.824173 280.921 0.824169 280.575 0.399596C280.063 -0.203746 279.198 0.0822824 278.507 0.399596C277.982 0.556017 277.463 0.707988 276.945 0.86441C275.037 1.26217 273.122 1.65545 271.202 2.05768C270.72 2.08896 270.22 2.1247 269.726 2.15599C269.189 2.15599 268.633 2.15154 268.077 2.15154C266.145 2.13813 264.206 2.16046 262.267 2.10236C260.556 2.0532 259.964 2.50013 259.951 3.29118C259.476 3.29118 258.976 3.29118 258.482 3.29118C258.216 3.06772 257.944 2.84873 257.66 2.6208C256.574 2.54036 255.314 1.95935 254.616 2.92023C254.283 3.56379 252.405 3.14368 252.14 3.83641C250.812 3.90792 250.578 4.43528 250.337 4.95371C249.306 5.4632 248.312 4.88221 247.28 4.93137C244.804 3.51016 241.315 4.40847 238.407 3.95261C238.185 3.92133 237.123 4.0286 237.493 4.38614C237.734 4.63642 238.5 4.73472 239.043 4.90008C238.185 5.19058 237.376 5.14589 236.412 4.98947C235.307 4.80176 234.245 4.8822 234.301 5.70901C234.616 6.09336 235.233 6.19167 235.962 6.20508C235.529 5.91905 235.035 5.70901 234.301 5.70901C233.825 5.70901 233.368 5.71348 232.887 5.71348C228.861 4.55149 227.311 4.66323 227.02 6.14253C226.508 6.19169 226.002 6.22298 225.501 6.25874C222.47 5.91461 219.438 6.07102 216.418 6.24531C216.004 5.72689 215.405 5.26208 214.059 5.03415C213.152 4.87773 212.59 5.04756 212.015 5.20398C211.441 5.04756 210.885 4.87773 209.965 5.03415C208.638 5.26208 208.02 5.72689 207.625 6.24531C204.587 6.07102 201.561 5.91461 198.529 6.25874C198.029 6.22298 197.523 6.18722 197.017 6.14253C196.714 4.66323 195.152 4.54702 191.138 5.71348C190.663 5.71348 190.206 5.70901 189.749 5.70901C188.995 5.70901 188.495 5.92352 188.075 6.20508C188.804 6.19167 189.434 6.09336 189.749 5.70901C189.792 4.8822 188.748 4.80176 187.625 4.98947C186.667 5.14589 185.84 5.18611 184.994 4.90008C185.544 4.73472 186.322 4.63642 186.562 4.38614C186.914 4.0286 185.871 3.91686 185.642 3.95261C182.728 4.40847 179.251 3.51016 176.769 4.93137C175.744 4.88221 174.731 5.46767 173.694 4.95371C173.459 4.43975 173.225 3.90792 171.909 3.83641C171.632 3.14368 169.767 3.56379 169.415 2.92023C168.729 1.95935 167.463 2.54036 166.383 2.6208C166.111 2.84873 165.833 3.07219 165.543 3.29118C165.068 3.29118 164.586 3.29118 164.098 3.29118C164.067 2.50013 163.505 2.05767 161.764 2.10236C159.837 2.16046 157.886 2.13366 155.96 2.15154C155.41 2.15154 154.86 2.15599 154.311 2.15599C153.829 2.1247 153.329 2.08896 152.841 2.05768C150.927 1.65545 149.007 1.26217 147.08 0.86441C146.58 0.707988 146.067 0.556017 145.543 0.399596C144.832 0.0822824 143.968 -0.203746 143.474 0.399596C143.122 0.824169 144.073 0.824173 144.66 0.877803C145.543 1.5169 143.758 1.29791 143.709 1.63757C141.683 1.62416 139.67 1.60628 137.645 1.60181C136.885 1.19064 135.965 1.26215 135.045 1.35154C133.971 1.35154 132.921 1.34706 131.859 1.34706C131.6 1.32919 131.279 1.35155 131.093 1.28004C128.784 0.368325 128.784 0.36831 126.11 1.65544C125.332 1.57052 124.56 1.47221 123.788 1.38282C122.405 0.663284 120.676 0.886736 118.997 0.900144C116.564 0.439816 115.656 1.5884 114.149 2.09789C113.612 1.95934 113.081 1.82528 112.544 1.6912C112.76 0.457702 111.179 0.17614 109.259 0.0688792C106.443 -0.279718 108.011 0.783948 107.777 1.26662C106.227 1.29344 106.066 1.8387 106.103 2.45992C103.708 2.10238 104.819 3.88559 102.905 3.82302C102.633 3.66659 102.355 3.51018 102.09 3.35376C99.9903 1.66887 97.4647 2.81296 95.3097 3.21519C93.5931 3.53697 95.8222 3.85428 95.7728 4.22523C95.7049 4.33249 95.6431 4.43976 95.5876 4.53808C94.4205 4.57383 93.1361 4.35485 92.2099 4.93584C92.0123 4.90009 91.8332 4.90009 91.6541 4.96713C90.1104 4.65876 88.579 4.7079 87.0662 5.03415C85.152 5.54811 84.6209 4.57384 83.5218 4.18055C82.4721 3.86323 81.6323 4.3772 80.6505 4.38167C80.0515 4.38167 79.644 4.48446 80.1009 4.7973C80.28 4.92691 80.774 4.92689 81.1321 4.97605C81.3668 5.89671 81.4902 6.77716 78.8227 6.61627C78.5263 6.87548 78.2423 7.13467 77.9397 7.4073C76.7047 7.7693 74.846 6.62966 73.9383 7.8274C72.5305 7.75589 71.4066 7.57267 72.4008 6.66989C71.5795 5.43193 69.7332 6.51347 68.4797 6.2185C68.1216 6.22297 67.7573 6.23189 67.3806 6.23189C67.1645 6.24083 66.9483 6.23192 66.7322 6.20063C67.5658 5.94589 68.3995 5.69561 69.2269 5.44534C70.0358 5.27551 71.0732 5.54364 71.9438 4.97605C70.3507 4.97605 68.949 4.97605 67.5658 4.97605C65.7195 5.26208 63.8485 5.41851 61.9281 5.37829C60.0386 5.67773 60.4709 6.72798 59.5076 7.33133C59.2729 7.35814 59.0445 7.38495 58.8036 7.4073C58.464 6.65647 57.9021 5.95035 56.0373 6.13806C54.3824 6.29448 53.0919 5.74922 51.579 5.67324H51.5728V5.73582C51.5728 5.73582 51.5728 5.73582 51.5543 5.73582C50.6775 4.99393 49.3869 5.48109 48.2569 5.44534C47.7197 5.39171 47.1763 5.34702 46.6391 5.30679C46.3797 5.06993 46.1266 4.84198 45.861 4.61852C46.3489 4.56489 46.8305 4.52021 47.3368 4.46658C46.7811 4.33698 46.2624 4.21629 45.7252 4.08221C44.731 4.11796 43.7307 4.14478 42.7489 4.1716C42.1376 4.18054 41.5201 4.18501 40.9211 4.19841C37.5805 4.25204 34.104 3.85876 30.504 4.98052C32.0045 5.56599 33.3013 5.39171 34.4683 5.44534C34.4869 5.67327 34.5301 5.91013 34.5424 6.13806C32.9123 6.29001 31.1154 5.81182 29.621 6.4822C27.9538 6.79057 27.0523 7.27324 28.2255 8.18496C28.244 8.50227 28.2687 8.82403 28.3058 9.13687C28.3058 9.13687 28.3058 9.13687 28.2996 9.13687C27.2499 9.49441 27.1572 9.87878 27.2931 10.2721C27.1758 10.2765 27.1819 10.2586 27.0584 10.2586C24.4959 9.67765 23.0201 11.2821 20.6612 11.081C19.2781 10.2363 18.5865 11.9659 17.3885 11.3313C15.3446 10.2452 13.7021 11.0274 11.9793 11.5503C11.3618 11.7961 10.7258 12.0329 10.1021 12.2743C6.42808 12.967 5.40922 14.8128 2.60581 16.1357C4.77938 16.4262 6.14403 15.3133 7.69393 16.234C6.16256 17.1636 2.36499 17.8071 6.16256 19.3356C5.47714 19.9389 4.72998 20.5467 4.6744 21.1501C4.13719 21.235 3.7173 21.4719 3.41473 21.9903C3.14303 22.4998 1.95745 22.9065 3.98282 23.0227C3.99517 23.273 4.00752 23.5277 4.01987 23.7824C3.1245 23.8495 2.51936 24.0551 2.56259 24.578C2.59346 24.6093 2.61199 24.6584 2.64904 24.6808C2.60581 24.7165 2.55024 24.7523 2.50702 24.7701C2.61816 24.8327 2.73549 24.8819 2.84046 24.9355C2.97013 25.0964 3.09981 25.2617 3.23565 25.4226C4.55091 26.4148 6.4466 25.588 8.00268 25.8204C7.88536 25.874 7.83596 25.9366 7.71863 25.9902C7.32344 26.1601 6.8418 26.2986 6.42808 26.455C5.42775 26.5891 4.41506 26.7411 3.38385 26.7411C2.69226 26.7276 1.98832 26.75 1.90187 27.2014C1.79072 27.7645 2.59964 27.8852 3.43942 27.8941C4.48916 27.8941 5.57594 27.8941 6.6689 27.8941C7.52104 28.0282 8.48433 27.8003 9.36734 27.8941C9.37351 27.8941 9.38586 27.8941 9.39821 27.8941C9.39821 27.9165 9.37351 27.9165 9.37351 27.9209C9.38586 27.9209 9.39821 27.9209 9.41056 27.9165C9.41674 28.4394 8.60165 28.5868 7.88536 28.7835C7.45312 28.788 7.00235 28.8013 6.55158 28.8013C4.78555 28.7835 2.97631 28.4572 0.815088 29.1097C2.91456 29.5835 4.87818 29.5924 6.7924 29.5388C7.21847 29.579 7.60131 29.6416 7.68776 29.9365C7.61366 30.0259 7.52721 30.1287 7.50251 30.236C7.48399 30.2494 7.61984 30.2986 7.73099 30.3075C6.78005 30.3075 5.82911 30.3343 4.87818 30.3075C4.05691 30.2851 3.72347 30.6874 3.05658 30.7901C2.64286 30.7901 2.42056 30.9153 2.16122 31.027C1.4758 31.2415 0.481643 31.1656 0 31.5991C2.65521 32.3275 5.31042 32.265 7.97798 31.617C8.14471 31.6527 8.2929 31.6885 8.4411 31.7287C8.23733 31.8225 7.91623 31.8404 7.76186 31.9745C6.68742 32.2829 5.59447 32.5778 4.50768 32.8862C3.7173 32.8817 3.00718 33.0024 2.55641 33.3734C2.24149 33.427 1.92657 33.4717 1.61165 33.5298C1.21646 33.427 0.802738 33.2348 0.531042 33.4225C0.0987989 33.6996 0.339623 33.8382 0.654543 33.9678C0.438422 34.0795 0.142023 34.1152 0 34.3163C0.426069 34.3029 0.642193 34.1823 1.02504 34.1599C1.25968 34.2359 1.55608 34.2895 1.59313 34.4102C1.30908 34.5443 0.191422 34.3476 0.926236 34.8705C2.19827 35.2683 3.55675 35.2996 4.93993 35.2817C4.06926 35.4917 3.23565 35.7018 2.19209 35.9521C4.33479 36.2694 5.67474 35.6929 7.15054 35.3487C7.18759 35.3487 7.21847 35.3264 7.24934 35.3264C8.00886 35.3219 8.76837 35.2638 9.49701 35.3532C7.89153 36.1487 5.52654 35.304 3.88402 36.0459C3.42707 36.0817 2.97013 36.1309 2.50702 36.1711C3.42708 36.5331 4.32861 36.3096 5.2425 36.1532C4.35949 36.2917 3.4703 36.4035 2.50702 36.1711C1.93892 37.5342 1.93892 37.5342 5.97731 37.8738C5.87851 38.8258 3.79139 38.3967 3.13068 38.942C2.29089 39.9207 3.75435 39.7598 4.77321 39.8045C7.91623 39.9297 11.0593 40.0369 14.1961 40.1531C15.2026 40.1889 16.3512 39.9922 16.9872 40.6179C16.9748 41.1721 16.9686 41.7263 16.9625 42.276C16.5364 42.6112 16.6105 42.8168 16.7463 42.9821C16.1042 43.3397 15.8016 43.7911 15.5916 44.2737C14.4987 44.9933 15.4928 45.0827 16.6105 45.1408C17.0613 45.8469 14.1776 47.5139 18.2777 47.0804C18.358 47.1206 18.2407 47.1564 18.358 47.1966C18.4321 47.2323 18.5124 47.2726 18.5988 47.3262C18.5494 48.372 15.1841 48.725 16.5302 50.0345C16.0115 50.2535 14.9495 50.544 16.2091 50.7764C18.1913 51.1652 18.1728 51.5093 16.8019 52.211C16.5117 52.3719 17.018 52.9261 17.1601 53.2881C16.2153 53.9138 16.6661 54.6378 16.6105 55.3305C15.357 56.0367 14.1097 56.7517 12.8562 57.4579C12.708 57.5473 12.6092 57.659 12.5659 57.7841C10.9852 57.7528 9.89838 58.316 8.6634 58.6869C8.13236 58.8523 6.9406 58.8701 7.34814 59.4422C7.66924 59.8712 8.52755 59.9293 9.36116 59.9249C7.99651 60.5818 5.57594 60.9796 7.03939 62.3516C6.8665 62.6913 5.67474 63.2499 7.60749 63.1516C8.4658 63.098 9.27471 62.8745 10.1207 62.736C11.1272 63.1382 9.90455 63.6432 10.3121 64.0768C9.12652 64.5818 7.94093 65.0868 6.76153 65.5963C9.05859 65.422 9.85515 67.0622 11.8311 66.4543C12.6092 67.3214 9.05242 67.9515 11.3433 68.899C10.979 69.0376 10.5838 69.185 10.2133 69.3191C8.65105 69.2521 7.39137 69.6141 5.366 70.1414C7.81126 70.1414 9.39821 70.1414 10.9852 70.1414L11.0778 70.1236C10.9049 70.6956 11.4668 70.9504 12.5536 70.9682C12.603 71.1068 12.6586 71.2409 12.7141 71.3705C11.6397 71.795 10.5529 72.2152 9.48466 72.6442C8.40405 72.2152 7.31727 72.1615 6.18726 72.5861C5.0943 72.6487 3.92724 72.4163 2.38351 72.9839C4.00134 72.9839 5.119 72.9839 6.22431 72.9839C7.00852 73.1313 6.31076 73.9403 7.78656 73.8196C8.89187 73.7436 9.31794 73.4487 9.41056 72.9481C10.3491 73.3503 11.473 73.3816 12.603 73.395C12.8315 73.5559 12.1831 74.2218 13.4551 73.7928C13.6898 73.8062 13.9306 73.8285 14.1467 73.8643C14.1467 74.1012 14.1652 74.3291 14.1652 74.5659C13.6774 74.624 13.2081 74.6777 12.7327 74.7313C11.5965 74.8877 10.4603 75.0531 8.6387 75.3079C10.5714 75.4464 11.7817 75.6967 12.6215 75.0129C14.2085 75.0129 15.7831 75.0129 17.3577 75.0129C16.9995 74.6866 16.3573 74.6553 15.7151 74.6017C15.7398 74.5928 15.7892 74.6017 15.8016 74.5883C16.2091 74.8475 16.9501 74.776 17.3577 75.0129C19.3028 75.0754 20.3093 76.3134 22.8101 75.9246C25.9593 75.4151 29.3617 75.3391 32.1774 74.3201C33.5483 74.3067 34.9253 74.2844 36.1294 73.8822C38.0374 73.9001 39.9887 74.0386 41.7177 73.4531C42.4648 73.3906 43.2243 73.328 44.0024 73.2788C46.4477 73.2431 48.9855 73.4352 51.2209 72.6889C52.7893 72.5325 54.4133 72.8989 55.9447 72.5101C58.6246 72.3761 61.3045 72.2241 63.9782 72.09C64.6266 72.1213 65.2194 71.9828 65.843 71.9515C66.3741 71.9559 66.973 71.8665 67.5103 71.8174C68.5538 71.8487 69.6344 71.9649 70.5174 71.5314C70.9744 71.4956 71.4251 71.4509 71.8759 71.4062C75.5685 71.8442 79.2364 72.2688 82.682 70.9995C83.8861 71.0174 85.0717 71.0353 86.2635 71.0353C90.3018 71.1202 94.1488 70.5526 98.0514 70.2085C98.7676 70.1817 99.4839 70.1325 100.194 70.0967C101.651 69.9314 101.892 70.9816 103.269 70.8967C104.214 70.3425 106.295 72.7649 106.628 70.5705C113.025 69.4979 119.392 69.5649 125.789 70.5794C126.184 70.9414 124.752 71.6476 126.184 71.6923C127.345 71.728 127.16 71.0666 126.882 70.6062C127.58 70.5705 128.302 70.5481 129.019 70.5169C130.383 70.5437 131.748 70.575 133.106 70.6018C134.187 70.4498 135.558 70.7939 136.348 70.1191C138.231 70.2263 139.825 69.8643 141.344 69.3683C142.961 70.4722 143.406 69.7973 143.727 68.9526C144.196 69.051 144.672 69.1404 145.16 69.2387C145.431 69.27 145.703 69.3012 145.962 69.3415C146.086 69.8599 146.302 70.3202 147.58 69.7973C149.519 69.9314 148.457 68.5817 150.007 68.5147C150.538 68.4878 151.063 68.461 151.606 68.4342C152.119 68.4476 152.638 68.4476 153.175 68.4566C154.342 68.7202 152.415 69.3057 153.743 69.6185C154.731 69.1135 155.379 68.2554 157.269 68.4566L157.645 68.47L158.022 68.4342C158.584 68.5817 159.152 68.7202 159.72 68.8722C160.047 69.8375 157.368 68.9616 157.485 69.8554C158.337 70.3202 159.418 70.0521 160.43 70.0655C162.53 70.2129 164.104 69.7705 165.271 68.9124C166.63 68.461 167.846 68.3716 168.624 69.2878C168.773 70.8789 171.31 69.7303 172.459 70.1593C172.298 70.4766 171.594 71.1381 173.039 70.7582C174.194 70.4722 175.145 70.0074 176.534 70.0565C177.837 70.0655 178.887 69.8062 179.77 69.3325C185.26 69.2074 190.731 69.2253 196.035 68.1258C196.43 68.0409 196.856 68.099 197.282 68.0499C197.418 68.0499 197.548 68.0409 197.702 68.0499C200.03 68.2778 202.339 68.5549 204.704 68.6845C204.883 68.689 205.519 68.7917 206.069 68.7202C206.402 68.7515 206.748 68.7783 207.088 68.8051C207.384 68.6621 207.495 68.4655 207.582 68.2689C207.322 68.4253 207.094 68.5862 207.088 68.8051C207.872 68.8588 208.662 68.908 209.434 68.9616C209.502 69.3593 209.039 70.1906 210.62 69.3459C211.015 69.1314 211.509 69.0867 212.003 69.0152C212.497 69.0867 212.997 69.1359 213.399 69.3459C214.967 70.1906 214.498 69.3593 214.566 68.9616C215.338 68.908 216.134 68.8588 216.918 68.8051C217.252 68.7783 217.591 68.7515 217.925 68.7202C218.462 68.7917 219.123 68.689 219.302 68.6845C221.642 68.5594 223.982 68.2778 226.304 68.0499C226.428 68.0409 226.594 68.0499 226.73 68.0499C227.138 68.099 227.564 68.0409 227.965 68.1258C233.257 69.2208 238.722 69.2074 244.242 69.3325C245.125 69.8062 246.175 70.0655 247.466 70.0565C248.861 70.0029 249.8 70.4677 250.954 70.7582C252.393 71.1381 251.72 70.4722 251.535 70.1593C252.702 69.7347 255.227 70.8789 255.363 69.2878C256.147 68.3761 257.364 68.4655 258.71 68.9124C259.914 69.775 261.464 70.2129 263.582 70.0655C264.564 70.0565 265.675 70.3202 266.528 69.8554C266.645 68.9616 263.959 69.8375 264.274 68.8722C264.842 68.7202 265.416 68.5772 265.984 68.4342L266.367 68.47L266.725 68.4566C268.608 68.2599 269.269 69.1135 270.251 69.6185C271.579 69.3057 269.671 68.7202 270.838 68.4566C271.362 68.4476 271.869 68.4476 272.4 68.4342C272.931 68.461 273.45 68.4878 273.987 68.5147C275.537 68.5817 274.481 69.9269 276.42 69.7973C277.679 70.3202 277.908 69.8643 278.044 69.3415C278.309 69.2968 278.581 69.27 278.853 69.2387C279.328 69.1404 279.791 69.051 280.273 68.9526C280.588 69.7973 281.039 70.4766 282.656 69.3683C284.182 69.8643 285.781 70.2308 287.652 70.1191C288.436 70.7939 289.801 70.4498 290.888 70.6018C292.265 70.575 293.617 70.5437 294.988 70.5169C295.679 70.5481 296.408 70.575 297.124 70.6062C296.822 71.071 296.649 71.7325 297.822 71.6923C299.242 71.652 297.822 70.9459 298.199 70.5794C304.596 69.5605 310.987 69.4979 317.359 70.5705C317.693 72.7649 319.761 70.3425 320.725 70.8967C322.102 70.9816 322.349 69.9314 323.794 70.0967C324.504 70.1325 325.232 70.1817 325.93 70.2085C329.845 70.5526 333.686 71.1202 337.724 71.0353C338.916 71.0308 340.108 71.0174 341.299 70.9995C344.751 72.2688 348.444 71.8442 352.112 71.4062C352.581 71.4509 353.032 71.4911 353.476 71.5314C354.353 71.9604 355.44 71.8487 356.496 71.8174C357.021 71.8665 357.62 71.9559 358.163 71.9515C358.762 71.9783 359.355 72.1213 360.003 72.09C362.689 72.2286 365.369 72.3805 368.049 72.5101C369.574 72.8989 371.217 72.5325 372.773 72.6889C375.002 73.4352 377.546 73.2431 379.998 73.2788C380.763 73.3325 381.523 73.3906 382.288 73.4531C383.999 74.0386 385.956 73.9001 387.846 73.8822C389.069 74.2889 390.433 74.3067 391.804 74.3201C394.62 75.3347 398.022 75.4106 401.171 75.9246C403.666 76.3134 404.673 75.071 406.611 75.0129C408.211 75.0129 409.785 75.0129 411.36 75.0129C412.194 75.6922 413.404 75.4419 415.337 75.3079C413.521 75.0531 412.397 74.8877 411.255 74.7313C410.78 74.6777 410.31 74.624 409.829 74.5659C409.829 74.3291 409.829 74.1012 409.829 73.8643C410.051 73.833 410.279 73.8062 410.52 73.7928C411.805 74.2218 411.162 73.5559 411.379 73.395C412.515 73.3816 413.638 73.3459 414.552 72.9481C414.664 73.4487 415.096 73.7436 416.195 73.8196C417.689 73.9358 416.991 73.1269 417.757 72.9839C418.862 72.9839 419.986 72.9839 421.604 72.9839C420.073 72.4163 418.9 72.6487 417.8 72.5861C416.67 72.1615 415.571 72.2107 414.515 72.6442C413.429 72.2196 412.354 71.7995 411.273 71.3705C411.311 71.2409 411.378 71.1068 411.428 70.9682C412.527 70.9504 413.07 70.6956 412.904 70.1236L412.996 70.1414C414.571 70.1414 416.17 70.1414 418.634 70.1414C416.578 69.6096 415.337 69.2521 413.762 69.3191C413.385 69.1806 413.021 69.0331 412.638 68.899C414.917 67.9515 411.36 67.3214 412.169 66.4543C414.132 67.0577 414.917 65.4175 417.232 65.5963C416.047 65.0912 414.873 64.5862 413.669 64.0768C414.077 63.6432 412.848 63.1338 413.879 62.736C414.713 62.8745 415.522 63.098 416.374 63.1516C418.307 63.2499 417.121 62.6913 416.936 62.3516C418.399 60.9796 415.997 60.5818 414.645 59.9249C415.454 59.9293 416.337 59.8712 416.646 59.4422C417.053 58.8701 415.861 58.8523 415.318 58.6869C414.108 58.3115 413.027 57.7484 411.434 57.7841C411.409 57.659 411.292 57.5473 411.138 57.4579C409.903 56.7473 408.643 56.0367 407.402 55.3305C407.334 54.6378 407.791 53.9138 406.846 53.2881C406.97 52.9261 407.494 52.3719 407.204 52.211C405.827 51.5093 405.827 51.1652 407.785 50.7764C409.063 50.544 407.988 50.249 407.464 50.0345C408.81 48.725 405.432 48.372 405.401 47.3262C405.494 47.2726 405.549 47.2368 405.642 47.1966C405.759 47.1564 405.642 47.1206 405.71 47.0804C409.835 47.5139 406.933 45.8469 407.402 45.1408C408.501 45.0827 409.495 44.9933 408.408 44.2737C408.211 43.7911 407.896 43.3441 407.241 42.9821C407.402 42.8168 407.47 42.6112 407.044 42.276C407.044 41.7218 407.025 41.1676 407.025 40.6179C407.624 39.9922 408.797 40.1933 409.792 40.1531C412.941 40.0369 416.096 39.9297 419.227 39.8045C420.239 39.7598 421.703 39.9207 420.869 38.942C420.196 38.3967 418.128 38.8213 418.035 37.8738C422.061 37.5342 422.061 37.5342 421.474 36.1711C420.536 36.4035 419.641 36.2873 418.757 36.1532C419.659 36.3096 420.585 36.5376 421.474 36.1711C421.024 36.1353 420.585 36.0862 420.11 36.0459C418.492 35.3085 416.102 36.1487 414.509 35.3532C415.219 35.2638 415.991 35.3219 416.732 35.3264C416.775 35.3264 416.8 35.3487 416.849 35.3487C418.307 35.6929 419.659 36.2694 421.82 35.9521C420.771 35.7018 419.931 35.4873 419.054 35.2817C420.419 35.2996 421.789 35.2683 423.08 34.8705C423.827 34.3521 422.703 34.5443 422.401 34.4102C422.45 34.2851 422.734 34.2359 422.987 34.1599C423.345 34.1823 423.574 34.3029 423.994 34.3163Z" fill="#FF0E02"/>
</svg>
